SplineFontDB: 3.2
FontName: KoreeneSans-Medium
FullName: Koreene Sans Medium
FamilyName: Koreene Sans Medium
Weight: Medium
Copyright: (C) Copyright HanYang I&C Co.,Ltd. All rights reserved.
Version: 2.52
ItalicAngle: 0
UnderlinePosition: -244
UnderlineWidth: 90
Ascent: 1638
Descent: 410
InvalidEm: 0
sfntRevision: 0x00020147
LayerCount: 2
Layer: 0 1 "Back" 1
Layer: 1 1 "Fore" 0
XUID: [1021 531 -1996577725 14922474]
StyleMap: 0x0040
FSType: 0
OS2Version: 4
OS2_WeightWidthSlopeOnly: 0
OS2_UseTypoMetrics: 1
CreationTime: 1068260456
ModificationTime: 1706985662
PfmFamily: 81
TTFWeight: 500
TTFWidth: 5
LineGap: 512
VLineGap: 0
Panose: 0 0 0 0 0 0 0 0 0 0
OS2TypoAscent: 1940
OS2TypoAOffset: 0
OS2TypoDescent: -470
OS2TypoDOffset: 0
OS2TypoLinegap: 512
OS2WinAscent: 2196
OS2WinAOffset: 0
OS2WinDescent: 726
OS2WinDOffset: 0
HheadAscent: 1940
HheadAOffset: 0
HheadDescent: -470
HheadDOffset: 0
OS2SubXSize: 410
OS2SubYSize: 410
OS2SubXOff: 0
OS2SubYOff: 574
OS2SupXSize: 410
OS2SupYSize: 410
OS2SupXOff: 0
OS2SupYOff: 1926
OS2StrikeYSize: 204
OS2StrikeYPos: 1024
OS2CapHeight: 1470
OS2XHeight: 1062
OS2Vendor: 'HY  '
OS2CodePages: 2000019f.00000000
OS2UnicodeRanges: e10002ff.4000001b.00000000.00000000
Lookup: 1 0 0 "'aalt' Access All Alternates lookup 0" { "'aalt' Access All Alternates lookup 0 subtable"  } ['aalt' ('DFLT' <'dflt' > 'cyrl' <'dflt' > 'grek' <'dflt' > 'hang' <'dflt' > 'jamo' <'dflt' > 'latn' <'dflt' > ) ]
Lookup: 3 0 0 "'aalt' Access All Alternates lookup 1" { "'aalt' Access All Alternates lookup 1 subtable"  } ['aalt' ('DFLT' <'dflt' > 'cyrl' <'dflt' > 'grek' <'dflt' > 'hang' <'dflt' > 'jamo' <'dflt' > 'latn' <'dflt' > ) ]
Lookup: 1 0 0 "'locl' Localized Forms in Latin lookup 2" { "'locl' Localized Forms in Latin lookup 2 subtable"  } ['locl' ('latn' <'MOL ' > ) ]
Lookup: 1 0 0 "'locl' Localized Forms in Latin lookup 3" { "'locl' Localized Forms in Latin lookup 3 subtable"  } ['locl' ('latn' <'ROM ' > ) ]

StartChar: exclam
Encoding: 33 33 4
Width: 620
GlyphClass: 2
Flags: W
LayerCount: 2
Fore
SplineSet
176 -16 m 1,0,-1
 176 230 l 1,1,-1
 446 230 l 1,2,-1
 446 -16 l 1,3,-1
 176 -16 l 1,0,-1
396 410 m 1,4,-1
 226 410 l 1,5,-1
 208 1474 l 1,6,-1
 412 1474 l 1,7,-1
 396 410 l 1,4,-1
EndSplineSet
EndChar

StartChar: quotedbl
Encoding: 34 34 5
Width: 1022
GlyphClass: 2
Flags: W
LayerCount: 2
Fore
SplineSet
552 1060 m 1,0,-1
 718 1644 l 1,1,-1
 954 1644 l 1,2,-1
 698 1060 l 1,3,-1
 552 1060 l 1,0,-1
132 1060 m 1,4,-1
 300 1644 l 1,5,-1
 538 1644 l 1,6,-1
 280 1060 l 1,7,-1
 132 1060 l 1,4,-1
EndSplineSet
EndChar

StartChar: numbersign
Encoding: 35 35 6
Width: 1434
GlyphClass: 2
Flags: W
LayerCount: 2
Fore
SplineSet
98 392 m 1,0,-1
 98 532 l 1,1,-1
 348 532 l 1,2,-1
 398 898 l 1,3,-1
 160 898 l 1,4,-1
 160 1036 l 1,5,-1
 416 1036 l 1,6,-1
 468 1424 l 1,7,-1
 634 1424 l 1,8,-1
 582 1036 l 1,9,-1
 942 1036 l 1,10,-1
 992 1424 l 1,11,-1
 1158 1424 l 1,12,-1
 1106 1036 l 1,13,-1
 1338 1036 l 1,14,-1
 1338 898 l 1,15,-1
 1088 898 l 1,16,-1
 1040 532 l 1,17,-1
 1278 532 l 1,18,-1
 1278 392 l 1,19,-1
 1024 392 l 1,20,-1
 972 4 l 1,21,-1
 802 4 l 1,22,-1
 856 392 l 1,23,-1
 498 392 l 1,24,-1
 446 4 l 1,25,-1
 278 4 l 1,26,-1
 330 392 l 1,27,-1
 98 392 l 1,0,-1
516 532 m 1,28,-1
 872 532 l 1,29,-1
 922 898 l 1,30,-1
 562 898 l 1,31,-1
 516 532 l 1,28,-1
EndSplineSet
EndChar

StartChar: dollar
Encoding: 36 36 7
Width: 1170
GlyphClass: 2
Flags: W
LayerCount: 2
Fore
SplineSet
112 282 m 1,0,-1
 250 350 l 1,1,2
 308 262 308 262 402 208 c 128,-1,3
 496 154 496 154 594 154 c 0,4,5
 708 154 708 154 786 213 c 128,-1,6
 864 272 864 272 864 388 c 0,7,8
 864 434 864 434 846 472 c 128,-1,9
 828 510 828 510 808 535 c 128,-1,10
 788 560 788 560 737 589 c 128,-1,11
 686 618 686 618 654 634 c 128,-1,12
 622 650 622 650 545 681 c 128,-1,13
 468 712 468 712 430 730 c 0,14,15
 288 794 288 794 220 881 c 128,-1,16
 152 968 152 968 152 1098 c 0,17,18
 152 1226 152 1226 245 1333 c 128,-1,19
 338 1440 338 1440 504 1460 c 1,20,-1
 504 1624 l 1,21,-1
 674 1624 l 1,22,-1
 674 1458 l 1,23,24
 782 1450 782 1450 880 1377 c 128,-1,25
 978 1304 978 1304 1016 1220 c 1,26,-1
 874 1152 l 1,27,28
 762 1314 762 1314 590 1314 c 0,29,30
 474 1314 474 1314 406 1252 c 128,-1,31
 338 1190 338 1190 338 1096 c 0,32,33
 338 1040 338 1040 354 1002 c 128,-1,34
 370 964 370 964 432 924 c 128,-1,35
 494 884 494 884 522 872 c 128,-1,36
 550 860 550 860 660 814 c 0,37,38
 690 800 690 800 706 794 c 0,39,40
 778 764 778 764 831 734 c 128,-1,41
 884 704 884 704 938 658 c 128,-1,42
 992 612 992 612 1021 547 c 128,-1,43
 1050 482 1050 482 1050 402 c 0,44,45
 1050 234 1050 234 945 130 c 128,-1,46
 840 26 840 26 674 4 c 1,47,-1
 674 -148 l 1,48,-1
 504 -148 l 1,49,-1
 504 8 l 1,50,51
 392 18 392 18 280 93 c 128,-1,52
 168 168 168 168 112 282 c 1,0,-1
EndSplineSet
EndChar

StartChar: percent
Encoding: 37 37 8
Width: 1964
GlyphClass: 2
Flags: W
LayerCount: 2
Fore
SplineSet
1062 326 m 256,0,1
 1062 484 1062 484 1170 585 c 128,-1,2
 1278 686 1278 686 1446 686 c 0,3,4
 1612 686 1612 686 1721 585 c 128,-1,5
 1830 484 1830 484 1830 326 c 0,6,7
 1830 164 1830 164 1721 65 c 128,-1,8
 1612 -34 1612 -34 1446 -34 c 0,9,10
 1282 -34 1282 -34 1172 67 c 128,-1,11
 1062 168 1062 168 1062 326 c 256,0,1
1234 326 m 256,12,13
 1234 226 1234 226 1297 166 c 128,-1,14
 1360 106 1360 106 1446 106 c 0,15,16
 1534 106 1534 106 1595 166 c 128,-1,17
 1656 226 1656 226 1656 326 c 256,18,19
 1656 426 1656 426 1596 486 c 128,-1,20
 1536 546 1536 546 1446 546 c 0,21,22
 1358 546 1358 546 1296 486 c 128,-1,23
 1234 426 1234 426 1234 326 c 256,12,13
134 1144 m 0,24,25
 134 1302 134 1302 241 1403 c 128,-1,26
 348 1504 348 1504 518 1504 c 0,27,28
 686 1504 686 1504 794 1403 c 128,-1,29
 902 1302 902 1302 902 1144 c 0,30,31
 902 984 902 984 793 884 c 128,-1,32
 684 784 684 784 518 784 c 256,33,34
 352 784 352 784 243 884 c 128,-1,35
 134 984 134 984 134 1144 c 0,24,25
308 1144 m 256,36,37
 308 1044 308 1044 370 984 c 128,-1,38
 432 924 432 924 518 924 c 256,39,40
 604 924 604 924 667 985 c 128,-1,41
 730 1046 730 1046 730 1144 c 0,42,43
 730 1244 730 1244 669 1304 c 128,-1,44
 608 1364 608 1364 518 1364 c 0,45,46
 430 1364 430 1364 369 1304 c 128,-1,47
 308 1244 308 1244 308 1144 c 256,36,37
364 -4 m 1,48,-1
 1412 1474 l 1,49,-1
 1602 1474 l 1,50,-1
 552 -4 l 1,51,-1
 364 -4 l 1,48,-1
EndSplineSet
EndChar

StartChar: ampersand
Encoding: 38 38 9
Width: 1306
GlyphClass: 2
Flags: W
LayerCount: 2
Fore
SplineSet
296 378 m 0,0,1
 296 258 296 258 374 189 c 128,-1,2
 452 120 452 120 576 120 c 0,3,4
 742 120 742 120 876 276 c 1,5,-1
 530 740 l 1,6,7
 296 574 296 574 296 378 c 0,0,1
110 376 m 0,8,9
 110 656 110 656 438 868 c 1,10,11
 380 948 380 948 361 977 c 128,-1,12
 342 1006 342 1006 320 1061 c 128,-1,13
 298 1116 298 1116 298 1172 c 0,14,15
 298 1304 298 1304 397 1394 c 128,-1,16
 496 1484 496 1484 668 1484 c 0,17,18
 814 1484 814 1484 913 1412 c 128,-1,19
 1012 1340 1012 1340 1064 1228 c 1,20,-1
 924 1166 l 1,21,22
 888 1234 888 1234 824 1283 c 128,-1,23
 760 1332 760 1332 682 1332 c 0,24,25
 590 1332 590 1332 538 1284 c 128,-1,26
 486 1236 486 1236 486 1166 c 0,27,28
 486 1092 486 1092 594 933 c 128,-1,29
 702 774 702 774 970 426 c 1,30,31
 1024 544 1024 544 1050 696 c 1,32,-1
 1218 666 l 1,33,34
 1184 454 1184 454 1082 280 c 1,35,-1
 1300 0 l 1,36,-1
 1084 0 l 1,37,-1
 976 138 l 1,38,39
 810 -34 810 -34 570 -34 c 0,40,41
 350 -34 350 -34 230 83 c 128,-1,42
 110 200 110 200 110 376 c 0,8,9
EndSplineSet
EndChar

StartChar: quotesingle
Encoding: 39 39 10
Width: 632
GlyphClass: 2
Flags: W
LayerCount: 2
Fore
SplineSet
158 1060 m 1,0,-1
 324 1644 l 1,1,-1
 560 1644 l 1,2,-1
 304 1060 l 1,3,-1
 158 1060 l 1,0,-1
EndSplineSet
EndChar

StartChar: parenleft
Encoding: 40 40 11
Width: 888
GlyphClass: 2
Flags: W
LayerCount: 2
Fore
SplineSet
284 706 m 0,0,1
 284 1264 284 1264 624 1704 c 1,2,-1
 756 1630 l 1,3,4
 698 1538 698 1538 676 1503 c 128,-1,5
 654 1468 654 1468 603 1366 c 128,-1,6
 552 1264 552 1264 529 1184 c 128,-1,7
 506 1104 506 1104 485 975 c 128,-1,8
 464 846 464 846 464 706 c 0,9,10
 464 540 464 540 487 401 c 128,-1,11
 510 262 510 262 559 145 c 128,-1,12
 608 28 608 28 648 -43 c 128,-1,13
 688 -114 688 -114 756 -218 c 1,14,-1
 624 -292 l 1,15,16
 468 -86 468 -86 376 150 c 128,-1,17
 284 386 284 386 284 706 c 0,0,1
EndSplineSet
Substitution2: "'sups' Superscript lookup 5 subtable" uni207D
Substitution2: "'aalt' Access All Alternates lookup 0 subtable" uni207D
EndChar

StartChar: parenright
Encoding: 41 41 12
Width: 888
GlyphClass: 2
Flags: W
LayerCount: 2
Fore
SplineSet
132 -218 m 1,0,1
 280 -2 280 -2 352 209 c 128,-1,2
 424 420 424 420 424 706 c 0,3,4
 424 870 424 870 401 1008 c 128,-1,5
 378 1146 378 1146 330 1263 c 128,-1,6
 282 1380 282 1380 241 1453 c 128,-1,7
 200 1526 200 1526 132 1630 c 1,8,-1
 266 1704 l 1,9,10
 606 1260 606 1260 606 706 c 0,11,12
 606 386 606 386 514 149 c 128,-1,13
 422 -88 422 -88 266 -292 c 1,14,-1
 132 -218 l 1,0,1
EndSplineSet
Substitution2: "'sups' Superscript lookup 5 subtable" uni207E
Substitution2: "'aalt' Access All Alternates lookup 0 subtable" uni207E
EndChar

StartChar: asterisk
Encoding: 42 42 13
Width: 1116
GlyphClass: 2
Flags: W
LayerCount: 2
Fore
SplineSet
42 822 m 1,0,-1
 108 972 l 1,1,-1
 486 826 l 1,2,-1
 470 1206 l 1,3,-1
 644 1206 l 1,4,-1
 630 826 l 1,5,-1
 1008 972 l 1,6,-1
 1072 822 l 1,7,-1
 670 688 l 1,8,-1
 972 358 l 1,9,-1
 834 258 l 1,10,-1
 556 610 l 1,11,-1
 280 258 l 1,12,-1
 144 358 l 1,13,-1
 446 688 l 1,14,-1
 42 822 l 1,0,-1
EndSplineSet
EndChar

StartChar: plus
Encoding: 43 43 14
Width: 1116
GlyphClass: 2
Flags: W
LayerCount: 2
Fore
SplineSet
54 648 m 1,0,-1
 54 808 l 1,1,-1
 468 808 l 1,2,-1
 468 1218 l 1,3,-1
 646 1218 l 1,4,-1
 646 808 l 1,5,-1
 1060 808 l 1,6,-1
 1060 648 l 1,7,-1
 646 648 l 1,8,-1
 646 222 l 1,9,-1
 468 222 l 1,10,-1
 468 648 l 1,11,-1
 54 648 l 1,0,-1
EndSplineSet
Substitution2: "'sups' Superscript lookup 5 subtable" uni207A
Substitution2: "'aalt' Access All Alternates lookup 0 subtable" uni207A
EndChar

StartChar: comma
Encoding: 44 44 15
Width: 550
GlyphClass: 2
Flags: W
LayerCount: 2
Fore
SplineSet
20 -332 m 1,0,-1
 188 252 l 1,1,-1
 426 252 l 1,2,-1
 168 -332 l 1,3,-1
 20 -332 l 1,0,-1
EndSplineSet
EndChar

StartChar: hyphen
Encoding: 45 45 16
Width: 782
GlyphClass: 2
Flags: W
LayerCount: 2
Fore
SplineSet
66 648 m 1,0,-1
 66 808 l 1,1,-1
 714 808 l 1,2,-1
 714 648 l 1,3,-1
 66 648 l 1,0,-1
EndSplineSet
EndChar

StartChar: period
Encoding: 46 46 17
Width: 550
GlyphClass: 2
Flags: W
LayerCount: 2
Fore
SplineSet
142 0 m 1,0,-1
 142 252 l 1,1,-1
 412 252 l 1,2,-1
 412 0 l 1,3,-1
 142 0 l 1,0,-1
EndSplineSet
EndChar

StartChar: slash
Encoding: 47 47 18
Width: 702
GlyphClass: 2
Flags: W
LayerCount: 2
Fore
SplineSet
-26 -110 m 1,0,-1
 540 1562 l 1,1,-1
 730 1562 l 1,2,-1
 164 -110 l 1,3,-1
 -26 -110 l 1,0,-1
EndSplineSet
EndChar

StartChar: zero
Encoding: 48 48 19
Width: 1100
GlyphClass: 2
Flags: W
LayerCount: 2
Fore
SplineSet
276 734 m 0,0,1
 276 552 276 552 302 420 c 128,-1,2
 328 288 328 288 391 204 c 128,-1,3
 454 120 454 120 552 120 c 0,4,5
 628 120 628 120 683 170 c 128,-1,6
 738 220 738 220 768 309 c 128,-1,7
 798 398 798 398 811 502 c 128,-1,8
 824 606 824 606 824 734 c 0,9,10
 824 1014 824 1014 757 1183 c 128,-1,11
 690 1352 690 1352 548 1352 c 0,12,13
 408 1352 408 1352 342 1185 c 128,-1,14
 276 1018 276 1018 276 734 c 0,0,1
82 734 m 0,15,16
 82 944 82 944 123 1100 c 128,-1,17
 164 1256 164 1256 232 1341 c 128,-1,18
 300 1426 300 1426 379 1465 c 128,-1,19
 458 1504 458 1504 548 1504 c 0,20,21
 770 1504 770 1504 893 1304 c 128,-1,22
 1016 1104 1016 1104 1016 734 c 0,23,24
 1016 388 1016 388 900 177 c 128,-1,25
 784 -34 784 -34 552 -34 c 0,26,27
 462 -34 462 -34 382 6 c 128,-1,28
 302 46 302 46 233 133 c 128,-1,29
 164 220 164 220 123 374 c 128,-1,30
 82 528 82 528 82 734 c 0,15,16
EndSplineSet
EndChar

StartChar: one
Encoding: 49 49 20
Width: 1100
GlyphClass: 2
Flags: W
LayerCount: 2
Fore
SplineSet
178 1094 m 1,0,-1
 178 1236 l 1,1,-1
 240 1236 l 2,2,3
 408 1236 408 1236 472 1291 c 128,-1,4
 536 1346 536 1346 536 1444 c 2,5,-1
 536 1470 l 1,6,-1
 698 1470 l 1,7,-1
 698 0 l 5,8,-1
 504 0 l 5,9,-1
 504 1094 l 1,10,-1
 178 1094 l 1,0,-1
EndSplineSet
Substitution2: "'subs' Subscript lookup 6 subtable" uni2081
Substitution2: "'sups' Superscript lookup 5 subtable" onesuperior
Substitution2: "'sinf' Scientific Inferiors lookup 4 subtable" uni2081
AlternateSubs2: "'aalt' Access All Alternates lookup 1 subtable" uni2081 onesuperior
EndChar

StartChar: two
Encoding: 50 50 21
Width: 1100
GlyphClass: 2
Flags: W
LayerCount: 2
Fore
SplineSet
88 1128 m 1,0,1
 130 1302 130 1302 245 1403 c 128,-1,2
 360 1504 360 1504 544 1504 c 0,3,4
 736 1504 736 1504 858 1395 c 128,-1,5
 980 1286 980 1286 980 1092 c 0,6,7
 980 872 980 872 754 656 c 0,8,9
 734 636 734 636 677 582 c 128,-1,10
 620 528 620 528 603 511 c 128,-1,11
 586 494 586 494 541 450 c 128,-1,12
 496 406 496 406 480 387 c 128,-1,13
 464 368 464 368 433 331 c 128,-1,14
 402 294 402 294 387 270 c 128,-1,15
 372 246 372 246 354 215 c 128,-1,16
 336 184 336 184 324 154 c 1,17,-1
 978 154 l 1,18,-1
 978 0 l 1,19,-1
 98 0 l 1,20,21
 98 80 98 80 130 165 c 128,-1,22
 162 250 162 250 199 312 c 128,-1,23
 236 374 236 374 320 465 c 128,-1,24
 404 556 404 556 451 601 c 128,-1,25
 498 646 498 646 604 746 c 0,26,27
 788 920 788 920 788 1096 c 0,28,29
 788 1218 788 1218 720 1285 c 128,-1,30
 652 1352 652 1352 542 1352 c 0,31,32
 428 1352 428 1352 354 1280 c 128,-1,33
 280 1208 280 1208 250 1082 c 1,34,-1
 88 1128 l 1,0,1
EndSplineSet
Substitution2: "'subs' Subscript lookup 6 subtable" uni2082
Substitution2: "'sups' Superscript lookup 5 subtable" twosuperior
Substitution2: "'sinf' Scientific Inferiors lookup 4 subtable" uni2082
AlternateSubs2: "'aalt' Access All Alternates lookup 1 subtable" uni2082 twosuperior
EndChar

StartChar: three
Encoding: 51 51 22
Width: 1100
GlyphClass: 2
Flags: W
LayerCount: 2
Fore
SplineSet
60 268 m 1,0,-1
 214 328 l 1,1,2
 314 120 314 120 526 120 c 0,3,4
 652 120 652 120 738 196 c 128,-1,5
 824 272 824 272 824 412 c 0,6,7
 824 544 824 544 730 620 c 128,-1,8
 636 696 636 696 496 696 c 0,9,10
 442 696 442 696 374 690 c 1,11,-1
 374 844 l 1,12,13
 418 840 418 840 490 840 c 0,14,15
 608 840 608 840 687 910 c 128,-1,16
 766 980 766 980 766 1104 c 0,17,18
 766 1212 766 1212 697 1282 c 128,-1,19
 628 1352 628 1352 518 1352 c 0,20,21
 338 1352 338 1352 252 1132 c 1,22,-1
 98 1182 l 1,23,24
 142 1326 142 1326 251 1415 c 128,-1,25
 360 1504 360 1504 528 1504 c 0,26,27
 726 1504 726 1504 843 1395 c 128,-1,28
 960 1286 960 1286 960 1122 c 0,29,30
 960 998 960 998 894 908 c 128,-1,31
 828 818 828 818 736 778 c 1,32,33
 848 746 848 746 932 653 c 128,-1,34
 1016 560 1016 560 1016 412 c 0,35,36
 1016 200 1016 200 883 83 c 128,-1,37
 750 -34 750 -34 528 -34 c 0,38,39
 354 -34 354 -34 231 53 c 128,-1,40
 108 140 108 140 60 268 c 1,0,-1
EndSplineSet
Substitution2: "'subs' Subscript lookup 6 subtable" uni2083
Substitution2: "'sups' Superscript lookup 5 subtable" threesuperior
Substitution2: "'sinf' Scientific Inferiors lookup 4 subtable" uni2083
AlternateSubs2: "'aalt' Access All Alternates lookup 1 subtable" uni2083 threesuperior
EndChar

StartChar: four
Encoding: 52 52 23
Width: 1100
GlyphClass: 2
Flags: W
LayerCount: 2
Fore
SplineSet
218 478 m 1,0,-1
 682 478 l 1,1,-1
 682 968 l 2,2,3
 682 1084 682 1084 690 1190 c 1,4,-1
 682 1190 l 1,5,-1
 560 994 l 1,6,-1
 218 478 l 1,0,-1
36 474 m 1,7,-1
 702 1470 l 1,8,-1
 868 1470 l 1,9,-1
 868 478 l 1,10,-1
 1070 478 l 1,11,-1
 1070 324 l 1,12,-1
 868 324 l 1,13,-1
 868 0 l 1,14,-1
 682 0 l 1,15,-1
 682 324 l 1,16,-1
 36 324 l 1,17,-1
 36 474 l 1,7,-1
EndSplineSet
Substitution2: "'subs' Subscript lookup 6 subtable" uni2084
Substitution2: "'sups' Superscript lookup 5 subtable" uni2074
Substitution2: "'sinf' Scientific Inferiors lookup 4 subtable" uni2084
AlternateSubs2: "'aalt' Access All Alternates lookup 1 subtable" uni2084 uni2074
EndChar

StartChar: five
Encoding: 53 53 24
Width: 1100
GlyphClass: 2
Flags: W
LayerCount: 2
Fore
SplineSet
78 250 m 1,0,-1
 234 306 l 1,1,2
 276 222 276 222 349 171 c 128,-1,3
 422 120 422 120 512 120 c 0,4,5
 648 120 648 120 726 210 c 128,-1,6
 804 300 804 300 804 446 c 256,7,8
 804 592 804 592 721 683 c 128,-1,9
 638 774 638 774 506 774 c 0,10,11
 352 774 352 774 238 644 c 1,12,-1
 124 688 l 1,13,-1
 200 1470 l 1,14,-1
 910 1470 l 1,15,-1
 910 1316 l 1,16,-1
 372 1316 l 1,17,-1
 322 852 l 1,18,19
 430 926 430 926 572 926 c 0,20,21
 758 926 758 926 877 797 c 128,-1,22
 996 668 996 668 996 450 c 0,23,24
 996 250 996 250 875 108 c 128,-1,25
 754 -34 754 -34 516 -34 c 0,26,27
 358 -34 358 -34 247 44 c 128,-1,28
 136 122 136 122 78 250 c 1,0,-1
EndSplineSet
EndChar

StartChar: six
Encoding: 54 54 25
Width: 1100
GlyphClass: 2
Flags: W
LayerCount: 2
Fore
SplineSet
284 460 m 0,0,1
 284 310 284 310 362 215 c 128,-1,2
 440 120 440 120 564 120 c 0,3,4
 684 120 684 120 761 213 c 128,-1,5
 838 306 838 306 838 460 c 0,6,7
 838 618 838 618 760 712 c 128,-1,8
 682 806 682 806 560 806 c 0,9,10
 442 806 442 806 363 707 c 128,-1,11
 284 608 284 608 284 460 c 0,0,1
86 658 m 0,12,13
 86 822 86 822 115 968 c 128,-1,14
 144 1114 144 1114 204 1237 c 128,-1,15
 264 1360 264 1360 369 1432 c 128,-1,16
 474 1504 474 1504 612 1504 c 0,17,18
 882 1504 882 1504 1014 1228 c 1,19,-1
 864 1176 l 1,20,21
 764 1352 764 1352 612 1352 c 0,22,23
 364 1352 364 1352 298 934 c 0,24,25
 280 828 280 828 276 760 c 1,26,27
 314 848 314 848 396 904 c 128,-1,28
 478 960 478 960 588 960 c 0,29,30
 782 960 782 960 904 818 c 128,-1,31
 1026 676 1026 676 1026 462 c 256,32,33
 1026 248 1026 248 905 107 c 128,-1,34
 784 -34 784 -34 572 -34 c 0,35,36
 348 -34 348 -34 224 122 c 0,37,38
 86 286 86 286 86 658 c 0,12,13
EndSplineSet
EndChar

StartChar: seven
Encoding: 55 55 26
Width: 1100
GlyphClass: 2
Flags: W
LayerCount: 2
Fore
SplineSet
74 1310 m 1,0,-1
 74 1470 l 5,1,-1
 992 1470 l 1,2,-1
 992 1342 l 1,3,4
 610 724 610 724 450 0 c 1,5,-1
 258 0 l 1,6,7
 386 632 386 632 774 1310 c 1,8,-1
 74 1310 l 1,0,-1
EndSplineSet
EndChar

StartChar: eight
Encoding: 56 56 27
Width: 1100
GlyphClass: 2
Flags: W
LayerCount: 2
Fore
SplineSet
308 1102 m 0,0,1
 308 990 308 990 377 923 c 128,-1,2
 446 856 446 856 548 856 c 0,3,4
 654 856 654 856 723 925 c 128,-1,5
 792 994 792 994 792 1102 c 256,6,7
 792 1210 792 1210 723 1281 c 128,-1,8
 654 1352 654 1352 548 1352 c 0,9,10
 440 1352 440 1352 374 1279 c 128,-1,11
 308 1206 308 1206 308 1102 c 0,0,1
70 396 m 0,12,13
 70 552 70 552 149 648 c 128,-1,14
 228 744 228 744 342 782 c 1,15,16
 116 886 116 886 116 1112 c 0,17,18
 116 1280 116 1280 238 1392 c 128,-1,19
 360 1504 360 1504 548 1504 c 0,20,21
 734 1504 734 1504 859 1393 c 128,-1,22
 984 1282 984 1282 984 1112 c 0,23,24
 984 986 984 986 919 904 c 128,-1,25
 854 822 854 822 756 782 c 1,26,27
 874 744 874 744 954 646 c 128,-1,28
 1034 548 1034 548 1034 394 c 0,29,30
 1034 206 1034 206 897 86 c 128,-1,31
 760 -34 760 -34 548 -34 c 0,32,33
 346 -34 346 -34 208 82 c 128,-1,34
 70 198 70 198 70 396 c 0,12,13
262 406 m 0,35,36
 262 282 262 282 343 201 c 128,-1,37
 424 120 424 120 548 120 c 0,38,39
 674 120 674 120 757 202 c 128,-1,40
 840 284 840 284 840 406 c 0,41,42
 840 530 840 530 756 617 c 128,-1,43
 672 704 672 704 548 704 c 0,44,45
 428 704 428 704 345 618 c 128,-1,46
 262 532 262 532 262 406 c 0,35,36
EndSplineSet
EndChar

StartChar: nine
Encoding: 57 57 28
Width: 1100
GlyphClass: 2
Flags: W
LayerCount: 2
Fore
SplineSet
258 1012 m 0,0,1
 258 860 258 860 339 765 c 128,-1,2
 420 670 420 670 532 670 c 0,3,4
 648 670 648 670 727 766 c 128,-1,5
 806 862 806 862 806 1010 c 0,6,7
 806 1154 806 1154 729 1253 c 128,-1,8
 652 1352 652 1352 532 1352 c 0,9,10
 414 1352 414 1352 336 1257 c 128,-1,11
 258 1162 258 1162 258 1012 c 0,0,1
76 248 m 1,12,-1
 230 300 l 1,13,14
 270 222 270 222 337 171 c 128,-1,15
 404 120 404 120 490 120 c 0,16,17
 578 120 578 120 643 168 c 128,-1,18
 708 216 708 216 744 301 c 128,-1,19
 780 386 780 386 797 485 c 128,-1,20
 814 584 814 584 816 700 c 1,21,22
 780 626 780 626 700 572 c 128,-1,23
 620 518 620 518 506 518 c 0,24,25
 328 518 328 518 199 651 c 128,-1,26
 70 784 70 784 70 1010 c 0,27,28
 70 1228 70 1228 202 1366 c 128,-1,29
 334 1504 334 1504 532 1504 c 0,30,31
 700 1504 700 1504 817 1395 c 128,-1,32
 934 1286 934 1286 972 1114 c 0,33,34
 1000 994 1000 994 1000 808 c 0,35,36
 1000 412 1000 412 876 189 c 128,-1,37
 752 -34 752 -34 488 -34 c 0,38,39
 340 -34 340 -34 232 51 c 128,-1,40
 124 136 124 136 76 248 c 1,12,-1
EndSplineSet
EndChar

StartChar: colon
Encoding: 58 58 29
Width: 550
GlyphClass: 2
Flags: W
LayerCount: 2
Fore
SplineSet
142 0 m 1,0,-1
 142 252 l 1,1,-1
 412 252 l 1,2,-1
 412 0 l 1,3,-1
 142 0 l 1,0,-1
142 780 m 1,4,-1
 142 1032 l 1,5,-1
 412 1032 l 1,6,-1
 412 780 l 1,7,-1
 142 780 l 1,4,-1
EndSplineSet
EndChar

StartChar: semicolon
Encoding: 59 59 30
Width: 550
GlyphClass: 2
Flags: W
LayerCount: 2
Fore
SplineSet
20 -332 m 1,0,-1
 188 252 l 1,1,-1
 426 252 l 1,2,-1
 168 -332 l 1,3,-1
 20 -332 l 1,0,-1
144 780 m 1,4,-1
 144 1032 l 1,5,-1
 416 1032 l 1,6,-1
 416 780 l 1,7,-1
 144 780 l 1,4,-1
EndSplineSet
EndChar

StartChar: less
Encoding: 60 60 31
Width: 1116
GlyphClass: 2
Flags: W
LayerCount: 2
Fore
SplineSet
96 628 m 1,0,-1
 96 796 l 1,1,-1
 918 1408 l 1,2,-1
 1018 1272 l 1,3,-1
 276 710 l 1,4,-1
 1018 150 l 1,5,-1
 918 14 l 1,6,-1
 96 628 l 1,0,-1
EndSplineSet
EndChar

StartChar: equal
Encoding: 61 61 32
Width: 1116
GlyphClass: 2
Flags: W
LayerCount: 2
Fore
SplineSet
94 448 m 1,0,-1
 94 608 l 1,1,-1
 1020 608 l 1,2,-1
 1020 448 l 1,3,-1
 94 448 l 1,0,-1
94 846 m 1,4,-1
 94 1006 l 1,5,-1
 1020 1006 l 1,6,-1
 1020 846 l 1,7,-1
 94 846 l 1,4,-1
EndSplineSet
Substitution2: "'sups' Superscript lookup 5 subtable" uni207C
Substitution2: "'aalt' Access All Alternates lookup 0 subtable" uni207C
EndChar

StartChar: greater
Encoding: 62 62 33
Width: 1116
GlyphClass: 2
Flags: W
LayerCount: 2
Fore
SplineSet
194 14 m 1,0,-1
 100 150 l 1,1,-1
 840 710 l 1,2,-1
 100 1272 l 1,3,-1
 194 1408 l 1,4,-1
 1022 796 l 1,5,-1
 1022 628 l 1,6,-1
 194 14 l 1,0,-1
EndSplineSet
EndChar

StartChar: question
Encoding: 63 63 34
Width: 1120
GlyphClass: 2
Flags: W
LayerCount: 2
Fore
SplineSet
124 1176 m 1,0,1
 172 1324 172 1324 287 1415 c 128,-1,2
 402 1506 402 1506 562 1506 c 0,3,4
 752 1506 752 1506 866 1396 c 128,-1,5
 980 1286 980 1286 980 1104 c 0,6,7
 980 1014 980 1014 945 942 c 128,-1,8
 910 870 910 870 859 820 c 128,-1,9
 808 770 808 770 757 722 c 128,-1,10
 706 674 706 674 670 607 c 128,-1,11
 634 540 634 540 634 456 c 2,12,-1
 634 400 l 1,13,-1
 446 400 l 1,14,-1
 446 470 l 2,15,16
 446 564 446 564 482 641 c 128,-1,17
 518 718 518 718 568 769 c 128,-1,18
 618 820 618 820 668 868 c 128,-1,19
 718 916 718 916 754 977 c 128,-1,20
 790 1038 790 1038 790 1110 c 0,21,22
 790 1218 790 1218 729 1283 c 128,-1,23
 668 1348 668 1348 564 1348 c 0,24,25
 382 1348 382 1348 288 1120 c 1,26,-1
 124 1176 l 1,0,1
404 -16 m 1,27,-1
 404 230 l 1,28,-1
 676 230 l 1,29,-1
 676 -16 l 1,30,-1
 404 -16 l 1,27,-1
EndSplineSet
EndChar

StartChar: at
Encoding: 64 64 35
Width: 1882
GlyphClass: 2
Flags: W
LayerCount: 2
Fore
SplineSet
110 692 m 0,0,1
 110 1062 110 1062 353 1296 c 128,-1,2
 596 1530 596 1530 982 1530 c 0,3,4
 1332 1530 1332 1530 1552 1324 c 128,-1,5
 1772 1118 1772 1118 1772 796 c 0,6,7
 1772 510 1772 510 1653 371 c 128,-1,8
 1534 232 1534 232 1380 232 c 0,9,10
 1292 232 1292 232 1228 288 c 128,-1,11
 1164 344 1164 344 1156 432 c 1,12,-1
 1154 432 l 1,13,14
 1124 356 1124 356 1044 295 c 128,-1,15
 964 234 964 234 860 234 c 0,16,17
 716 234 716 234 621 341 c 128,-1,18
 526 448 526 448 526 626 c 0,19,20
 526 864 526 864 649 999 c 128,-1,21
 772 1134 772 1134 942 1134 c 0,22,23
 1084 1134 1084 1134 1162 1018 c 1,24,-1
 1170 1118 l 1,25,-1
 1310 1118 l 1,26,-1
 1282 548 l 2,27,28
 1282 538 1282 538 1282 528 c 0,29,30
 1282 454 1282 454 1310 412 c 128,-1,31
 1338 370 1338 370 1392 370 c 0,32,33
 1486 370 1486 370 1549 480 c 128,-1,34
 1612 590 1612 590 1612 784 c 0,35,36
 1612 1056 1612 1056 1441 1225 c 128,-1,37
 1270 1394 1270 1394 980 1394 c 0,38,39
 670 1394 670 1394 471 1198 c 128,-1,40
 272 1002 272 1002 272 692 c 0,41,42
 272 366 272 366 464 178 c 128,-1,43
 656 -10 656 -10 960 -10 c 0,44,45
 1182 -10 1182 -10 1390 50 c 1,46,-1
 1418 -76 l 1,47,48
 1214 -144 1214 -144 960 -144 c 0,49,50
 574 -144 574 -144 342 88 c 128,-1,51
 110 320 110 320 110 692 c 0,0,1
696 628 m 0,52,53
 696 522 696 522 747 451 c 128,-1,54
 798 380 798 380 880 380 c 0,55,56
 974 380 974 380 1054 478 c 128,-1,57
 1134 576 1134 576 1134 798 c 0,58,59
 1134 880 1134 880 1089 939 c 128,-1,60
 1044 998 1044 998 952 998 c 0,61,62
 856 998 856 998 776 897 c 128,-1,63
 696 796 696 796 696 628 c 0,52,53
EndSplineSet
EndChar

StartChar: A
Encoding: 65 65 36
Width: 1288
GlyphClass: 2
Flags: W
LayerCount: 2
Fore
SplineSet
388 552 m 1,0,-1
 902 552 l 1,1,-1
 746 1010 l 2,2,3
 734 1044 734 1044 700 1146 c 128,-1,4
 666 1248 666 1248 652 1294 c 1,5,-1
 640 1294 l 1,6,7
 626 1252 626 1252 592 1152 c 128,-1,8
 558 1052 558 1052 546 1010 c 2,9,-1
 388 552 l 1,0,-1
-8 0 m 1,10,-1
 536 1470 l 1,11,-1
 756 1470 l 1,12,-1
 1296 0 l 1,13,-1
 1094 0 l 1,14,-1
 956 402 l 1,15,-1
 336 402 l 1,16,-1
 194 0 l 1,17,-1
 -8 0 l 1,10,-1
EndSplineSet
Substitution2: "Single Substitution lookup 12 subtable" ordfeminine
EndChar

StartChar: B
Encoding: 66 66 37
Width: 1332
GlyphClass: 2
Flags: W
LayerCount: 2
Fore
SplineSet
190 0 m 1,0,-1
 190 1470 l 1,1,-1
 738 1470 l 2,2,3
 958 1470 958 1470 1071 1367 c 128,-1,4
 1184 1264 1184 1264 1184 1088 c 0,5,6
 1184 974 1184 974 1128 894 c 128,-1,7
 1072 814 1072 814 982 772 c 1,8,9
 1088 740 1088 740 1163 645 c 128,-1,10
 1238 550 1238 550 1238 416 c 0,11,12
 1238 242 1238 242 1125 121 c 128,-1,13
 1012 0 1012 0 810 0 c 2,14,-1
 190 0 l 1,0,-1
378 160 m 1,15,-1
 768 160 l 2,16,17
 886 160 886 160 966 227 c 128,-1,18
 1046 294 1046 294 1046 414 c 0,19,20
 1046 528 1046 528 969 603 c 128,-1,21
 892 678 892 678 762 678 c 2,22,-1
 378 678 l 1,23,-1
 378 160 l 1,15,-1
378 834 m 1,24,-1
 710 834 l 2,25,26
 832 834 832 834 912 895 c 128,-1,27
 992 956 992 956 992 1076 c 0,28,29
 992 1182 992 1182 927 1246 c 128,-1,30
 862 1310 862 1310 718 1310 c 2,31,-1
 378 1310 l 1,32,-1
 378 834 l 1,24,-1
EndSplineSet
EndChar

StartChar: C
Encoding: 67 67 38
Width: 1308
GlyphClass: 2
Flags: W
LayerCount: 2
Fore
SplineSet
94 734 m 0,0,1
 94 1090 94 1090 270 1297 c 128,-1,2
 446 1504 446 1504 730 1504 c 0,3,4
 908 1504 908 1504 1033 1407 c 128,-1,5
 1158 1310 1158 1310 1220 1172 c 1,6,-1
 1060 1118 l 1,7,8
 930 1344 930 1344 726 1344 c 0,9,10
 524 1344 524 1344 406 1178 c 128,-1,11
 288 1012 288 1012 288 734 c 0,12,13
 288 452 288 452 408 290 c 128,-1,14
 528 128 528 128 726 128 c 0,15,16
 854 128 854 128 949 200 c 128,-1,17
 1044 272 1044 272 1090 378 c 1,18,-1
 1258 324 l 1,19,20
 1230 258 1230 258 1186 200 c 128,-1,21
 1142 142 1142 142 1079 86 c 128,-1,22
 1016 30 1016 30 926 -2 c 128,-1,23
 836 -34 836 -34 730 -34 c 0,24,25
 450 -34 450 -34 272 170 c 128,-1,26
 94 374 94 374 94 734 c 0,0,1
EndSplineSet
EndChar

StartChar: D
Encoding: 68 68 39
Width: 1374
GlyphClass: 2
Flags: W
LayerCount: 2
Fore
SplineSet
190 0 m 1,0,-1
 190 1470 l 1,1,-1
 602 1470 l 2,2,3
 922 1470 922 1470 1104 1281 c 128,-1,4
 1286 1092 1286 1092 1286 734 c 0,5,6
 1286 398 1286 398 1113 199 c 128,-1,7
 940 0 940 0 598 0 c 2,8,-1
 190 0 l 1,0,-1
378 158 m 1,9,-1
 572 158 l 2,10,11
 816 158 816 158 955 296 c 128,-1,12
 1094 434 1094 434 1094 734 c 0,13,14
 1094 1310 1094 1310 576 1310 c 2,15,-1
 378 1310 l 1,16,-1
 378 158 l 1,9,-1
EndSplineSet
EndChar

StartChar: E
Encoding: 69 69 40
Width: 1212
GlyphClass: 2
Flags: W
LayerCount: 2
Fore
SplineSet
190 0 m 1,0,-1
 190 1470 l 1,1,-1
 1126 1470 l 1,2,-1
 1126 1310 l 1,3,-1
 378 1310 l 1,4,-1
 378 838 l 1,5,-1
 1052 838 l 1,6,-1
 1052 682 l 1,7,-1
 378 682 l 1,8,-1
 378 160 l 1,9,-1
 1142 160 l 1,10,-1
 1142 0 l 1,11,-1
 190 0 l 1,0,-1
EndSplineSet
EndChar

StartChar: F
Encoding: 70 70 41
Width: 1124
GlyphClass: 2
Flags: W
LayerCount: 2
Fore
SplineSet
190 0 m 1,0,-1
 190 1470 l 1,1,-1
 1098 1470 l 1,2,-1
 1098 1310 l 1,3,-1
 378 1310 l 1,4,-1
 378 818 l 1,5,-1
 1024 818 l 1,6,-1
 1024 660 l 1,7,-1
 378 660 l 1,8,-1
 378 0 l 1,9,-1
 190 0 l 1,0,-1
EndSplineSet
EndChar

StartChar: G
Encoding: 71 71 42
Width: 1422
GlyphClass: 2
Flags: W
LayerCount: 2
Fore
SplineSet
94 734 m 0,0,1
 94 1074 94 1074 269 1289 c 128,-1,2
 444 1504 444 1504 742 1504 c 0,3,4
 846 1504 846 1504 935 1472 c 128,-1,5
 1024 1440 1024 1440 1085 1387 c 128,-1,6
 1146 1334 1146 1334 1184 1283 c 128,-1,7
 1222 1232 1222 1232 1246 1180 c 1,8,-1
 1086 1126 l 1,9,10
 950 1344 950 1344 742 1344 c 0,11,12
 526 1344 526 1344 407 1177 c 128,-1,13
 288 1010 288 1010 288 734 c 0,14,15
 288 450 288 450 411 289 c 128,-1,16
 534 128 534 128 734 128 c 0,17,18
 914 128 914 128 1012 240 c 128,-1,19
 1110 352 1110 352 1114 512 c 0,20,21
 1114 530 1114 530 1115 577 c 128,-1,22
 1116 624 1116 624 1116 644 c 1,23,-1
 718 644 l 1,24,-1
 718 804 l 1,25,-1
 1296 804 l 1,26,-1
 1296 0 l 1,27,-1
 1164 0 l 1,28,-1
 1148 192 l 1,29,30
 1028 -34 1028 -34 728 -34 c 0,31,32
 448 -34 448 -34 271 173 c 128,-1,33
 94 380 94 380 94 734 c 0,0,1
EndSplineSet
EndChar

StartChar: H
Encoding: 72 72 43
Width: 1432
GlyphClass: 2
Flags: W
LayerCount: 2
Fore
SplineSet
190 0 m 1,0,-1
 190 1470 l 1,1,-1
 378 1470 l 1,2,-1
 378 834 l 1,3,-1
 1056 834 l 1,4,-1
 1056 1470 l 1,5,-1
 1242 1470 l 1,6,-1
 1242 0 l 1,7,-1
 1056 0 l 1,8,-1
 1056 678 l 1,9,-1
 378 678 l 1,10,-1
 378 0 l 1,11,-1
 190 0 l 1,0,-1
EndSplineSet
EndChar

StartChar: I
Encoding: 73 73 44
Width: 566
GlyphClass: 2
Flags: W
LayerCount: 2
Fore
SplineSet
190 0 m 1,0,-1
 190 1470 l 1,1,-1
 378 1470 l 1,2,-1
 378 0 l 1,3,-1
 190 0 l 1,0,-1
EndSplineSet
EndChar

StartChar: J
Encoding: 74 74 45
Width: 1004
GlyphClass: 2
Flags: W
LayerCount: 2
Fore
SplineSet
22 248 m 1,0,-1
 184 312 l 1,1,2
 208 230 208 230 268 179 c 128,-1,3
 328 128 328 128 408 128 c 0,4,5
 626 128 626 128 626 436 c 2,6,-1
 626 1470 l 1,7,-1
 814 1470 l 1,8,-1
 814 408 l 2,9,10
 814 192 814 192 710 79 c 128,-1,11
 606 -34 606 -34 412 -34 c 0,12,13
 254 -34 254 -34 157 46 c 128,-1,14
 60 126 60 126 22 248 c 1,0,-1
EndSplineSet
EndChar

StartChar: K
Encoding: 75 75 46
Width: 1284
GlyphClass: 2
Flags: W
LayerCount: 2
Fore
SplineSet
190 0 m 1,0,-1
 190 1470 l 1,1,-1
 378 1470 l 1,2,-1
 378 732 l 1,3,-1
 382 732 l 1,4,-1
 1016 1470 l 1,5,-1
 1260 1470 l 1,6,-1
 698 832 l 1,7,-1
 1286 0 l 1,8,-1
 1054 0 l 1,9,-1
 578 698 l 1,10,-1
 378 470 l 1,11,-1
 378 0 l 1,12,-1
 190 0 l 1,0,-1
EndSplineSet
EndChar

StartChar: L
Encoding: 76 76 47
Width: 1080
GlyphClass: 2
Flags: W
LayerCount: 2
Fore
SplineSet
190 0 m 1,0,-1
 190 1470 l 1,1,-1
 378 1470 l 1,2,-1
 378 160 l 1,3,-1
 1066 160 l 1,4,-1
 1066 0 l 1,5,-1
 190 0 l 1,0,-1
EndSplineSet
EndChar

StartChar: M
Encoding: 77 77 48
Width: 1736
GlyphClass: 2
Flags: W
LayerCount: 2
Fore
SplineSet
190 0 m 1,0,-1
 190 1470 l 1,1,-1
 428 1470 l 1,2,-1
 728 716 l 2,3,4
 760 636 760 636 808 498 c 128,-1,5
 856 360 856 360 864 342 c 1,6,-1
 870 342 l 1,7,8
 880 370 880 370 1012 716 c 2,9,-1
 1308 1470 l 1,10,-1
 1548 1470 l 1,11,-1
 1548 0 l 1,12,-1
 1362 0 l 1,13,-1
 1362 774 l 2,14,15
 1362 960 1362 960 1384 1222 c 1,16,-1
 1376 1222 l 1,17,-1
 1290 986 l 1,18,-1
 946 100 l 1,19,-1
 794 100 l 1,20,-1
 448 986 l 1,21,-1
 360 1224 l 1,22,-1
 352 1224 l 1,23,24
 378 922 378 922 378 774 c 2,25,-1
 378 0 l 1,26,-1
 190 0 l 1,0,-1
EndSplineSet
EndChar

StartChar: N
Encoding: 78 78 49
Width: 1442
GlyphClass: 2
Flags: W
LayerCount: 2
Fore
SplineSet
190 0 m 1,0,-1
 190 1470 l 1,1,-1
 396 1470 l 1,2,-1
 906 576 l 1,3,-1
 1076 272 l 1,4,-1
 1088 272 l 1,5,6
 1064 450 1064 450 1064 690 c 2,7,-1
 1064 1470 l 1,8,-1
 1250 1470 l 1,9,-1
 1250 0 l 1,10,-1
 1044 0 l 1,11,-1
 364 1196 l 1,12,-1
 356 1196 l 1,13,14
 378 996 378 996 378 778 c 2,15,-1
 378 0 l 1,16,-1
 190 0 l 1,0,-1
EndSplineSet
EndChar

StartChar: O
Encoding: 79 79 50
Width: 1422
GlyphClass: 2
Flags: W
LayerCount: 2
Fore
SplineSet
94 734 m 0,0,1
 94 1080 94 1080 263 1292 c 128,-1,2
 432 1504 432 1504 712 1504 c 0,3,4
 996 1504 996 1504 1163 1292 c 128,-1,5
 1330 1080 1330 1080 1330 732 c 0,6,7
 1330 382 1330 382 1161 174 c 128,-1,8
 992 -34 992 -34 712 -34 c 256,9,10
 432 -34 432 -34 263 175 c 128,-1,11
 94 384 94 384 94 734 c 0,0,1
288 734 m 256,12,13
 288 454 288 454 402 291 c 128,-1,14
 516 128 516 128 712 128 c 256,15,16
 908 128 908 128 1022 288 c 128,-1,17
 1136 448 1136 448 1136 732 c 0,18,19
 1136 1012 1136 1012 1025 1178 c 128,-1,20
 914 1344 914 1344 712 1344 c 0,21,22
 516 1344 516 1344 402 1179 c 128,-1,23
 288 1014 288 1014 288 734 c 256,12,13
EndSplineSet
Substitution2: "Single Substitution lookup 12 subtable" ordmasculine
EndChar

StartChar: P
Encoding: 80 80 51
Width: 1296
GlyphClass: 2
Flags: W
LayerCount: 2
Fore
SplineSet
190 0 m 1,0,-1
 190 1470 l 1,1,-1
 752 1470 l 2,2,3
 972 1470 972 1470 1098 1351 c 128,-1,4
 1224 1232 1224 1232 1224 1032 c 0,5,6
 1224 830 1224 830 1095 713 c 128,-1,7
 966 596 966 596 754 596 c 2,8,-1
 378 596 l 1,9,-1
 378 0 l 1,10,-1
 190 0 l 1,0,-1
378 754 m 1,11,-1
 726 754 l 2,12,13
 870 754 870 754 950 824 c 128,-1,14
 1030 894 1030 894 1030 1032 c 0,15,16
 1030 1168 1030 1168 951 1239 c 128,-1,17
 872 1310 872 1310 722 1310 c 2,18,-1
 378 1310 l 1,19,-1
 378 754 l 1,11,-1
EndSplineSet
EndChar

StartChar: Q
Encoding: 81 81 52
Width: 1422
GlyphClass: 2
Flags: W
LayerCount: 2
Fore
SplineSet
94 732 m 0,0,1
 94 1082 94 1082 264 1293 c 128,-1,2
 434 1504 434 1504 712 1504 c 0,3,4
 994 1504 994 1504 1162 1291 c 128,-1,5
 1330 1078 1330 1078 1330 732 c 0,6,7
 1330 388 1330 388 1164 178 c 0,8,9
 1162 176 1162 176 1162 174 c 2,10,-1
 1330 2 l 1,11,-1
 1214 -100 l 1,12,-1
 1050 68 l 1,13,14
 908 -34 908 -34 712 -34 c 0,15,16
 430 -34 430 -34 262 177 c 128,-1,17
 94 388 94 388 94 732 c 0,0,1
672 452 m 1,18,-1
 788 556 l 1,19,-1
 1032 306 l 1,20,21
 1136 466 1136 466 1136 732 c 0,22,23
 1136 1020 1136 1020 1022 1182 c 128,-1,24
 908 1344 908 1344 712 1344 c 0,25,26
 518 1344 518 1344 403 1180 c 128,-1,27
 288 1016 288 1016 288 732 c 0,28,29
 288 452 288 452 402 290 c 128,-1,30
 516 128 516 128 712 128 c 0,31,32
 836 128 836 128 926 192 c 1,33,-1
 672 452 l 1,18,-1
EndSplineSet
EndChar

StartChar: R
Encoding: 82 82 53
Width: 1330
GlyphClass: 2
Flags: W
LayerCount: 2
Fore
SplineSet
378 778 m 1,0,-1
 744 778 l 2,1,2
 884 778 884 778 959 850 c 128,-1,3
 1034 922 1034 922 1034 1048 c 0,4,5
 1034 1166 1034 1166 955 1238 c 128,-1,6
 876 1310 876 1310 732 1310 c 2,7,-1
 378 1310 l 1,8,-1
 378 778 l 1,0,-1
190 0 m 1,9,-1
 190 1470 l 1,10,-1
 770 1470 l 2,11,12
 990 1470 990 1470 1109 1352 c 128,-1,13
 1228 1234 1228 1234 1228 1062 c 0,14,15
 1228 908 1228 908 1153 811 c 128,-1,16
 1078 714 1078 714 986 688 c 1,17,18
 1064 644 1064 644 1098 584 c 128,-1,19
 1132 524 1132 524 1156 412 c 0,20,21
 1178 322 1178 322 1190 273 c 128,-1,22
 1202 224 1202 224 1232 150 c 128,-1,23
 1262 76 1262 76 1306 0 c 1,24,-1
 1096 0 l 1,25,26
 1018 140 1018 140 960 398 c 0,27,28
 934 504 934 504 887 561 c 128,-1,29
 840 618 840 618 736 618 c 2,30,-1
 378 618 l 1,31,-1
 378 0 l 1,32,-1
 190 0 l 1,9,-1
EndSplineSet
EndChar

StartChar: S
Encoding: 83 83 54
Width: 1218
GlyphClass: 2
Flags: W
LayerCount: 2
Fore
SplineSet
70 288 m 1,0,-1
 238 348 l 1,1,2
 296 246 296 246 397 187 c 128,-1,3
 498 128 498 128 632 128 c 0,4,5
 774 128 774 128 863 197 c 128,-1,6
 952 266 952 266 952 384 c 0,7,8
 952 446 952 446 926 493 c 128,-1,9
 900 540 900 540 844 574 c 128,-1,10
 788 608 788 608 739 630 c 128,-1,11
 690 652 690 652 606 678 c 0,12,13
 378 754 378 754 292 808 c 0,14,15
 120 918 120 918 120 1114 c 0,16,17
 120 1290 120 1290 257 1397 c 128,-1,18
 394 1504 394 1504 620 1504 c 0,19,20
 798 1504 798 1504 927 1422 c 128,-1,21
 1056 1340 1056 1340 1114 1216 c 1,22,-1
 954 1162 l 1,23,24
 836 1344 836 1344 616 1344 c 0,25,26
 476 1344 476 1344 394 1281 c 128,-1,27
 312 1218 312 1218 312 1114 c 0,28,29
 312 1054 312 1054 341 1008 c 128,-1,30
 370 962 370 962 430 928 c 128,-1,31
 490 894 490 894 544 873 c 128,-1,32
 598 852 598 852 686 822 c 0,33,34
 710 814 710 814 722 812 c 0,35,36
 814 780 814 780 879 750 c 128,-1,37
 944 720 944 720 1010 671 c 128,-1,38
 1076 622 1076 622 1110 552 c 128,-1,39
 1144 482 1144 482 1144 390 c 0,40,41
 1144 188 1144 188 1003 77 c 128,-1,42
 862 -34 862 -34 628 -34 c 0,43,44
 428 -34 428 -34 284 53 c 128,-1,45
 140 140 140 140 70 288 c 1,0,-1
EndSplineSet
EndChar

StartChar: T
Encoding: 84 84 55
Width: 1106
GlyphClass: 2
Flags: W
LayerCount: 2
Fore
SplineSet
24 1310 m 1,0,-1
 24 1470 l 1,1,-1
 1088 1470 l 1,2,-1
 1088 1310 l 1,3,-1
 650 1310 l 1,4,-1
 650 0 l 1,5,-1
 462 0 l 1,6,-1
 462 1310 l 1,7,-1
 24 1310 l 1,0,-1
EndSplineSet
EndChar

StartChar: U
Encoding: 85 85 56
Width: 1426
GlyphClass: 2
Flags: W
LayerCount: 2
Fore
SplineSet
184 538 m 2,0,-1
 184 1470 l 1,1,-1
 374 1470 l 1,2,-1
 374 542 l 2,3,4
 374 332 374 332 467 230 c 128,-1,5
 560 128 560 128 712 128 c 0,6,7
 868 128 868 128 961 234 c 128,-1,8
 1054 340 1054 340 1054 542 c 2,9,-1
 1054 1470 l 1,10,-1
 1242 1470 l 1,11,-1
 1242 538 l 2,12,13
 1242 266 1242 266 1107 116 c 128,-1,14
 972 -34 972 -34 712 -34 c 0,15,16
 462 -34 462 -34 323 113 c 128,-1,17
 184 260 184 260 184 538 c 2,0,-1
EndSplineSet
EndChar

StartChar: V
Encoding: 86 86 57
Width: 1188
GlyphClass: 2
Flags: W
LayerCount: 2
Fore
SplineSet
-2 1470 m 1,0,-1
 202 1470 l 1,1,-1
 498 514 l 2,2,3
 512 458 512 458 544 354 c 128,-1,4
 576 250 576 250 592 190 c 1,5,-1
 600 188 l 1,6,7
 616 248 616 248 645 351 c 128,-1,8
 674 454 674 454 692 514 c 2,9,-1
 988 1470 l 1,10,-1
 1194 1470 l 1,11,-1
 708 0 l 1,12,-1
 486 0 l 1,13,-1
 -2 1470 l 1,0,-1
EndSplineSet
EndChar

StartChar: W
Encoding: 87 87 58
Width: 1716
GlyphClass: 2
Flags: W
LayerCount: 2
Fore
SplineSet
24 1470 m 1,0,-1
 226 1470 l 1,1,-1
 412 540 l 2,2,3
 454 290 454 290 468 208 c 1,4,-1
 480 208 l 1,5,6
 486 236 486 236 510 359 c 128,-1,7
 534 482 534 482 546 540 c 2,8,-1
 762 1470 l 1,9,-1
 956 1470 l 1,10,-1
 1176 540 l 2,11,12
 1194 456 1194 456 1240 208 c 1,13,-1
 1248 208 l 1,14,15
 1252 232 1252 232 1306 540 c 1,16,-1
 1496 1470 l 1,17,-1
 1698 1470 l 1,18,-1
 1356 0 l 1,19,-1
 1138 0 l 1,20,-1
 926 918 l 2,21,22
 918 954 918 954 905 1018 c 128,-1,23
 892 1082 892 1082 881 1135 c 128,-1,24
 870 1188 870 1188 864 1236 c 1,25,-1
 856 1236 l 1,26,27
 850 1202 850 1202 792 918 c 2,28,-1
 580 0 l 1,29,-1
 364 0 l 1,30,-1
 24 1470 l 1,0,-1
EndSplineSet
EndChar

StartChar: X
Encoding: 88 88 59
Width: 1182
GlyphClass: 2
Flags: W
LayerCount: 2
Fore
SplineSet
-2 0 m 1,0,-1
 478 756 l 1,1,-1
 24 1470 l 1,2,-1
 250 1470 l 1,3,-1
 454 1128 l 2,4,5
 470 1102 470 1102 496 1056 c 128,-1,6
 522 1010 522 1010 544 971 c 128,-1,7
 566 932 566 932 588 896 c 1,8,-1
 596 896 l 1,9,10
 620 942 620 942 668 1021 c 128,-1,11
 716 1100 716 1100 732 1128 c 2,12,-1
 934 1470 l 1,13,-1
 1164 1470 l 1,14,-1
 706 756 l 1,15,-1
 1186 0 l 1,16,-1
 964 0 l 1,17,-1
 742 360 l 2,18,19
 690 446 690 446 596 608 c 1,20,-1
 588 608 l 1,21,22
 506 466 506 466 444 360 c 2,23,-1
 224 0 l 1,24,-1
 -2 0 l 1,0,-1
EndSplineSet
EndChar

StartChar: Y
Encoding: 89 89 60
Width: 1208
GlyphClass: 2
Flags: W
LayerCount: 2
Fore
SplineSet
-6 1470 m 1,0,-1
 214 1470 l 1,1,-1
 458 1026 l 2,2,3
 538 880 538 880 602 762 c 1,4,-1
 606 762 l 1,5,6
 632 808 632 808 681 899 c 128,-1,7
 730 990 730 990 752 1026 c 2,8,-1
 994 1470 l 1,9,-1
 1214 1470 l 1,10,-1
 700 602 l 1,11,-1
 700 0 l 1,12,-1
 512 0 l 1,13,-1
 512 602 l 1,14,-1
 -6 1470 l 1,0,-1
EndSplineSet
EndChar

StartChar: Z
Encoding: 90 90 61
Width: 1212
GlyphClass: 2
Flags: W
LayerCount: 2
Fore
SplineSet
80 136 m 1,0,-1
 886 1310 l 1,1,-1
 142 1310 l 1,2,-1
 142 1470 l 1,3,-1
 1118 1470 l 1,4,-1
 1118 1330 l 1,5,-1
 308 160 l 1,6,-1
 1136 160 l 1,7,-1
 1136 0 l 1,8,-1
 80 0 l 1,9,-1
 80 136 l 1,0,-1
EndSplineSet
EndChar

StartChar: bracketleft
Encoding: 91 91 62
Width: 888
GlyphClass: 2
Flags: W
LayerCount: 2
Fore
SplineSet
278 -250 m 1,0,-1
 278 1660 l 1,1,-1
 710 1660 l 1,2,-1
 710 1510 l 1,3,-1
 460 1510 l 1,4,-1
 460 -102 l 1,5,-1
 710 -102 l 1,6,-1
 710 -250 l 1,7,-1
 278 -250 l 1,0,-1
EndSplineSet
EndChar

StartChar: backslash
Encoding: 92 92 63
Width: 668
GlyphClass: 2
Flags: W
LayerCount: 2
Fore
SplineSet
-26 1562 m 1,0,-1
 160 1562 l 1,1,-1
 700 -110 l 1,2,-1
 512 -110 l 1,3,-1
 -26 1562 l 1,0,-1
EndSplineSet
EndChar

StartChar: bracketright
Encoding: 93 93 64
Width: 888
GlyphClass: 2
Flags: W
LayerCount: 2
Fore
SplineSet
178 -102 m 1,0,-1
 430 -102 l 1,1,-1
 430 1510 l 1,2,-1
 178 1510 l 1,3,-1
 178 1660 l 1,4,-1
 610 1660 l 1,5,-1
 610 -250 l 1,6,-1
 178 -250 l 1,7,-1
 178 -102 l 1,0,-1
EndSplineSet
EndChar

StartChar: asciicircum
Encoding: 94 94 65
Width: 1018
GlyphClass: 2
Flags: W
LayerCount: 2
Fore
SplineSet
26 942 m 1,0,-1
 422 1616 l 1,1,-1
 596 1616 l 1,2,-1
 990 942 l 1,3,-1
 802 942 l 1,4,-1
 510 1472 l 1,5,-1
 216 942 l 1,6,-1
 26 942 l 1,0,-1
EndSplineSet
EndChar

StartChar: underscore
Encoding: 95 95 66
Width: 924
GlyphClass: 2
Flags: W
LayerCount: 2
Fore
SplineSet
12 -26 m 1,0,-1
 918 -26 l 1,1,-1
 918 -176 l 1,2,-1
 12 -176 l 1,3,-1
 12 -26 l 1,0,-1
EndSplineSet
EndChar

StartChar: grave
Encoding: 96 96 67
Width: 632
GlyphClass: 2
Flags: W
LayerCount: 2
Fore
SplineSet
330 1060 m 1,0,-1
 74 1644 l 1,1,-1
 308 1644 l 1,2,-1
 476 1060 l 1,3,-1
 330 1060 l 1,0,-1
EndSplineSet
EndChar

StartChar: a
Encoding: 97 97 68
Width: 1100
GlyphClass: 2
Flags: W
LayerCount: 2
Fore
SplineSet
258 282 m 0,0,1
 258 212 258 212 316 164 c 128,-1,2
 374 116 374 116 472 116 c 0,3,4
 604 116 604 116 695 201 c 128,-1,5
 786 286 786 286 786 418 c 2,6,-1
 786 550 l 1,7,8
 708 530 708 530 536 502 c 0,9,10
 258 456 258 456 258 282 c 0,0,1
78 266 m 0,11,12
 78 564 78 564 530 634 c 0,13,14
 726 664 726 664 786 684 c 1,15,-1
 786 744 l 2,16,17
 786 836 786 836 721 894 c 128,-1,18
 656 952 656 952 540 952 c 0,19,20
 446 952 446 952 361 909 c 128,-1,21
 276 866 276 866 218 794 c 1,22,-1
 104 890 l 1,23,24
 184 984 184 984 297 1040 c 128,-1,25
 410 1096 410 1096 536 1096 c 0,26,27
 966 1096 966 1096 966 672 c 2,28,-1
 966 0 l 1,29,-1
 792 0 l 1,30,-1
 792 160 l 1,31,32
 760 80 760 80 667 23 c 128,-1,33
 574 -34 574 -34 448 -34 c 0,34,35
 274 -34 274 -34 176 49 c 128,-1,36
 78 132 78 132 78 266 c 0,11,12
EndSplineSet
Substitution2: "Single Substitution lookup 12 subtable" ordfeminine
EndChar

StartChar: b
Encoding: 98 98 69
Width: 1170
GlyphClass: 2
Flags: W
LayerCount: 2
Fore
SplineSet
158 0 m 1,0,-1
 158 1522 l 1,1,-1
 338 1522 l 1,2,-1
 338 896 l 1,3,4
 370 972 370 972 452 1034 c 128,-1,5
 534 1096 534 1096 644 1096 c 0,6,7
 840 1096 840 1096 965 945 c 128,-1,8
 1090 794 1090 794 1090 532 c 0,9,10
 1090 386 1090 386 1050 272 c 128,-1,11
 1010 158 1010 158 942 93 c 128,-1,12
 874 28 874 28 799 -3 c 128,-1,13
 724 -34 724 -34 644 -34 c 0,14,15
 538 -34 538 -34 455 26 c 128,-1,16
 372 86 372 86 336 172 c 1,17,-1
 336 0 l 1,18,-1
 158 0 l 1,0,-1
334 532 m 0,19,20
 334 342 334 342 416 230 c 128,-1,21
 498 118 498 118 618 118 c 0,22,23
 744 118 744 118 825 227 c 128,-1,24
 906 336 906 336 906 532 c 0,25,26
 906 720 906 720 827 832 c 128,-1,27
 748 944 748 944 618 944 c 0,28,29
 498 944 498 944 416 831 c 128,-1,30
 334 718 334 718 334 532 c 0,19,20
EndSplineSet
EndChar

StartChar: c
Encoding: 99 99 70
Width: 1016
GlyphClass: 2
Flags: W
LayerCount: 2
Fore
SplineSet
78 530 m 0,0,1
 78 784 78 784 210 940 c 128,-1,2
 342 1096 342 1096 558 1096 c 0,3,4
 708 1096 708 1096 811 1009 c 128,-1,5
 914 922 914 922 946 808 c 1,6,-1
 792 762 l 1,7,8
 764 838 764 838 703 891 c 128,-1,9
 642 944 642 944 560 944 c 0,10,11
 424 944 424 944 344 826 c 128,-1,12
 264 708 264 708 264 530 c 0,13,14
 264 340 264 340 348 229 c 128,-1,15
 432 118 432 118 560 118 c 0,16,17
 650 118 650 118 720 177 c 128,-1,18
 790 236 790 236 818 312 c 1,19,-1
 972 266 l 1,20,21
 934 144 934 144 821 55 c 128,-1,22
 708 -34 708 -34 558 -34 c 0,23,24
 344 -34 344 -34 211 119 c 128,-1,25
 78 272 78 272 78 530 c 0,0,1
EndSplineSet
EndChar

StartChar: d
Encoding: 100 100 71
Width: 1170
GlyphClass: 2
Flags: W
LayerCount: 2
Fore
SplineSet
78 532 m 0,0,1
 78 794 78 794 206 945 c 128,-1,2
 334 1096 334 1096 528 1096 c 0,3,4
 636 1096 636 1096 717 1036 c 128,-1,5
 798 976 798 976 832 900 c 1,6,-1
 832 1522 l 1,7,-1
 1012 1522 l 1,8,-1
 1012 0 l 1,9,-1
 838 0 l 1,10,-1
 838 174 l 1,11,12
 800 84 800 84 717 25 c 128,-1,13
 634 -34 634 -34 528 -34 c 0,14,15
 446 -34 446 -34 369 -3 c 128,-1,16
 292 28 292 28 226 93 c 128,-1,17
 160 158 160 158 119 272 c 128,-1,18
 78 386 78 386 78 532 c 0,0,1
264 532 m 0,19,20
 264 342 264 342 343 230 c 128,-1,21
 422 118 422 118 552 118 c 0,22,23
 670 118 670 118 753 230 c 128,-1,24
 836 342 836 342 836 532 c 0,25,26
 836 718 836 718 754 831 c 128,-1,27
 672 944 672 944 552 944 c 0,28,29
 420 944 420 944 342 830 c 128,-1,30
 264 716 264 716 264 532 c 0,19,20
EndSplineSet
EndChar

StartChar: e
Encoding: 101 101 72
Width: 1112
GlyphClass: 2
Flags: W
LayerCount: 2
Fore
SplineSet
78 538 m 0,0,1
 78 788 78 788 215 942 c 128,-1,2
 352 1096 352 1096 566 1096 c 256,3,4
 780 1096 780 1096 908 944 c 128,-1,5
 1036 792 1036 792 1036 554 c 0,6,7
 1036 524 1036 524 1032 470 c 1,8,-1
 262 470 l 1,9,10
 262 324 262 324 346 219 c 128,-1,11
 430 114 430 114 576 114 c 0,12,13
 772 114 772 114 864 284 c 1,14,-1
 1016 236 l 1,15,16
 966 118 966 118 853 42 c 128,-1,17
 740 -34 740 -34 574 -34 c 0,18,19
 352 -34 352 -34 215 123 c 128,-1,20
 78 280 78 280 78 538 c 0,0,1
266 604 m 1,21,-1
 854 604 l 1,22,23
 854 748 854 748 777 848 c 128,-1,24
 700 948 700 948 566 948 c 256,25,26
 432 948 432 948 351 845 c 128,-1,27
 270 742 270 742 266 604 c 1,21,-1
EndSplineSet
EndChar

StartChar: f
Encoding: 102 102 73
Width: 678
GlyphClass: 2
Flags: W
LayerCount: 2
Fore
SplineSet
46 910 m 1,0,-1
 46 1062 l 1,1,-1
 222 1062 l 1,2,-1
 222 1208 l 2,3,4
 222 1368 222 1368 302 1445 c 128,-1,5
 382 1522 382 1522 522 1522 c 2,6,-1
 670 1522 l 1,7,-1
 670 1372 l 1,8,-1
 548 1372 l 2,9,10
 402 1372 402 1372 402 1192 c 2,11,-1
 402 1062 l 1,12,-1
 646 1062 l 1,13,-1
 646 910 l 1,14,-1
 402 910 l 1,15,-1
 402 0 l 1,16,-1
 222 0 l 1,17,-1
 222 910 l 1,18,-1
 46 910 l 1,0,-1
EndSplineSet
EndChar

StartChar: g
Encoding: 103 103 74
Width: 1140
GlyphClass: 2
Flags: W
LayerCount: 2
Fore
SplineSet
264 552 m 0,0,1
 264 372 264 372 341 265 c 128,-1,2
 418 158 418 158 542 158 c 0,3,4
 664 158 664 158 739 262 c 128,-1,5
 814 366 814 366 814 552 c 0,6,7
 814 736 814 736 738 840 c 128,-1,8
 662 944 662 944 544 944 c 0,9,10
 416 944 416 944 340 834 c 128,-1,11
 264 724 264 724 264 552 c 0,0,1
80 550 m 0,12,13
 80 796 80 796 204 946 c 128,-1,14
 328 1096 328 1096 520 1096 c 0,15,16
 634 1096 634 1096 708 1037 c 128,-1,17
 782 978 782 978 814 906 c 1,18,-1
 814 1062 l 1,19,-1
 992 1062 l 1,20,-1
 992 132 l 2,21,22
 992 -168 992 -168 881 -314 c 128,-1,23
 770 -460 770 -460 534 -460 c 0,24,25
 274 -460 274 -460 132 -264 c 1,26,-1
 254 -182 l 1,27,28
 372 -314 372 -314 538 -314 c 0,29,30
 664 -314 664 -314 738 -216 c 128,-1,31
 812 -118 812 -118 814 44 c 0,32,33
 814 72 814 72 814 120 c 128,-1,34
 814 168 814 168 814 186 c 1,35,36
 776 108 776 108 701 57 c 128,-1,37
 626 6 626 6 526 6 c 0,38,39
 326 6 326 6 203 157 c 128,-1,40
 80 308 80 308 80 550 c 0,12,13
EndSplineSet
EndChar

StartChar: h
Encoding: 104 104 75
Width: 1132
GlyphClass: 2
Flags: W
LayerCount: 2
Fore
SplineSet
158 0 m 1,0,-1
 158 1522 l 1,1,-1
 338 1522 l 1,2,-1
 338 912 l 1,3,-1
 342 912 l 1,4,5
 382 988 382 988 466 1042 c 128,-1,6
 550 1096 550 1096 650 1096 c 0,7,8
 808 1096 808 1096 903 1000 c 128,-1,9
 998 904 998 904 998 686 c 2,10,-1
 998 0 l 1,11,-1
 818 0 l 1,12,-1
 818 658 l 2,13,14
 818 944 818 944 616 944 c 0,15,16
 502 944 502 944 420 849 c 128,-1,17
 338 754 338 754 338 622 c 2,18,-1
 338 0 l 1,19,-1
 158 0 l 1,0,-1
EndSplineSet
Substitution2: "'sups' Superscript lookup 5 subtable" uni02B0
Substitution2: "'aalt' Access All Alternates lookup 0 subtable" uni02B0
EndChar

StartChar: i
Encoding: 105 105 76
Width: 538
GlyphClass: 2
Flags: W
LayerCount: 2
Fore
SplineSet
162 1272 m 1,0,-1
 162 1492 l 1,1,-1
 376 1492 l 1,2,-1
 376 1272 l 1,3,-1
 162 1272 l 1,0,-1
182 0 m 1,4,-1
 182 1062 l 1,5,-1
 358 1062 l 1,6,-1
 358 0 l 1,7,-1
 182 0 l 1,4,-1
EndSplineSet
EndChar

StartChar: j
Encoding: 106 106 77
Width: 548
GlyphClass: 2
Flags: W
LayerCount: 2
Fore
SplineSet
170 1272 m 1,0,-1
 170 1492 l 1,1,-1
 388 1492 l 1,2,-1
 388 1272 l 1,3,-1
 170 1272 l 1,0,-1
-22 -286 m 1,4,-1
 24 -286 l 2,5,6
 188 -286 188 -286 188 -54 c 2,7,-1
 188 1062 l 1,8,-1
 368 1062 l 1,9,-1
 368 -64 l 2,10,11
 368 -248 368 -248 286 -344 c 128,-1,12
 204 -440 204 -440 52 -440 c 2,13,-1
 -22 -440 l 1,14,-1
 -22 -286 l 1,4,-1
EndSplineSet
Substitution2: "'sups' Superscript lookup 5 subtable" uni02B2
Substitution2: "'aalt' Access All Alternates lookup 0 subtable" uni02B2
EndChar

StartChar: k
Encoding: 107 107 78
Width: 1028
GlyphClass: 2
Flags: W
LayerCount: 2
Fore
SplineSet
162 0 m 1,0,-1
 162 1522 l 1,1,-1
 342 1522 l 1,2,-1
 342 566 l 1,3,-1
 774 1062 l 1,4,-1
 1008 1062 l 1,5,-1
 624 634 l 1,6,-1
 1044 0 l 1,7,-1
 828 0 l 1,8,-1
 508 508 l 1,9,-1
 342 324 l 1,10,-1
 342 0 l 1,11,-1
 162 0 l 1,0,-1
EndSplineSet
EndChar

StartChar: l
Encoding: 108 108 79
Width: 516
GlyphClass: 2
Flags: W
LayerCount: 2
Fore
SplineSet
170 0 m 1,0,-1
 170 1522 l 1,1,-1
 348 1522 l 1,2,-1
 348 0 l 1,3,-1
 170 0 l 1,0,-1
EndSplineSet
Substitution2: "'sups' Superscript lookup 5 subtable" uni02E1
Substitution2: "'aalt' Access All Alternates lookup 0 subtable" uni02E1
EndChar

StartChar: m
Encoding: 109 109 80
Width: 1664
GlyphClass: 2
Flags: W
LayerCount: 2
Fore
SplineSet
146 0 m 1,0,-1
 146 1062 l 1,1,-1
 324 1062 l 1,2,-1
 324 916 l 1,3,4
 352 980 352 980 427 1038 c 128,-1,5
 502 1096 502 1096 614 1096 c 0,6,7
 802 1096 802 1096 880 876 c 1,8,9
 892 904 892 904 913 934 c 128,-1,10
 934 964 934 964 973 1004 c 128,-1,11
 1012 1044 1012 1044 1076 1070 c 128,-1,12
 1140 1096 1140 1096 1216 1096 c 0,13,14
 1530 1096 1530 1096 1530 686 c 2,15,-1
 1530 0 l 1,16,-1
 1348 0 l 1,17,-1
 1348 674 l 2,18,19
 1348 808 1348 808 1312 876 c 128,-1,20
 1276 944 1276 944 1176 944 c 0,21,22
 1070 944 1070 944 998 854 c 128,-1,23
 926 764 926 764 926 630 c 2,24,-1
 926 0 l 1,25,-1
 750 0 l 1,26,-1
 750 678 l 2,27,28
 750 944 750 944 574 944 c 0,29,30
 460 944 460 944 395 859 c 128,-1,31
 330 774 330 774 330 638 c 2,32,-1
 330 0 l 1,33,-1
 146 0 l 1,0,-1
EndSplineSet
EndChar

StartChar: n
Encoding: 110 110 81
Width: 1124
GlyphClass: 2
Flags: W
LayerCount: 2
Fore
SplineSet
146 0 m 1,0,-1
 146 1062 l 1,1,-1
 324 1062 l 1,2,-1
 324 896 l 1,3,-1
 326 896 l 1,4,5
 350 968 350 968 436 1032 c 128,-1,6
 522 1096 522 1096 648 1096 c 0,7,8
 800 1096 800 1096 895 1002 c 128,-1,9
 990 908 990 908 990 686 c 2,10,-1
 990 0 l 1,11,-1
 808 0 l 1,12,-1
 808 656 l 2,13,14
 808 944 808 944 606 944 c 0,15,16
 494 944 494 944 412 851 c 128,-1,17
 330 758 330 758 330 626 c 2,18,-1
 330 0 l 1,19,-1
 146 0 l 1,0,-1
EndSplineSet
Substitution2: "'sups' Superscript lookup 5 subtable" uni207F
Substitution2: "'aalt' Access All Alternates lookup 0 subtable" uni207F
EndChar

StartChar: o
Encoding: 111 111 82
Width: 1122
GlyphClass: 2
Flags: W
LayerCount: 2
Fore
SplineSet
264 530 m 0,0,1
 264 336 264 336 351 227 c 128,-1,2
 438 118 438 118 562 118 c 256,3,4
 686 118 686 118 773 227 c 128,-1,5
 860 336 860 336 860 530 c 0,6,7
 860 728 860 728 773 836 c 128,-1,8
 686 944 686 944 562 944 c 0,9,10
 440 944 440 944 352 837 c 128,-1,11
 264 730 264 730 264 530 c 0,0,1
78 530 m 0,12,13
 78 770 78 770 204 933 c 128,-1,14
 330 1096 330 1096 562 1096 c 0,15,16
 792 1096 792 1096 918 933 c 128,-1,17
 1044 770 1044 770 1044 530 c 0,18,19
 1044 430 1044 430 1018 335 c 128,-1,20
 992 240 992 240 939 155 c 128,-1,21
 886 70 886 70 788 18 c 128,-1,22
 690 -34 690 -34 562 -34 c 0,23,24
 436 -34 436 -34 338 17 c 128,-1,25
 240 68 240 68 186 152 c 128,-1,26
 132 236 132 236 105 332 c 128,-1,27
 78 428 78 428 78 530 c 0,12,13
EndSplineSet
Substitution2: "Single Substitution lookup 12 subtable" ordmasculine
EndChar

StartChar: p
Encoding: 112 112 83
Width: 1170
GlyphClass: 2
Flags: W
LayerCount: 2
Fore
SplineSet
338 532 m 0,0,1
 338 344 338 344 412 231 c 128,-1,2
 486 118 486 118 618 118 c 0,3,4
 744 118 744 118 826 229 c 128,-1,5
 908 340 908 340 908 532 c 0,6,7
 908 714 908 714 830 829 c 128,-1,8
 752 944 752 944 618 944 c 0,9,10
 492 944 492 944 415 828 c 128,-1,11
 338 712 338 712 338 532 c 0,0,1
158 -452 m 1,12,-1
 158 1062 l 1,13,-1
 332 1062 l 1,14,-1
 332 888 l 1,15,16
 376 980 376 980 458 1038 c 128,-1,17
 540 1096 540 1096 644 1096 c 0,18,19
 838 1096 838 1096 964 943 c 128,-1,20
 1090 790 1090 790 1090 532 c 0,21,22
 1090 254 1090 254 956 110 c 128,-1,23
 822 -34 822 -34 644 -34 c 0,24,25
 530 -34 530 -34 451 22 c 128,-1,26
 372 78 372 78 338 162 c 1,27,-1
 338 -452 l 1,28,-1
 158 -452 l 1,12,-1
EndSplineSet
EndChar

StartChar: q
Encoding: 113 113 84
Width: 1166
GlyphClass: 2
Flags: W
LayerCount: 2
Fore
SplineSet
264 532 m 0,0,1
 264 340 264 340 345 229 c 128,-1,2
 426 118 426 118 552 118 c 0,3,4
 680 118 680 118 757 230 c 128,-1,5
 834 342 834 342 834 532 c 0,6,7
 834 712 834 712 756 828 c 128,-1,8
 678 944 678 944 552 944 c 0,9,10
 414 944 414 944 339 828 c 128,-1,11
 264 712 264 712 264 532 c 0,0,1
78 532 m 0,12,13
 78 790 78 790 205 943 c 128,-1,14
 332 1096 332 1096 528 1096 c 0,15,16
 630 1096 630 1096 711 1039 c 128,-1,17
 792 982 792 982 838 888 c 1,18,-1
 838 1062 l 1,19,-1
 1012 1062 l 1,20,-1
 1012 -452 l 1,21,-1
 832 -452 l 1,22,-1
 832 164 l 1,23,24
 794 78 794 78 715 22 c 128,-1,25
 636 -34 636 -34 528 -34 c 0,26,27
 346 -34 346 -34 212 110 c 128,-1,28
 78 254 78 254 78 532 c 0,12,13
EndSplineSet
EndChar

StartChar: r
Encoding: 114 114 85
Width: 740
GlyphClass: 2
Flags: W
LayerCount: 2
Fore
SplineSet
146 0 m 1,0,-1
 146 1062 l 1,1,-1
 320 1062 l 1,2,-1
 320 920 l 1,3,4
 350 988 350 988 422 1042 c 128,-1,5
 494 1096 494 1096 600 1096 c 0,6,7
 680 1096 680 1096 746 1070 c 1,8,-1
 746 906 l 1,9,10
 676 932 676 932 600 932 c 0,11,12
 470 932 470 932 400 834 c 128,-1,13
 330 736 330 736 330 574 c 2,14,-1
 330 0 l 1,15,-1
 146 0 l 1,0,-1
EndSplineSet
Substitution2: "'sups' Superscript lookup 5 subtable" uni02B3
Substitution2: "'aalt' Access All Alternates lookup 0 subtable" uni02B3
EndChar

StartChar: s
Encoding: 115 115 86
Width: 986
GlyphClass: 2
Flags: W
LayerCount: 2
Fore
SplineSet
64 214 m 1,0,-1
 196 290 l 1,1,2
 310 116 310 116 500 116 c 0,3,4
 608 116 608 116 674 156 c 128,-1,5
 740 196 740 196 740 270 c 0,6,7
 740 296 740 296 731 319 c 128,-1,8
 722 342 722 342 696 363 c 128,-1,9
 670 384 670 384 652 396 c 128,-1,10
 634 408 634 408 585 426 c 128,-1,11
 536 444 536 444 512 451 c 128,-1,12
 488 458 488 458 422 480 c 0,13,14
 352 500 352 500 305 523 c 128,-1,15
 258 546 258 546 205 581 c 128,-1,16
 152 616 152 616 125 670 c 128,-1,17
 98 724 98 724 98 794 c 0,18,19
 98 928 98 928 209 1012 c 128,-1,20
 320 1096 320 1096 500 1096 c 0,21,22
 632 1096 632 1096 744 1028 c 128,-1,23
 856 960 856 960 906 862 c 1,24,-1
 784 784 l 1,25,26
 740 852 740 852 667 899 c 128,-1,27
 594 946 594 946 502 946 c 0,28,29
 394 946 394 946 338 905 c 128,-1,30
 282 864 282 864 282 792 c 0,31,32
 282 750 282 750 304 716 c 128,-1,33
 326 682 326 682 376 656 c 128,-1,34
 426 630 426 630 462 617 c 128,-1,35
 498 604 498 604 566 582 c 0,36,37
 638 560 638 560 691 537 c 128,-1,38
 744 514 744 514 802 478 c 128,-1,39
 860 442 860 442 891 388 c 128,-1,40
 922 334 922 334 922 268 c 0,41,42
 922 140 922 140 811 53 c 128,-1,43
 700 -34 700 -34 502 -34 c 0,44,45
 356 -34 356 -34 243 31 c 128,-1,46
 130 96 130 96 64 214 c 1,0,-1
EndSplineSet
Substitution2: "'hist' Historical Forms lookup 11 subtable" longs
Substitution2: "'sups' Superscript lookup 5 subtable" uni02E2
AlternateSubs2: "'aalt' Access All Alternates lookup 1 subtable" uni02E2 longs
EndChar

StartChar: t
Encoding: 116 116 87
Width: 722
GlyphClass: 2
Flags: W
LayerCount: 2
Fore
SplineSet
36 910 m 1,0,-1
 36 1062 l 1,1,-1
 216 1062 l 1,2,-1
 216 1392 l 1,3,-1
 396 1392 l 1,4,-1
 396 1062 l 1,5,-1
 662 1062 l 1,6,-1
 662 910 l 1,7,-1
 396 910 l 1,8,-1
 396 322 l 2,9,10
 396 232 396 232 431 193 c 128,-1,11
 466 154 466 154 542 154 c 2,12,-1
 664 154 l 1,13,-1
 664 0 l 1,14,-1
 518 0 l 2,15,16
 216 0 216 0 216 306 c 2,17,-1
 216 910 l 1,18,-1
 36 910 l 1,0,-1
EndSplineSet
EndChar

StartChar: u
Encoding: 117 117 88
Width: 1118
GlyphClass: 2
Flags: W
LayerCount: 2
Fore
SplineSet
134 378 m 2,0,-1
 134 1062 l 1,1,-1
 316 1062 l 1,2,-1
 316 408 l 2,3,4
 316 118 316 118 526 118 c 0,5,6
 654 118 654 118 723 220 c 128,-1,7
 792 322 792 322 792 460 c 2,8,-1
 792 1062 l 1,9,-1
 972 1062 l 1,10,-1
 972 0 l 1,11,-1
 798 0 l 1,12,-1
 798 154 l 1,13,-1
 796 154 l 1,14,15
 774 90 774 90 697 28 c 128,-1,16
 620 -34 620 -34 486 -34 c 0,17,18
 336 -34 336 -34 235 67 c 128,-1,19
 134 168 134 168 134 378 c 2,0,-1
EndSplineSet
EndChar

StartChar: v
Encoding: 118 118 89
Width: 1010
GlyphClass: 2
Flags: W
LayerCount: 2
Fore
SplineSet
16 1062 m 1,0,-1
 216 1062 l 1,1,-1
 420 440 l 2,2,3
 440 380 440 380 470 272 c 128,-1,4
 500 164 500 164 502 154 c 1,5,-1
 506 154 l 1,6,7
 520 204 520 204 552 306 c 128,-1,8
 584 408 584 408 594 440 c 2,9,-1
 796 1062 l 1,10,-1
 994 1062 l 1,11,-1
 612 0 l 1,12,-1
 398 0 l 1,13,-1
 16 1062 l 1,0,-1
EndSplineSet
EndChar

StartChar: w
Encoding: 119 119 90
Width: 1446
GlyphClass: 2
Flags: W
LayerCount: 2
Fore
SplineSet
16 1062 m 1,0,-1
 214 1062 l 1,1,-1
 354 446 l 2,2,3
 364 404 364 404 381 314 c 128,-1,4
 398 224 398 224 410 170 c 1,5,-1
 418 170 l 1,6,7
 462 374 462 374 478 446 c 2,8,-1
 622 1062 l 1,9,-1
 826 1062 l 1,10,-1
 972 440 l 2,11,12
 980 404 980 404 1001 315 c 128,-1,13
 1022 226 1022 226 1032 170 c 1,14,-1
 1040 170 l 1,15,16
 1046 200 1046 200 1065 297 c 128,-1,17
 1084 394 1084 394 1096 446 c 2,18,-1
 1234 1062 l 1,19,-1
 1434 1062 l 1,20,-1
 1142 0 l 1,21,-1
 928 0 l 1,22,-1
 784 598 l 2,23,24
 740 804 740 804 728 868 c 1,25,-1
 720 868 l 1,26,27
 688 702 688 702 664 598 c 2,28,-1
 522 0 l 1,29,-1
 306 0 l 1,30,-1
 16 1062 l 1,0,-1
EndSplineSet
Substitution2: "'sups' Superscript lookup 5 subtable" uni02B7
Substitution2: "'aalt' Access All Alternates lookup 0 subtable" uni02B7
EndChar

StartChar: x
Encoding: 120 120 91
Width: 998
GlyphClass: 2
Flags: W
LayerCount: 2
Fore
SplineSet
10 0 m 1,0,-1
 390 550 l 1,1,-1
 28 1062 l 1,2,-1
 244 1062 l 1,3,-1
 412 804 l 2,4,5
 430 776 430 776 458 733 c 128,-1,6
 486 690 486 690 494 676 c 1,7,-1
 500 676 l 1,8,9
 512 698 512 698 539 740 c 128,-1,10
 566 782 566 782 578 804 c 2,11,-1
 746 1062 l 1,12,-1
 962 1062 l 1,13,-1
 604 550 l 1,14,-1
 984 0 l 1,15,-1
 770 0 l 1,16,-1
 580 294 l 2,17,18
 548 342 548 342 500 420 c 1,19,-1
 494 420 l 1,20,21
 462 366 462 366 414 294 c 2,22,-1
 224 0 l 1,23,-1
 10 0 l 1,0,-1
EndSplineSet
Substitution2: "'sups' Superscript lookup 5 subtable" uni02E3
Substitution2: "'aalt' Access All Alternates lookup 0 subtable" uni02E3
EndChar

StartChar: y
Encoding: 121 121 92
Width: 1006
GlyphClass: 2
Flags: W
LayerCount: 2
Fore
SplineSet
16 1062 m 1,0,-1
 220 1062 l 1,1,-1
 426 466 l 2,2,3
 482 304 482 304 508 206 c 1,4,-1
 516 206 l 1,5,6
 572 392 572 392 596 466 c 2,7,-1
 790 1062 l 1,8,-1
 992 1062 l 1,9,-1
 542 -164 l 2,10,11
 484 -324 484 -324 400 -388 c 128,-1,12
 316 -452 316 -452 194 -452 c 2,13,-1
 132 -452 l 1,14,-1
 132 -302 l 1,15,-1
 166 -302 l 2,16,17
 244 -302 244 -302 296 -262 c 128,-1,18
 348 -222 348 -222 386 -118 c 2,19,-1
 424 0 l 1,20,-1
 16 1062 l 1,0,-1
EndSplineSet
Substitution2: "'sups' Superscript lookup 5 subtable" uni02B8
Substitution2: "'aalt' Access All Alternates lookup 0 subtable" uni02B8
EndChar

StartChar: z
Encoding: 122 122 93
Width: 962
GlyphClass: 2
Flags: W
LayerCount: 2
Fore
SplineSet
58 0 m 1,0,-1
 58 122 l 1,1,-1
 654 910 l 1,2,-1
 110 910 l 1,3,-1
 110 1062 l 1,4,-1
 886 1062 l 1,5,-1
 886 948 l 1,6,-1
 288 152 l 1,7,-1
 906 152 l 1,8,-1
 906 0 l 1,9,-1
 58 0 l 1,0,-1
EndSplineSet
EndChar

StartChar: braceleft
Encoding: 123 123 94
Width: 888
GlyphClass: 2
Flags: W
LayerCount: 2
Fore
SplineSet
126 630 m 1,0,-1
 126 768 l 1,1,-1
 184 768 l 2,2,3
 242 768 242 768 278 831 c 128,-1,4
 314 894 314 894 314 1020 c 2,5,-1
 314 1394 l 2,6,7
 314 1520 314 1520 384 1590 c 128,-1,8
 454 1660 454 1660 564 1660 c 2,9,-1
 724 1660 l 1,10,-1
 724 1510 l 1,11,-1
 598 1510 l 2,12,13
 552 1510 552 1510 524 1475 c 128,-1,14
 496 1440 496 1440 496 1372 c 2,15,-1
 496 992 l 2,16,17
 496 872 496 872 457 808 c 128,-1,18
 418 744 418 744 350 700 c 1,19,20
 496 622 496 622 496 426 c 2,21,-1
 496 48 l 2,22,23
 496 -26 496 -26 524 -64 c 128,-1,24
 552 -102 552 -102 602 -102 c 2,25,-1
 724 -102 l 1,26,-1
 724 -250 l 1,27,-1
 564 -250 l 2,28,29
 458 -250 458 -250 386 -184 c 128,-1,30
 314 -118 314 -118 314 14 c 2,31,-1
 314 398 l 2,32,33
 314 502 314 502 277 566 c 128,-1,34
 240 630 240 630 184 630 c 2,35,-1
 126 630 l 1,0,-1
EndSplineSet
EndChar

StartChar: bar
Encoding: 124 124 95
Width: 552
GlyphClass: 2
Flags: W
LayerCount: 2
Fore
SplineSet
186 -326 m 1,0,-1
 186 1728 l 1,1,-1
 368 1728 l 1,2,-1
 368 -326 l 1,3,-1
 186 -326 l 1,0,-1
EndSplineSet
EndChar

StartChar: braceright
Encoding: 125 125 96
Width: 888
GlyphClass: 2
Flags: W
LayerCount: 2
Fore
SplineSet
166 -102 m 1,0,-1
 288 -102 l 2,1,2
 338 -102 338 -102 366 -64 c 128,-1,3
 394 -26 394 -26 394 48 c 2,4,-1
 394 426 l 2,5,6
 394 616 394 616 540 700 c 1,7,8
 472 744 472 744 433 807 c 128,-1,9
 394 870 394 870 394 992 c 2,10,-1
 394 1372 l 2,11,12
 394 1440 394 1440 367 1475 c 128,-1,13
 340 1510 340 1510 292 1510 c 2,14,-1
 166 1510 l 1,15,-1
 166 1660 l 1,16,-1
 324 1660 l 2,17,18
 434 1660 434 1660 504 1590 c 128,-1,19
 574 1520 574 1520 574 1394 c 2,20,-1
 574 1020 l 2,21,22
 574 894 574 894 610 831 c 128,-1,23
 646 768 646 768 706 768 c 2,24,-1
 762 768 l 1,25,-1
 762 630 l 1,26,-1
 706 630 l 2,27,28
 644 630 644 630 609 566 c 128,-1,29
 574 502 574 502 574 398 c 2,30,-1
 574 14 l 2,31,32
 574 -118 574 -118 502 -184 c 128,-1,33
 430 -250 430 -250 324 -250 c 2,34,-1
 166 -250 l 1,35,-1
 166 -102 l 1,0,-1
EndSplineSet
EndChar

StartChar: asciitilde
Encoding: 126 126 97
Width: 1538
GlyphClass: 2
Flags: W
LayerCount: 2
Fore
SplineSet
132 610 m 1,0,1
 266 916 266 916 530 916 c 0,2,3
 608 916 608 916 680 875 c 128,-1,4
 752 834 752 834 797 787 c 128,-1,5
 842 740 842 740 899 699 c 128,-1,6
 956 658 956 658 1010 658 c 0,7,8
 1062 658 1062 658 1101 676 c 128,-1,9
 1140 694 1140 694 1171 735 c 128,-1,10
 1202 776 1202 776 1212 794 c 128,-1,11
 1222 812 1222 812 1244 864 c 0,12,13
 1250 872 1250 872 1252 878 c 1,14,-1
 1404 806 l 1,15,16
 1268 500 1268 500 1014 500 c 0,17,18
 934 500 934 500 861 541 c 128,-1,19
 788 582 788 582 743 629 c 128,-1,20
 698 676 698 676 640 717 c 128,-1,21
 582 758 582 758 530 758 c 0,22,23
 384 758 384 758 288 538 c 1,24,-1
 132 610 l 1,0,1
EndSplineSet
EndChar

StartChar: exclamdown
Encoding: 161 161 99
Width: 620
GlyphClass: 2
Flags: W
LayerCount: 2
Fore
SplineSet
208 -416 m 1,0,-1
 226 642 l 1,1,-1
 396 642 l 1,2,-1
 412 -416 l 1,3,-1
 208 -416 l 1,0,-1
176 824 m 1,4,-1
 176 1070 l 1,5,-1
 446 1070 l 1,6,-1
 446 824 l 1,7,-1
 176 824 l 1,4,-1
EndSplineSet
EndChar

StartChar: cent
Encoding: 162 162 100
Width: 1014
GlyphClass: 2
Flags: W
LayerCount: 2
Fore
SplineSet
78 532 m 0,0,1
 78 750 78 750 183 906 c 128,-1,2
 288 1062 288 1062 474 1086 c 1,3,-1
 474 1242 l 1,4,-1
 640 1242 l 1,5,-1
 640 1088 l 1,6,7
 762 1064 762 1064 840 985 c 128,-1,8
 918 906 918 906 946 808 c 1,9,-1
 794 762 l 1,10,11
 762 838 762 838 704 891 c 128,-1,12
 646 944 646 944 564 944 c 0,13,14
 424 944 424 944 344 827 c 128,-1,15
 264 710 264 710 264 532 c 0,16,17
 264 344 264 344 346 231 c 128,-1,18
 428 118 428 118 562 118 c 0,19,20
 650 118 650 118 720 176 c 128,-1,21
 790 234 790 234 818 312 c 1,22,-1
 972 266 l 1,23,24
 938 164 938 164 852 82 c 128,-1,25
 766 0 766 0 640 -26 c 1,26,-1
 640 -190 l 1,27,-1
 474 -190 l 1,28,-1
 474 -26 l 1,29,30
 298 -4 298 -4 188 146 c 128,-1,31
 78 296 78 296 78 532 c 0,0,1
EndSplineSet
EndChar

StartChar: sterling
Encoding: 163 163 101
Width: 1180
GlyphClass: 2
Flags: W
LayerCount: 2
Fore
SplineSet
78 650 m 1,0,-1
 78 808 l 1,1,-1
 292 808 l 1,2,-1
 292 1132 l 2,3,4
 292 1312 292 1312 407 1408 c 128,-1,5
 522 1504 522 1504 714 1504 c 0,6,7
 846 1504 846 1504 944 1438 c 128,-1,8
 1042 1372 1042 1372 1086 1284 c 1,9,-1
 954 1208 l 1,10,11
 918 1262 918 1262 855 1302 c 128,-1,12
 792 1342 792 1342 716 1342 c 0,13,14
 608 1342 608 1342 543 1285 c 128,-1,15
 478 1228 478 1228 478 1116 c 2,16,-1
 478 808 l 1,17,-1
 912 808 l 1,18,-1
 912 650 l 1,19,-1
 478 650 l 1,20,-1
 478 428 l 2,21,22
 478 240 478 240 394 170 c 1,23,24
 492 188 492 188 548 188 c 256,25,26
 604 188 604 188 702 157 c 128,-1,27
 800 126 800 126 866 126 c 0,28,29
 1000 126 1000 126 1110 186 c 1,30,-1
 1162 34 l 1,31,32
 1020 -34 1020 -34 864 -34 c 0,33,34
 800 -34 800 -34 676 -2 c 128,-1,35
 552 30 552 30 490 30 c 0,36,37
 420 30 420 30 328 17 c 128,-1,38
 236 4 236 4 182 -12 c 2,39,-1
 124 -26 l 1,40,-1
 76 110 l 1,41,42
 182 134 182 134 237 216 c 128,-1,43
 292 298 292 298 292 418 c 2,44,-1
 292 650 l 1,45,-1
 78 650 l 1,0,-1
EndSplineSet
EndChar

StartChar: currency
Encoding: 164 164 102
Width: 1282
GlyphClass: 2
Flags: W
LayerCount: 2
Fore
SplineSet
50 290 m 1,0,-1
 270 496 l 1,1,2
 190 598 190 598 190 734 c 0,3,4
 190 872 190 872 268 972 c 1,5,-1
 50 1176 l 1,6,-1
 174 1292 l 1,7,-1
 384 1090 l 1,8,9
 508 1174 508 1174 642 1174 c 0,10,11
 780 1174 780 1174 902 1090 c 1,12,-1
 1110 1290 l 1,13,-1
 1234 1174 l 1,14,-1
 1020 972 l 1,15,16
 1094 878 1094 878 1094 734 c 0,17,18
 1094 596 1094 596 1018 496 c 1,19,-1
 1234 290 l 1,20,-1
 1110 176 l 1,21,-1
 900 376 l 1,22,23
 782 292 782 292 642 292 c 0,24,25
 498 292 498 292 384 376 c 1,26,-1
 174 176 l 1,27,-1
 50 290 l 1,0,-1
356 734 m 256,28,29
 356 618 356 618 436 534 c 128,-1,30
 516 450 516 450 642 450 c 0,31,32
 766 450 766 450 847 533 c 128,-1,33
 928 616 928 616 928 734 c 256,34,35
 928 852 928 852 846 934 c 128,-1,36
 764 1016 764 1016 642 1016 c 0,37,38
 518 1016 518 1016 437 933 c 128,-1,39
 356 850 356 850 356 734 c 256,28,29
EndSplineSet
EndChar

StartChar: yen
Encoding: 165 165 103
Width: 1206
GlyphClass: 2
Flags: W
LayerCount: 2
Fore
SplineSet
-6 1470 m 1,0,-1
 214 1470 l 1,1,-1
 446 1108 l 2,2,3
 560 924 560 924 602 852 c 1,4,-1
 606 852 l 1,5,6
 632 892 632 892 683 978 c 128,-1,7
 734 1064 734 1064 762 1108 c 2,8,-1
 994 1470 l 1,9,-1
 1214 1470 l 1,10,-1
 782 820 l 1,11,-1
 1082 820 l 1,12,-1
 1082 686 l 1,13,-1
 698 686 l 1,14,-1
 698 468 l 1,15,-1
 1082 468 l 1,16,-1
 1082 334 l 1,17,-1
 698 334 l 1,18,-1
 698 0 l 1,19,-1
 510 0 l 1,20,-1
 510 334 l 1,21,-1
 124 334 l 1,22,-1
 124 468 l 1,23,-1
 510 468 l 1,24,-1
 510 686 l 1,25,-1
 124 686 l 1,26,-1
 124 820 l 1,27,-1
 426 820 l 1,28,-1
 -6 1470 l 1,0,-1
EndSplineSet
EndChar

StartChar: brokenbar
Encoding: 166 166 104
Width: 552
GlyphClass: 2
Flags: W
LayerCount: 2
Fore
SplineSet
186 918 m 1,0,-1
 186 1728 l 1,1,-1
 368 1728 l 1,2,-1
 368 918 l 1,3,-1
 186 918 l 1,0,-1
186 -324 m 1,4,-1
 186 484 l 1,5,-1
 368 484 l 1,6,-1
 368 -324 l 1,7,-1
 186 -324 l 1,4,-1
EndSplineSet
EndChar

StartChar: section
Encoding: 167 167 105
Width: 1112
GlyphClass: 2
Flags: W
LayerCount: 2
Fore
SplineSet
102 98 m 1,0,-1
 226 188 l 1,1,2
 270 128 270 128 346 88 c 128,-1,3
 422 48 422 48 514 48 c 0,4,5
 736 48 736 48 736 180 c 0,6,7
 736 228 736 228 705 257 c 128,-1,8
 674 286 674 286 602 318 c 2,9,-1
 388 416 l 2,10,11
 256 476 256 476 194 546 c 128,-1,12
 132 616 132 616 132 712 c 0,13,14
 132 866 132 866 316 1000 c 1,15,16
 188 1098 188 1098 188 1214 c 0,17,18
 188 1344 188 1344 292 1424 c 128,-1,19
 396 1504 396 1504 602 1504 c 0,20,21
 734 1504 734 1504 839 1448 c 128,-1,22
 944 1392 944 1392 1008 1300 c 1,23,-1
 888 1208 l 1,24,25
 764 1346 764 1346 596 1346 c 0,26,27
 486 1346 486 1346 432 1310 c 128,-1,28
 378 1274 378 1274 378 1214 c 0,29,30
 378 1190 378 1190 386 1171 c 128,-1,31
 394 1152 394 1152 413 1133 c 128,-1,32
 432 1114 432 1114 447 1101 c 128,-1,33
 462 1088 462 1088 497 1070 c 128,-1,34
 532 1052 532 1052 550 1043 c 128,-1,35
 568 1034 568 1034 613 1013 c 128,-1,36
 658 992 658 992 678 984 c 0,37,38
 744 954 744 954 777 937 c 128,-1,39
 810 920 810 920 862 887 c 128,-1,40
 914 854 914 854 939 823 c 128,-1,41
 964 792 964 792 984 746 c 128,-1,42
 1004 700 1004 700 1004 646 c 0,43,44
 1004 488 1004 488 846 360 c 1,45,46
 922 284 922 284 922 180 c 0,47,48
 922 48 922 48 822 -31 c 128,-1,49
 722 -110 722 -110 516 -110 c 0,50,51
 378 -110 378 -110 266 -48 c 128,-1,52
 154 14 154 14 102 98 c 1,0,-1
322 720 m 0,53,54
 322 654 322 654 359 619 c 128,-1,55
 396 584 396 584 498 538 c 2,56,-1
 702 446 l 1,57,58
 816 542 816 542 816 646 c 0,59,60
 816 704 816 704 771 743 c 128,-1,61
 726 782 726 782 626 832 c 2,62,-1
 456 918 l 1,63,64
 322 820 322 820 322 720 c 0,53,54
EndSplineSet
EndChar

StartChar: dieresis
Encoding: 168 168 106
Width: 978
GlyphClass: 2
Flags: W
LayerCount: 2
Fore
SplineSet
196 1248 m 1,0,-1
 196 1470 l 1,1,-1
 414 1470 l 1,2,-1
 414 1248 l 1,3,-1
 196 1248 l 1,0,-1
566 1248 m 1,4,-1
 566 1470 l 1,5,-1
 784 1470 l 1,6,-1
 784 1248 l 1,7,-1
 566 1248 l 1,4,-1
EndSplineSet
EndChar

StartChar: copyright
Encoding: 169 169 107
Width: 1734
GlyphClass: 2
Flags: W
LayerCount: 2
Fore
SplineSet
494 744 m 0,0,1
 494 960 494 960 602 1087 c 128,-1,2
 710 1214 710 1214 894 1214 c 0,3,4
 1018 1214 1018 1214 1097 1147 c 128,-1,5
 1176 1080 1176 1080 1216 978 c 1,6,-1
 1080 934 l 1,7,8
 1008 1076 1008 1076 894 1076 c 256,9,10
 780 1076 780 1076 716 987 c 128,-1,11
 652 898 652 898 652 744 c 0,12,13
 652 586 652 586 717 499 c 128,-1,14
 782 412 782 412 894 412 c 0,15,16
 966 412 966 412 1021 456 c 128,-1,17
 1076 500 1076 500 1100 566 c 1,18,-1
 1236 524 l 1,19,20
 1202 422 1202 422 1113 348 c 128,-1,21
 1024 274 1024 274 892 274 c 0,22,23
 714 274 714 274 604 400 c 128,-1,24
 494 526 494 526 494 744 c 0,0,1
86 746 m 256,25,26
 86 1098 86 1098 309 1317 c 128,-1,27
 532 1536 532 1536 866 1536 c 0,28,29
 1208 1536 1208 1536 1430 1315 c 128,-1,30
 1652 1094 1652 1094 1652 746 c 0,31,32
 1652 402 1652 402 1430 180 c 128,-1,33
 1208 -42 1208 -42 866 -42 c 0,34,35
 532 -42 532 -42 309 176 c 128,-1,36
 86 394 86 394 86 746 c 256,25,26
222 746 m 256,37,38
 222 450 222 450 400 264 c 128,-1,39
 578 78 578 78 866 78 c 0,40,41
 1150 78 1150 78 1333 262 c 128,-1,42
 1516 446 1516 446 1516 746 c 0,43,44
 1516 1042 1516 1042 1334 1227 c 128,-1,45
 1152 1412 1152 1412 866 1412 c 0,46,47
 582 1412 582 1412 402 1227 c 128,-1,48
 222 1042 222 1042 222 746 c 256,37,38
EndSplineSet
EndChar

StartChar: ordfeminine
Encoding: 170 170 108
Width: 772
GlyphClass: 2
Flags: W
LayerCount: 2
Fore
SplineSet
74 628 m 1,0,-1
 74 750 l 1,1,-1
 702 750 l 1,2,-1
 702 628 l 1,3,-1
 74 628 l 1,0,-1
194 1086 m 0,4,5
 194 1040 194 1040 232 1009 c 128,-1,6
 270 978 270 978 336 978 c 0,7,8
 422 978 422 978 484 1035 c 128,-1,9
 546 1092 546 1092 546 1182 c 2,10,-1
 546 1264 l 1,11,12
 514 1256 514 1256 454 1246 c 128,-1,13
 394 1236 394 1236 357 1229 c 128,-1,14
 320 1222 320 1222 278 1205 c 128,-1,15
 236 1188 236 1188 215 1158 c 128,-1,16
 194 1128 194 1128 194 1086 c 0,4,5
58 1076 m 0,17,18
 58 1150 58 1150 92 1201 c 128,-1,19
 126 1252 126 1252 187 1279 c 128,-1,20
 248 1306 248 1306 305 1320 c 128,-1,21
 362 1334 362 1334 437 1346 c 128,-1,22
 512 1358 512 1358 546 1368 c 1,23,-1
 546 1404 l 2,24,25
 546 1464 546 1464 501 1503 c 128,-1,26
 456 1542 456 1542 380 1542 c 0,27,28
 308 1542 308 1542 249 1506 c 128,-1,29
 190 1470 190 1470 162 1432 c 1,30,-1
 76 1504 l 1,31,32
 112 1554 112 1554 196 1603 c 128,-1,33
 280 1652 280 1652 378 1652 c 0,34,35
 680 1652 680 1652 680 1356 c 2,36,-1
 680 886 l 1,37,-1
 550 886 l 1,38,-1
 550 980 l 1,39,40
 478 864 478 864 320 864 c 0,41,42
 196 864 196 864 127 923 c 128,-1,43
 58 982 58 982 58 1076 c 0,17,18
EndSplineSet
EndChar

StartChar: guillemotleft
Encoding: 171 171 109
Width: 964
GlyphClass: 2
Flags: W
LayerCount: 2
Fore
SplineSet
76 508 m 1,0,-1
 398 972 l 1,1,-1
 530 886 l 1,2,-1
 272 508 l 1,3,-1
 528 136 l 1,4,-1
 398 46 l 1,5,-1
 76 508 l 1,0,-1
444 508 m 1,6,-1
 764 956 l 1,7,-1
 892 860 l 1,8,-1
 640 508 l 1,9,-1
 892 156 l 1,10,-1
 764 62 l 1,11,-1
 444 508 l 1,6,-1
EndSplineSet
EndChar

StartChar: logicalnot
Encoding: 172 172 110
Width: 1098
GlyphClass: 2
Flags: W
LayerCount: 2
Fore
SplineSet
94 618 m 1,0,-1
 94 776 l 1,1,-1
 1006 776 l 1,2,-1
 1006 244 l 1,3,-1
 832 244 l 1,4,-1
 832 618 l 1,5,-1
 94 618 l 1,0,-1
EndSplineSet
EndChar

StartChar: uni00AD
Encoding: 173 173 111
Width: 1120
GlyphClass: 2
Flags: W
LayerCount: 2
Fore
SplineSet
114 650 m 1,0,-1
 114 810 l 1,1,-1
 1006 810 l 1,2,-1
 1006 650 l 1,3,-1
 114 650 l 1,0,-1
EndSplineSet
EndChar

StartChar: registered
Encoding: 174 174 112
Width: 1734
GlyphClass: 2
Flags: W
LayerCount: 2
Fore
SplineSet
580 290 m 1,0,-1
 580 1188 l 1,1,-1
 936 1188 l 2,2,3
 1068 1188 1068 1188 1140 1114 c 128,-1,4
 1212 1040 1212 1040 1212 932 c 0,5,6
 1212 778 1212 778 1080 712 c 1,7,8
 1144 664 1144 664 1170 550 c 0,9,10
 1194 432 1194 432 1270 290 c 1,11,-1
 1096 290 l 1,12,13
 1046 376 1046 376 1012 534 c 0,14,15
 1002 578 1002 578 996 598 c 128,-1,16
 990 618 990 618 968 639 c 128,-1,17
 946 660 946 660 912 660 c 2,18,-1
 736 660 l 1,19,-1
 736 290 l 1,20,-1
 580 290 l 1,0,-1
736 784 m 1,21,-1
 914 784 l 2,22,23
 980 784 980 784 1017 821 c 128,-1,24
 1054 858 1054 858 1054 918 c 0,25,26
 1054 974 1054 974 1018 1012 c 128,-1,27
 982 1050 982 1050 914 1050 c 2,28,-1
 736 1050 l 1,29,-1
 736 784 l 1,21,-1
86 748 m 0,30,31
 86 1100 86 1100 308 1318 c 128,-1,32
 530 1536 530 1536 866 1536 c 0,33,34
 1208 1536 1208 1536 1430 1315 c 128,-1,35
 1652 1094 1652 1094 1652 748 c 256,36,37
 1652 402 1652 402 1431 180 c 128,-1,38
 1210 -42 1210 -42 866 -42 c 0,39,40
 532 -42 532 -42 309 176 c 128,-1,41
 86 394 86 394 86 748 c 0,30,31
222 748 m 0,42,43
 222 450 222 450 399 266 c 128,-1,44
 576 82 576 82 866 82 c 0,45,46
 1154 82 1154 82 1335 266 c 128,-1,47
 1516 450 1516 450 1516 748 c 256,48,49
 1516 1046 1516 1046 1333 1228 c 128,-1,50
 1150 1410 1150 1410 866 1410 c 0,51,52
 580 1410 580 1410 401 1227 c 128,-1,53
 222 1044 222 1044 222 748 c 0,42,43
EndSplineSet
EndChar

StartChar: macron
Encoding: 175 175 113
Width: 1002
GlyphClass: 2
Flags: W
LayerCount: 2
Fore
SplineSet
2 1450 m 1,0,-1
 2 1608 l 1,1,-1
 1002 1608 l 1,2,-1
 1002 1450 l 1,3,-1
 2 1450 l 1,0,-1
EndSplineSet
EndChar

StartChar: degree
Encoding: 176 176 114
Width: 846
GlyphClass: 2
Flags: W
LayerCount: 2
Fore
SplineSet
168 1234 m 0,0,1
 168 1338 168 1338 240 1411 c 128,-1,2
 312 1484 312 1484 424 1484 c 0,3,4
 532 1484 532 1484 606 1412 c 128,-1,5
 680 1340 680 1340 680 1234 c 256,6,7
 680 1128 680 1128 605 1055 c 128,-1,8
 530 982 530 982 424 982 c 0,9,10
 316 982 316 982 242 1055 c 128,-1,11
 168 1128 168 1128 168 1234 c 0,0,1
288 1234 m 0,12,13
 288 1174 288 1174 326 1134 c 128,-1,14
 364 1094 364 1094 424 1094 c 0,15,16
 480 1094 480 1094 519 1134 c 128,-1,17
 558 1174 558 1174 558 1234 c 0,18,19
 558 1288 558 1288 521 1329 c 128,-1,20
 484 1370 484 1370 424 1370 c 0,21,22
 362 1370 362 1370 325 1329 c 128,-1,23
 288 1288 288 1288 288 1234 c 0,12,13
EndSplineSet
EndChar

StartChar: plusminus
Encoding: 177 177 115
Width: 1120
GlyphClass: 2
Flags: W
LayerCount: 2
Fore
SplineSet
84 804 m 1,0,-1
 84 962 l 1,1,-1
 470 962 l 1,2,-1
 470 1302 l 1,3,-1
 650 1302 l 1,4,-1
 650 962 l 1,5,-1
 1034 962 l 1,6,-1
 1034 804 l 1,7,-1
 650 804 l 1,8,-1
 650 466 l 1,9,-1
 470 466 l 1,10,-1
 470 804 l 1,11,-1
 84 804 l 1,0,-1
86 182 m 1,12,-1
 86 340 l 1,13,-1
 1034 340 l 1,14,-1
 1034 182 l 1,15,-1
 86 182 l 1,12,-1
EndSplineSet
EndChar

StartChar: twosuperior
Encoding: 178 178 116
Width: 650
GlyphClass: 2
Flags: W
LayerCount: 2
Fore
SplineSet
54 1414 m 1,0,1
 112 1650 112 1650 324 1650 c 0,2,3
 438 1650 438 1650 510 1583 c 128,-1,4
 582 1516 582 1516 582 1404 c 0,5,6
 582 1280 582 1280 444 1140 c 0,7,8
 426 1124 426 1124 384 1084 c 128,-1,9
 342 1044 342 1044 319 1021 c 128,-1,10
 296 998 296 998 267 962 c 128,-1,11
 238 926 238 926 224 894 c 1,12,-1
 582 894 l 1,13,-1
 582 780 l 1,14,-1
 62 780 l 1,15,16
 62 888 62 888 120 972 c 128,-1,17
 178 1056 178 1056 348 1220 c 0,18,19
 446 1310 446 1310 446 1406 c 0,20,21
 446 1468 446 1468 413 1502 c 128,-1,22
 380 1536 380 1536 322 1536 c 0,23,24
 268 1536 268 1536 231 1501 c 128,-1,25
 194 1466 194 1466 187 1443 c 128,-1,26
 180 1420 180 1420 170 1384 c 1,27,-1
 54 1414 l 1,0,1
EndSplineSet
EndChar

StartChar: threesuperior
Encoding: 179 179 117
Width: 650
GlyphClass: 2
Flags: W
LayerCount: 2
Fore
SplineSet
38 954 m 1,0,-1
 146 996 l 1,1,2
 204 874 204 874 314 874 c 0,3,4
 380 874 380 874 424 914 c 128,-1,5
 468 954 468 954 468 1026 c 0,6,7
 468 1094 468 1094 420 1132 c 128,-1,8
 372 1170 372 1170 298 1170 c 0,9,10
 268 1170 268 1170 218 1166 c 1,11,-1
 218 1282 l 1,12,13
 280 1278 280 1278 294 1278 c 0,14,15
 356 1278 356 1278 396 1313 c 128,-1,16
 436 1348 436 1348 436 1412 c 0,17,18
 436 1468 436 1468 401 1503 c 128,-1,19
 366 1538 366 1538 310 1538 c 0,20,21
 252 1538 252 1538 222 1504 c 128,-1,22
 192 1470 192 1470 170 1412 c 1,23,-1
 60 1446 l 1,24,25
 122 1650 122 1650 314 1650 c 0,26,27
 430 1650 430 1650 500 1585 c 128,-1,28
 570 1520 570 1520 570 1422 c 0,29,30
 570 1294 570 1294 466 1234 c 1,31,32
 604 1172 604 1172 604 1026 c 0,33,34
 604 904 604 904 524 833 c 128,-1,35
 444 762 444 762 314 762 c 0,36,37
 212 762 212 762 141 814 c 128,-1,38
 70 866 70 866 38 954 c 1,0,-1
EndSplineSet
EndChar

StartChar: acute
Encoding: 180 180 118
Width: 700
GlyphClass: 2
Flags: W
LayerCount: 2
Fore
SplineSet
150 1300 m 1,0,-1
 370 1648 l 1,1,-1
 598 1648 l 1,2,-1
 306 1300 l 1,3,-1
 150 1300 l 1,0,-1
EndSplineSet
EndChar

StartChar: uni00B5
Encoding: 181 181 119
Width: 1138
GlyphClass: 2
Flags: W
LayerCount: 2
Fore
SplineSet
158 -452 m 1,0,-1
 158 1062 l 1,1,-1
 340 1062 l 1,2,-1
 340 408 l 2,3,4
 340 118 340 118 548 118 c 0,5,6
 676 118 676 118 745 220 c 128,-1,7
 814 322 814 322 814 460 c 2,8,-1
 814 1062 l 1,9,-1
 994 1062 l 1,10,-1
 994 0 l 1,11,-1
 820 0 l 1,12,-1
 820 154 l 1,13,-1
 818 154 l 1,14,15
 792 76 792 76 711 21 c 128,-1,16
 630 -34 630 -34 514 -34 c 0,17,18
 400 -34 400 -34 340 54 c 1,19,-1
 340 -452 l 1,20,-1
 158 -452 l 1,0,-1
EndSplineSet
EndChar

StartChar: paragraph
Encoding: 182 182 120
Width: 1262
GlyphClass: 2
Flags: W
LayerCount: 2
Fore
SplineSet
110 1090 m 0,0,1
 110 1290 110 1290 215 1413 c 128,-1,2
 320 1536 320 1536 518 1536 c 2,3,-1
 1090 1536 l 1,4,-1
 1090 -142 l 1,5,-1
 940 -142 l 1,6,-1
 940 1370 l 1,7,-1
 756 1370 l 1,8,-1
 756 -142 l 1,9,-1
 604 -142 l 1,10,-1
 604 648 l 1,11,12
 558 632 558 632 492 632 c 0,13,14
 330 632 330 632 220 751 c 128,-1,15
 110 870 110 870 110 1090 c 0,0,1
EndSplineSet
EndChar

StartChar: periodcentered
Encoding: 183 183 121
Width: 682
GlyphClass: 2
Flags: W
LayerCount: 2
Fore
SplineSet
206 580 m 1,0,-1
 206 830 l 1,1,-1
 476 830 l 1,2,-1
 476 580 l 1,3,-1
 206 580 l 1,0,-1
EndSplineSet
EndChar

StartChar: cedilla
Encoding: 184 184 122
Width: 602
GlyphClass: 2
Flags: W
LayerCount: 2
Fore
SplineSet
86 -308 m 1,0,1
 176 -328 176 -328 214 -328 c 0,2,3
 338 -328 338 -328 338 -254 c 0,4,5
 338 -172 338 -172 152 -158 c 1,6,-1
 250 46 l 1,7,-1
 410 46 l 1,8,-1
 352 -74 l 1,9,10
 420 -92 420 -92 463 -138 c 128,-1,11
 506 -184 506 -184 506 -256 c 0,12,13
 506 -342 506 -342 440 -400 c 128,-1,14
 374 -458 374 -458 228 -458 c 0,15,16
 148 -458 148 -458 86 -440 c 1,17,-1
 86 -308 l 1,0,1
EndSplineSet
EndChar

StartChar: onesuperior
Encoding: 185 185 123
Width: 650
GlyphClass: 2
Flags: W
LayerCount: 2
Fore
SplineSet
100 1398 m 1,0,-1
 100 1504 l 1,1,-1
 148 1504 l 2,2,3
 236 1504 236 1504 268 1531 c 128,-1,4
 300 1558 300 1558 300 1608 c 2,5,-1
 300 1646 l 1,6,-1
 418 1646 l 1,7,-1
 418 780 l 1,8,-1
 284 780 l 1,9,-1
 284 1398 l 1,10,-1
 100 1398 l 1,0,-1
EndSplineSet
EndChar

StartChar: ordmasculine
Encoding: 186 186 124
Width: 778
GlyphClass: 2
Flags: W
LayerCount: 2
Fore
SplineSet
190 1258 m 0,0,1
 190 1126 190 1126 248 1052 c 128,-1,2
 306 978 306 978 390 978 c 0,3,4
 470 978 470 978 530 1052 c 128,-1,5
 590 1126 590 1126 590 1258 c 0,6,7
 590 1392 590 1392 531 1464 c 128,-1,8
 472 1536 472 1536 390 1536 c 0,9,10
 306 1536 306 1536 248 1464 c 128,-1,11
 190 1392 190 1392 190 1258 c 0,0,1
52 1258 m 0,12,13
 52 1426 52 1426 140 1539 c 128,-1,14
 228 1652 228 1652 390 1652 c 0,15,16
 550 1652 550 1652 638 1539 c 128,-1,17
 726 1426 726 1426 726 1258 c 0,18,19
 726 1188 726 1188 708 1122 c 128,-1,20
 690 1056 690 1056 652 996 c 128,-1,21
 614 936 614 936 546 900 c 128,-1,22
 478 864 478 864 390 864 c 0,23,24
 272 864 272 864 193 927 c 128,-1,25
 114 990 114 990 83 1075 c 128,-1,26
 52 1160 52 1160 52 1258 c 0,12,13
74 632 m 1,27,-1
 74 754 l 1,28,-1
 708 754 l 1,29,-1
 708 632 l 1,30,-1
 74 632 l 1,27,-1
EndSplineSet
EndChar

StartChar: guillemotright
Encoding: 187 187 125
Width: 962
GlyphClass: 2
Flags: W
LayerCount: 2
Fore
SplineSet
72 860 m 1,0,-1
 200 956 l 1,1,-1
 522 508 l 1,2,-1
 200 62 l 1,3,-1
 74 156 l 1,4,-1
 328 508 l 1,5,-1
 72 860 l 1,0,-1
438 138 m 1,6,-1
 692 508 l 1,7,-1
 434 886 l 1,8,-1
 568 972 l 1,9,-1
 888 508 l 1,10,-1
 568 46 l 1,11,-1
 438 138 l 1,6,-1
EndSplineSet
EndChar

StartChar: onequarter
Encoding: 188 188 126
Width: 1936
GlyphClass: 3
Flags: W
LayerCount: 2
Fore
SplineSet
1270 266 m 1,0,-1
 1506 266 l 1,1,-1
 1506 548 l 2,2,3
 1506 562 1506 562 1507 597 c 128,-1,4
 1508 632 1508 632 1508 644 c 1,5,-1
 1454 552 l 1,6,-1
 1270 266 l 1,0,-1
152 1296 m 1,7,-1
 152 1428 l 1,8,-1
 212 1428 l 2,9,10
 306 1428 306 1428 343 1457 c 128,-1,11
 380 1486 380 1486 380 1540 c 2,12,-1
 380 1586 l 1,13,-1
 522 1586 l 1,14,-1
 522 592 l 1,15,-1
 358 592 l 1,16,-1
 358 1296 l 1,17,-1
 152 1296 l 1,7,-1
320 -100 m 1,18,-1
 1268 1562 l 1,19,-1
 1442 1562 l 1,20,-1
 498 -100 l 1,21,-1
 320 -100 l 1,18,-1
1098 248 m 1,22,-1
 1530 908 l 1,23,-1
 1668 908 l 1,24,-1
 1668 266 l 1,25,-1
 1796 266 l 1,26,-1
 1796 126 l 1,27,-1
 1668 126 l 1,28,-1
 1668 -90 l 1,29,-1
 1506 -90 l 1,30,-1
 1506 126 l 1,31,-1
 1098 126 l 1,32,-1
 1098 248 l 1,22,-1
EndSplineSet
Ligature2: "'frac' Diagonal Fractions lookup 7 subtable" one fraction four
Ligature2: "'frac' Diagonal Fractions lookup 7 subtable" one slash four
EndChar

StartChar: onehalf
Encoding: 189 189 127
Width: 1936
GlyphClass: 3
Flags: W
LayerCount: 2
Fore
SplineSet
1140 632 m 1,0,1
 1204 908 1204 908 1454 908 c 0,2,3
 1586 908 1586 908 1670 832 c 128,-1,4
 1754 756 1754 756 1754 624 c 0,5,6
 1754 478 1754 478 1592 320 c 0,7,8
 1580 308 1580 308 1554 284 c 128,-1,9
 1528 260 1528 260 1518 250 c 128,-1,10
 1508 240 1508 240 1488 221 c 128,-1,11
 1468 202 1468 202 1459 193 c 128,-1,12
 1450 184 1450 184 1435 168 c 128,-1,13
 1420 152 1420 152 1412 142 c 128,-1,14
 1404 132 1404 132 1393 119 c 128,-1,15
 1382 106 1382 106 1376 96 c 128,-1,16
 1370 86 1370 86 1362 74 c 128,-1,17
 1354 62 1354 62 1348 50 c 1,18,-1
 1752 50 l 1,19,-1
 1752 -90 l 1,20,-1
 1150 -90 l 1,21,22
 1150 30 1150 30 1213 129 c 128,-1,23
 1276 228 1276 228 1480 420 c 0,24,25
 1588 520 1588 520 1588 626 c 0,26,27
 1588 696 1588 696 1552 732 c 128,-1,28
 1516 768 1516 768 1452 768 c 0,29,30
 1326 768 1326 768 1284 592 c 1,31,-1
 1140 632 l 1,0,1
152 1296 m 1,32,-1
 152 1428 l 1,33,-1
 212 1428 l 2,34,35
 306 1428 306 1428 343 1457 c 128,-1,36
 380 1486 380 1486 380 1540 c 2,37,-1
 380 1586 l 1,38,-1
 522 1586 l 1,39,-1
 522 592 l 1,40,-1
 358 592 l 1,41,-1
 358 1296 l 1,42,-1
 152 1296 l 1,32,-1
306 -100 m 1,43,-1
 1258 1562 l 1,44,-1
 1432 1562 l 1,45,-1
 486 -100 l 1,46,-1
 306 -100 l 1,43,-1
EndSplineSet
Ligature2: "'frac' Diagonal Fractions lookup 7 subtable" one fraction two
Ligature2: "'frac' Diagonal Fractions lookup 7 subtable" one slash two
EndChar

StartChar: threequarters
Encoding: 190 190 128
Width: 1936
GlyphClass: 3
Flags: W
LayerCount: 2
Fore
SplineSet
120 816 m 1,0,-1
 254 868 l 1,1,2
 274 832 274 832 290 807 c 128,-1,3
 306 782 306 782 348 757 c 128,-1,4
 390 732 390 732 444 732 c 0,5,6
 514 732 514 732 562 773 c 128,-1,7
 610 814 610 814 610 896 c 0,8,9
 610 970 610 970 556 1013 c 128,-1,10
 502 1056 502 1056 424 1056 c 0,11,12
 396 1056 396 1056 326 1050 c 1,13,-1
 326 1192 l 1,14,15
 362 1188 362 1188 420 1188 c 0,16,17
 488 1188 488 1188 531 1227 c 128,-1,18
 574 1266 574 1266 574 1336 c 0,19,20
 574 1396 574 1396 536 1434 c 128,-1,21
 498 1472 498 1472 438 1472 c 0,22,23
 374 1472 374 1472 341 1433 c 128,-1,24
 308 1394 308 1394 282 1328 c 1,25,-1
 144 1372 l 1,26,27
 178 1482 178 1482 253 1546 c 128,-1,28
 328 1610 328 1610 444 1610 c 0,29,30
 578 1610 578 1610 659 1535 c 128,-1,31
 740 1460 740 1460 740 1346 c 0,32,33
 740 1208 740 1208 624 1132 c 1,34,35
 774 1060 774 1060 774 896 c 0,36,37
 774 754 774 754 683 673 c 128,-1,38
 592 592 592 592 444 592 c 0,39,40
 344 592 344 592 255 643 c 128,-1,41
 166 694 166 694 120 816 c 1,0,-1
1114 248 m 1,42,-1
 1548 908 l 1,43,-1
 1684 908 l 1,44,-1
 1684 266 l 1,45,-1
 1812 266 l 1,46,-1
 1812 126 l 1,47,-1
 1684 126 l 1,48,-1
 1684 -90 l 1,49,-1
 1522 -90 l 1,50,-1
 1522 126 l 1,51,-1
 1114 126 l 1,52,-1
 1114 248 l 1,42,-1
1286 266 m 1,53,-1
 1522 266 l 1,54,-1
 1522 546 l 2,55,56
 1522 560 1522 560 1523 595 c 128,-1,57
 1524 630 1524 630 1524 642 c 1,58,-1
 1472 552 l 1,59,-1
 1286 266 l 1,53,-1
454 -100 m 1,60,-1
 1408 1562 l 1,61,-1
 1582 1562 l 1,62,-1
 634 -100 l 1,63,-1
 454 -100 l 1,60,-1
EndSplineSet
Ligature2: "'frac' Diagonal Fractions lookup 7 subtable" three fraction four
Ligature2: "'frac' Diagonal Fractions lookup 7 subtable" three slash four
EndChar

StartChar: questiondown
Encoding: 191 191 129
Width: 1120
GlyphClass: 2
Flags: W
LayerCount: 2
Fore
SplineSet
138 -46 m 0,0,1
 138 44 138 44 174 116 c 128,-1,2
 210 188 210 188 261 238 c 128,-1,3
 312 288 312 288 363 336 c 128,-1,4
 414 384 414 384 450 451 c 128,-1,5
 486 518 486 518 486 604 c 2,6,-1
 486 654 l 1,7,-1
 672 654 l 1,8,-1
 672 590 l 2,9,10
 672 492 672 492 638 416 c 128,-1,11
 604 340 604 340 552 288 c 128,-1,12
 500 236 500 236 450 190 c 128,-1,13
 400 144 400 144 366 84 c 128,-1,14
 332 24 332 24 332 -52 c 0,15,16
 332 -162 332 -162 391 -226 c 128,-1,17
 450 -290 450 -290 554 -290 c 0,18,19
 738 -290 738 -290 830 -62 c 1,20,-1
 996 -118 l 1,21,22
 946 -266 946 -266 831 -358 c 128,-1,23
 716 -450 716 -450 556 -450 c 0,24,25
 370 -450 370 -450 254 -340 c 128,-1,26
 138 -230 138 -230 138 -46 c 0,0,1
444 826 m 1,27,-1
 444 1070 l 1,28,-1
 712 1070 l 1,29,-1
 712 826 l 1,30,-1
 444 826 l 1,27,-1
EndSplineSet
EndChar

StartChar: AE
Encoding: 198 198 136
Width: 1886
GlyphClass: 2
Flags: W
LayerCount: 2
Fore
SplineSet
500 554 m 1,0,-1
 938 554 l 1,1,-1
 938 1292 l 1,2,-1
 920 1292 l 1,3,-1
 500 554 l 1,0,-1
-8 0 m 1,4,-1
 824 1470 l 1,5,-1
 1798 1470 l 1,6,-1
 1798 1310 l 1,7,-1
 1126 1310 l 1,8,-1
 1126 840 l 1,9,-1
 1726 840 l 1,10,-1
 1726 682 l 1,11,-1
 1114 682 l 1,12,-1
 1114 158 l 1,13,-1
 1816 158 l 1,14,-1
 1816 0 l 1,15,-1
 938 0 l 1,16,-1
 938 402 l 1,17,-1
 418 402 l 1,18,-1
 196 0 l 1,19,-1
 -8 0 l 1,4,-1
EndSplineSet
EndChar

StartChar: multiply
Encoding: 215 215 153
Width: 1116
GlyphClass: 2
Flags: W
LayerCount: 2
Fore
SplineSet
82 388 m 1,0,-1
 446 728 l 1,1,-1
 82 1072 l 1,2,-1
 198 1182 l 1,3,-1
 556 834 l 1,4,-1
 918 1182 l 1,5,-1
 1032 1074 l 1,6,-1
 670 728 l 1,7,-1
 1032 386 l 1,8,-1
 918 276 l 1,9,-1
 556 622 l 1,10,-1
 198 276 l 1,11,-1
 82 388 l 1,0,-1
EndSplineSet
EndChar

StartChar: Oslash
Encoding: 216 216 154
Width: 1424
GlyphClass: 2
Flags: W
LayerCount: 2
Fore
SplineSet
94 734 m 0,0,1
 94 1080 94 1080 263 1292 c 128,-1,2
 432 1504 432 1504 712 1504 c 0,3,4
 878 1504 878 1504 1010 1428 c 1,5,-1
 1090 1584 l 1,6,-1
 1258 1584 l 1,7,-1
 1128 1336 l 1,8,9
 1332 1126 1332 1126 1332 732 c 0,10,11
 1332 382 1332 382 1162 174 c 128,-1,12
 992 -34 992 -34 712 -34 c 0,13,14
 564 -34 564 -34 446 26 c 1,15,-1
 362 -132 l 1,16,-1
 196 -132 l 1,17,-1
 324 112 l 1,18,19
 94 324 94 324 94 734 c 0,0,1
1034 1162 m 1,20,-1
 524 176 l 1,21,22
 604 128 604 128 712 128 c 0,23,24
 908 128 908 128 1022 288 c 128,-1,25
 1136 448 1136 448 1136 732 c 0,26,27
 1136 1008 1136 1008 1034 1162 c 1,20,-1
930 1278 m 1,28,29
 836 1344 836 1344 712 1344 c 0,30,31
 516 1344 516 1344 402 1179 c 128,-1,32
 288 1014 288 1014 288 734 c 0,33,34
 288 444 288 444 412 280 c 1,35,-1
 930 1278 l 1,28,29
EndSplineSet
EndChar

StartChar: Thorn
Encoding: 222 222 160
Width: 1188
GlyphClass: 2
Flags: W
LayerCount: 2
Fore
SplineSet
190 0 m 1,0,-1
 190 1470 l 1,1,-1
 378 1470 l 1,2,-1
 378 1228 l 1,3,-1
 586 1228 l 2,4,5
 858 1228 858 1228 986 1097 c 128,-1,6
 1114 966 1114 966 1114 760 c 0,7,8
 1114 522 1114 522 966 404 c 128,-1,9
 818 286 818 286 574 286 c 2,10,-1
 378 286 l 1,11,-1
 378 0 l 1,12,-1
 190 0 l 1,0,-1
378 444 m 1,13,-1
 556 444 l 2,14,15
 918 444 918 444 918 762 c 0,16,17
 918 1070 918 1070 570 1070 c 2,18,-1
 378 1070 l 1,19,-1
 378 444 l 1,13,-1
EndSplineSet
EndChar

StartChar: germandbls
Encoding: 223 223 161
Width: 1298
GlyphClass: 2
Flags: W
LayerCount: 2
Fore
SplineSet
190 0 m 1,0,-1
 190 1094 l 2,1,2
 190 1290 190 1290 318 1397 c 128,-1,3
 446 1504 446 1504 636 1504 c 0,4,5
 838 1504 838 1504 964 1396 c 128,-1,6
 1090 1288 1090 1288 1090 1108 c 0,7,8
 1090 990 1090 990 1040 909 c 128,-1,9
 990 828 990 828 918 786 c 1,10,-1
 918 782 l 1,11,12
 1040 746 1040 746 1124 648 c 128,-1,13
 1208 550 1208 550 1208 388 c 0,14,15
 1208 196 1208 196 1088 81 c 128,-1,16
 968 -34 968 -34 762 -34 c 0,17,18
 614 -34 614 -34 494 6 c 1,19,-1
 500 172 l 1,20,21
 618 126 618 126 758 126 c 0,22,23
 866 126 866 126 941 199 c 128,-1,24
 1016 272 1016 272 1016 388 c 0,25,26
 1016 532 1016 532 930 608 c 128,-1,27
 844 684 844 684 706 684 c 2,28,-1
 576 684 l 1,29,-1
 576 842 l 1,30,-1
 688 842 l 2,31,32
 780 842 780 842 839 913 c 128,-1,33
 898 984 898 984 898 1098 c 0,34,35
 898 1206 898 1206 829 1275 c 128,-1,36
 760 1344 760 1344 640 1344 c 0,37,38
 518 1344 518 1344 448 1274 c 128,-1,39
 378 1204 378 1204 378 1080 c 2,40,-1
 378 0 l 1,41,-1
 190 0 l 1,0,-1
EndSplineSet
EndChar

StartChar: ae
Encoding: 230 230 168
Width: 1800
GlyphClass: 2
Flags: W
LayerCount: 2
Fore
SplineSet
258 282 m 0,0,1
 258 212 258 212 315 164 c 128,-1,2
 372 116 372 116 468 116 c 0,3,4
 600 116 600 116 693 201 c 128,-1,5
 786 286 786 286 786 418 c 2,6,-1
 786 550 l 1,7,8
 700 528 700 528 548 504 c 0,9,10
 258 460 258 460 258 282 c 0,0,1
968 604 m 1,11,-1
 1544 604 l 1,12,13
 1544 748 1544 748 1465 848 c 128,-1,14
 1386 948 1386 948 1264 948 c 0,15,16
 1140 948 1140 948 1065 860 c 128,-1,17
 990 772 990 772 972 642 c 2,18,-1
 968 604 l 1,11,-1
78 270 m 0,19,20
 78 564 78 564 536 634 c 0,21,22
 744 668 744 668 786 684 c 1,23,-1
 786 746 l 2,24,25
 786 830 786 830 721 891 c 128,-1,26
 656 952 656 952 548 952 c 0,27,28
 352 952 352 952 216 794 c 1,29,-1
 102 890 l 1,30,31
 276 1096 276 1096 548 1096 c 0,32,33
 808 1096 808 1096 904 894 c 1,34,35
 1024 1096 1024 1096 1264 1096 c 0,36,37
 1468 1096 1468 1096 1596 944 c 128,-1,38
 1724 792 1724 792 1724 554 c 2,39,-1
 1724 470 l 1,40,-1
 968 470 l 1,41,-1
 968 436 l 1,42,43
 978 306 978 306 1054 210 c 128,-1,44
 1130 114 1130 114 1266 114 c 0,45,46
 1366 114 1366 114 1439 163 c 128,-1,47
 1512 212 1512 212 1550 286 c 1,48,-1
 1704 236 l 1,49,50
 1650 116 1650 116 1539 41 c 128,-1,51
 1428 -34 1428 -34 1264 -34 c 0,52,53
 1128 -34 1128 -34 1025 34 c 128,-1,54
 922 102 922 102 866 220 c 1,55,56
 716 -34 716 -34 448 -34 c 0,57,58
 278 -34 278 -34 178 49 c 128,-1,59
 78 132 78 132 78 270 c 0,19,20
EndSplineSet
EndChar

StartChar: eth
Encoding: 240 240 178
Width: 1120
GlyphClass: 2
Flags: W
LayerCount: 2
Fore
SplineSet
78 470 m 0,0,1
 78 708 78 708 210 847 c 128,-1,2
 342 986 342 986 550 986 c 0,3,4
 650 986 650 986 726 943 c 128,-1,5
 802 900 802 900 834 842 c 1,6,7
 784 1080 784 1080 638 1220 c 1,8,-1
 406 1052 l 1,9,-1
 302 1168 l 1,10,-1
 506 1316 l 1,11,12
 406 1370 406 1370 286 1390 c 1,13,-1
 346 1534 l 1,14,15
 458 1516 458 1516 556 1476 c 0,16,17
 606 1456 606 1456 654 1424 c 1,18,-1
 860 1574 l 1,19,-1
 964 1456 l 1,20,-1
 782 1324 l 1,21,22
 848 1258 848 1258 900 1174 c 0,23,24
 964 1064 964 1064 1002 901 c 128,-1,25
 1040 738 1040 738 1040 536 c 0,26,27
 1040 282 1040 282 912 124 c 128,-1,28
 784 -34 784 -34 552 -34 c 0,29,30
 336 -34 336 -34 207 109 c 128,-1,31
 78 252 78 252 78 470 c 0,0,1
264 478 m 0,32,33
 264 318 264 318 342 218 c 128,-1,34
 420 118 420 118 556 118 c 0,35,36
 686 118 686 118 764 216 c 128,-1,37
 842 314 842 314 842 480 c 0,38,39
 842 638 842 638 764 734 c 128,-1,40
 686 830 686 830 558 830 c 256,41,42
 430 830 430 830 347 737 c 128,-1,43
 264 644 264 644 264 478 c 0,32,33
EndSplineSet
EndChar

StartChar: divide
Encoding: 247 247 185
Width: 1116
GlyphClass: 2
Flags: W
LayerCount: 2
Fore
SplineSet
436 986 m 1,0,-1
 436 1220 l 1,1,-1
 676 1220 l 1,2,-1
 676 986 l 1,3,-1
 436 986 l 1,0,-1
54 648 m 1,4,-1
 54 808 l 1,5,-1
 1060 808 l 1,6,-1
 1060 648 l 1,7,-1
 54 648 l 1,4,-1
436 234 m 1,8,-1
 436 468 l 1,9,-1
 676 468 l 1,10,-1
 676 234 l 1,11,-1
 436 234 l 1,8,-1
EndSplineSet
EndChar

StartChar: oslash
Encoding: 248 248 186
Width: 1122
GlyphClass: 2
Flags: W
LayerCount: 2
Fore
SplineSet
78 530 m 0,0,1
 78 770 78 770 204 933 c 128,-1,2
 330 1096 330 1096 562 1096 c 0,3,4
 684 1096 684 1096 776 1048 c 1,5,-1
 848 1186 l 1,6,-1
 994 1186 l 1,7,-1
 882 972 l 1,8,9
 1042 816 1042 816 1042 530 c 0,10,11
 1042 430 1042 430 1016 335 c 128,-1,12
 990 240 990 240 937 155 c 128,-1,13
 884 70 884 70 787 18 c 128,-1,14
 690 -34 690 -34 562 -34 c 0,15,16
 452 -34 452 -34 360 6 c 1,17,-1
 296 -118 l 1,18,-1
 150 -118 l 1,19,-1
 252 78 l 1,20,21
 168 154 168 154 123 276 c 128,-1,22
 78 398 78 398 78 530 c 0,0,1
790 802 m 1,23,-1
 438 150 l 1,24,25
 498 118 498 118 562 118 c 0,26,27
 686 118 686 118 773 227 c 128,-1,28
 860 336 860 336 860 530 c 0,29,30
 860 694 860 694 790 802 c 1,23,-1
700 902 m 1,31,32
 636 944 636 944 562 944 c 0,33,34
 440 944 440 944 352 837 c 128,-1,35
 264 730 264 730 264 530 c 0,36,37
 264 354 264 354 342 242 c 1,38,-1
 700 902 l 1,31,32
EndSplineSet
EndChar

StartChar: thorn
Encoding: 254 254 192
Width: 1178
GlyphClass: 2
Flags: W
LayerCount: 2
Fore
SplineSet
342 532 m 0,0,1
 342 344 342 344 423 231 c 128,-1,2
 504 118 504 118 622 118 c 0,3,4
 758 118 758 118 837 228 c 128,-1,5
 916 338 916 338 916 532 c 0,6,7
 916 722 916 722 838 833 c 128,-1,8
 760 944 760 944 624 944 c 0,9,10
 508 944 508 944 425 830 c 128,-1,11
 342 716 342 716 342 532 c 0,0,1
168 -454 m 1,12,-1
 168 1524 l 1,13,-1
 346 1524 l 1,14,-1
 346 892 l 1,15,16
 376 980 376 980 464 1038 c 128,-1,17
 552 1096 552 1096 646 1096 c 0,18,19
 850 1096 850 1096 974 945 c 128,-1,20
 1098 794 1098 794 1098 532 c 0,21,22
 1098 388 1098 388 1059 275 c 128,-1,23
 1020 162 1020 162 953 96 c 128,-1,24
 886 30 886 30 808 -2 c 128,-1,25
 730 -34 730 -34 646 -34 c 0,26,27
 538 -34 538 -34 459 26 c 128,-1,28
 380 86 380 86 346 164 c 1,29,-1
 346 -454 l 1,30,-1
 168 -454 l 1,12,-1
EndSplineSet
EndChar

StartChar: dcroat
Encoding: 273 273 211
Width: 1170
GlyphClass: 2
Flags: W
LayerCount: 2
Fore
SplineSet
78 528 m 0,0,1
 78 792 78 792 206 940 c 128,-1,2
 334 1088 334 1088 526 1088 c 0,3,4
 634 1088 634 1088 715 1030 c 128,-1,5
 796 972 796 972 830 894 c 1,6,-1
 830 1224 l 1,7,-1
 406 1224 l 1,8,-1
 406 1360 l 1,9,-1
 830 1360 l 1,10,-1
 830 1524 l 1,11,-1
 1012 1524 l 1,12,-1
 1012 1360 l 1,13,-1
 1142 1360 l 1,14,-1
 1142 1224 l 1,15,-1
 1012 1224 l 1,16,-1
 1012 0 l 1,17,-1
 836 0 l 1,18,-1
 836 174 l 1,19,20
 794 80 794 80 714 23 c 128,-1,21
 634 -34 634 -34 526 -34 c 0,22,23
 342 -34 342 -34 210 108 c 128,-1,24
 78 250 78 250 78 528 c 0,0,1
264 528 m 0,25,26
 264 338 264 338 344 228 c 128,-1,27
 424 118 424 118 552 118 c 0,28,29
 674 118 674 118 754 230 c 128,-1,30
 834 342 834 342 834 528 c 0,31,32
 834 708 834 708 754 822 c 128,-1,33
 674 936 674 936 550 936 c 0,34,35
 422 936 422 936 343 824 c 128,-1,36
 264 712 264 712 264 528 c 0,25,26
EndSplineSet
EndChar

StartChar: uni0123
Encoding: 291 291 229
Width: 1142
GlyphClass: 2
Flags: W
LayerCount: 2
Fore
SplineSet
436 1254 m 1,0,-1
 606 1620 l 1,1,-1
 732 1620 l 1,2,-1
 640 1254 l 1,3,-1
 436 1254 l 1,0,-1
264 552 m 0,4,5
 264 368 264 368 341 263 c 128,-1,6
 418 158 418 158 538 158 c 0,7,8
 664 158 664 158 739 261 c 128,-1,9
 814 364 814 364 814 552 c 0,10,11
 814 736 814 736 738 840 c 128,-1,12
 662 944 662 944 540 944 c 0,13,14
 416 944 416 944 340 836 c 128,-1,15
 264 728 264 728 264 552 c 0,4,5
80 550 m 256,16,17
 80 794 80 794 203 945 c 128,-1,18
 326 1096 326 1096 516 1096 c 0,19,20
 634 1096 634 1096 708 1038 c 128,-1,21
 782 980 782 980 814 906 c 1,22,-1
 814 1062 l 1,23,-1
 992 1062 l 1,24,-1
 992 132 l 2,25,26
 992 -170 992 -170 881 -316 c 128,-1,27
 770 -462 770 -462 530 -462 c 0,28,29
 410 -462 410 -462 304 -412 c 128,-1,30
 198 -362 198 -362 130 -264 c 1,31,-1
 252 -182 l 1,32,33
 366 -314 366 -314 534 -314 c 0,34,35
 666 -314 666 -314 737 -217 c 128,-1,36
 808 -120 808 -120 812 40 c 0,37,38
 814 148 814 148 814 186 c 1,39,40
 776 106 776 106 700 56 c 128,-1,41
 624 6 624 6 522 6 c 0,42,43
 326 6 326 6 203 156 c 128,-1,44
 80 306 80 306 80 550 c 256,16,17
EndSplineSet
EndChar

StartChar: Hbar
Encoding: 294 294 232
Width: 1432
GlyphClass: 2
Flags: W
LayerCount: 2
Fore
SplineSet
28 1118 m 1,0,-1
 28 1264 l 1,1,-1
 190 1264 l 1,2,-1
 190 1470 l 1,3,-1
 378 1470 l 1,4,-1
 378 1264 l 1,5,-1
 1056 1264 l 1,6,-1
 1056 1470 l 1,7,-1
 1242 1470 l 1,8,-1
 1242 1264 l 1,9,-1
 1404 1264 l 1,10,-1
 1404 1118 l 1,11,-1
 1242 1118 l 1,12,-1
 1242 0 l 1,13,-1
 1056 0 l 1,14,-1
 1056 676 l 1,15,-1
 378 676 l 1,16,-1
 378 0 l 1,17,-1
 190 0 l 1,18,-1
 190 1118 l 1,19,-1
 28 1118 l 1,0,-1
1056 1118 m 1,20,-1
 378 1118 l 1,21,-1
 378 836 l 1,22,-1
 1056 836 l 1,23,-1
 1056 1118 l 1,20,-1
EndSplineSet
EndChar

StartChar: hbar
Encoding: 295 295 233
Width: 1132
GlyphClass: 2
Flags: W
LayerCount: 2
Fore
SplineSet
18 1228 m 1,0,-1
 18 1364 l 1,1,-1
 158 1364 l 1,2,-1
 158 1524 l 1,3,-1
 338 1524 l 1,4,-1
 338 1364 l 1,5,-1
 742 1364 l 1,6,-1
 742 1228 l 1,7,-1
 338 1228 l 1,8,-1
 338 878 l 1,9,-1
 340 878 l 1,10,11
 378 950 378 950 461 1006 c 128,-1,12
 544 1062 544 1062 648 1062 c 0,13,14
 708 1062 708 1062 763 1044 c 128,-1,15
 818 1026 818 1026 874 985 c 128,-1,16
 930 944 930 944 964 858 c 128,-1,17
 998 772 998 772 998 652 c 2,18,-1
 998 0 l 1,19,-1
 816 0 l 1,20,-1
 816 626 l 2,21,22
 816 910 816 910 612 910 c 0,23,24
 500 910 500 910 419 812 c 128,-1,25
 338 714 338 714 338 588 c 2,26,-1
 338 0 l 1,27,-1
 158 0 l 1,28,-1
 158 1228 l 1,29,-1
 18 1228 l 1,0,-1
EndSplineSet
EndChar

StartChar: dotlessi
Encoding: 305 305 243
Width: 502
GlyphClass: 2
Flags: W
LayerCount: 2
Fore
SplineSet
162 0 m 1,0,-1
 162 1062 l 1,1,-1
 342 1062 l 1,2,-1
 342 0 l 1,3,-1
 162 0 l 1,0,-1
EndSplineSet
EndChar

StartChar: kgreenlandic
Encoding: 312 312 250
Width: 1036
GlyphClass: 2
Flags: W
LayerCount: 2
Fore
SplineSet
158 0 m 1,0,-1
 158 1062 l 1,1,-1
 338 1062 l 1,2,-1
 338 620 l 1,3,-1
 342 620 l 1,4,-1
 808 1062 l 1,5,-1
 1038 1062 l 1,6,-1
 518 566 l 1,7,-1
 1052 0 l 1,8,-1
 832 0 l 1,9,-1
 400 438 l 1,10,-1
 338 374 l 1,11,-1
 338 0 l 1,12,-1
 158 0 l 1,0,-1
EndSplineSet
EndChar

StartChar: Lslash
Encoding: 321 321 259
Width: 1080
GlyphClass: 2
Flags: W
LayerCount: 2
Fore
SplineSet
378 688 m 1,0,-1
 378 158 l 1,1,-1
 1066 158 l 1,2,-1
 1066 0 l 1,3,-1
 190 0 l 1,4,-1
 190 570 l 1,5,-1
 -2 444 l 1,6,-1
 -86 578 l 1,7,-1
 190 760 l 1,8,-1
 190 1470 l 1,9,-1
 378 1470 l 1,10,-1
 378 874 l 1,11,-1
 580 1008 l 1,12,-1
 664 872 l 1,13,-1
 378 688 l 1,0,-1
EndSplineSet
EndChar

StartChar: lslash
Encoding: 322 322 260
Width: 516
GlyphClass: 2
Flags: W
LayerCount: 2
Fore
SplineSet
350 718 m 1,0,-1
 350 0 l 1,1,-1
 170 0 l 1,2,-1
 170 608 l 1,3,-1
 -14 492 l 1,4,-1
 -98 628 l 1,5,-1
 170 798 l 1,6,-1
 170 1524 l 1,7,-1
 350 1524 l 1,8,-1
 350 912 l 1,9,-1
 532 1024 l 1,10,-1
 614 886 l 1,11,-1
 350 718 l 1,0,-1
EndSplineSet
EndChar

StartChar: Eng
Encoding: 330 330 268
Width: 1442
GlyphClass: 2
Flags: W
LayerCount: 2
Fore
SplineSet
190 0 m 1,0,-1
 190 1470 l 1,1,-1
 396 1470 l 1,2,-1
 960 486 l 1,3,-1
 1076 272 l 1,4,-1
 1088 272 l 1,5,6
 1066 474 1066 474 1066 680 c 2,7,-1
 1066 1470 l 1,8,-1
 1252 1470 l 1,9,-1
 1252 22 l 2,10,11
 1252 -198 1252 -198 1162 -327 c 128,-1,12
 1072 -456 1072 -456 874 -456 c 0,13,14
 804 -456 804 -456 670 -440 c 1,15,-1
 670 -284 l 1,16,17
 756 -296 756 -296 840 -296 c 0,18,19
 954 -296 954 -296 998 -228 c 128,-1,20
 1042 -160 1042 -160 1046 -2 c 1,21,-1
 484 982 l 1,22,-1
 366 1196 l 1,23,-1
 356 1196 l 1,24,25
 378 1002 378 1002 378 824 c 2,26,-1
 378 0 l 1,27,-1
 190 0 l 1,0,-1
EndSplineSet
EndChar

StartChar: eng
Encoding: 331 331 269
Width: 1122
GlyphClass: 2
Flags: W
LayerCount: 2
Fore
SplineSet
146 0 m 1,0,-1
 146 1062 l 1,1,-1
 322 1062 l 1,2,-1
 322 898 l 1,3,-1
 324 898 l 1,4,5
 352 972 352 972 438 1034 c 128,-1,6
 524 1096 524 1096 646 1096 c 0,7,8
 798 1096 798 1096 893 1001 c 128,-1,9
 988 906 988 906 988 684 c 2,10,-1
 988 18 l 2,11,12
 988 -232 988 -232 887 -347 c 128,-1,13
 786 -462 786 -462 630 -462 c 0,14,15
 592 -462 592 -462 558 -458 c 128,-1,16
 524 -454 524 -454 489 -449 c 128,-1,17
 454 -444 454 -444 446 -442 c 1,18,-1
 446 -288 l 1,19,20
 544 -302 544 -302 604 -302 c 0,21,22
 710 -302 710 -302 759 -229 c 128,-1,23
 808 -156 808 -156 808 -4 c 2,24,-1
 808 656 l 2,25,26
 808 944 808 944 606 944 c 0,27,28
 494 944 494 944 411 851 c 128,-1,29
 328 758 328 758 328 628 c 2,30,-1
 328 0 l 1,31,-1
 146 0 l 1,0,-1
EndSplineSet
EndChar

StartChar: OE
Encoding: 338 338 276
Width: 1920
GlyphClass: 2
Flags: W
LayerCount: 2
Fore
SplineSet
94 734 m 0,0,1
 94 1082 94 1082 270 1293 c 128,-1,2
 446 1504 446 1504 728 1504 c 0,3,4
 842 1504 842 1504 936 1470 c 1,5,-1
 1830 1470 l 1,6,-1
 1830 1310 l 1,7,-1
 1116 1310 l 1,8,-1
 1116 840 l 1,9,-1
 1758 840 l 1,10,-1
 1758 682 l 1,11,-1
 1116 682 l 1,12,-1
 1116 158 l 1,13,-1
 1850 158 l 1,14,-1
 1850 0 l 1,15,-1
 940 0 l 1,16,17
 844 -34 844 -34 728 -34 c 0,18,19
 444 -34 444 -34 269 175 c 128,-1,20
 94 384 94 384 94 734 c 0,0,1
288 734 m 0,21,22
 288 454 288 454 409 290 c 128,-1,23
 530 126 530 126 728 126 c 0,24,25
 844 126 844 126 928 184 c 1,26,-1
 928 1282 l 1,27,28
 844 1344 844 1344 728 1344 c 0,29,30
 526 1344 526 1344 407 1178 c 128,-1,31
 288 1012 288 1012 288 734 c 0,21,22
EndSplineSet
EndChar

StartChar: uni0163
Encoding: 355 355 293
Width: 722
GlyphClass: 2
Flags: W
LayerCount: 2
Fore
SplineSet
36 910 m 1,0,-1
 36 1062 l 1,1,-1
 216 1062 l 1,2,-1
 216 1392 l 1,3,-1
 394 1392 l 1,4,-1
 394 1062 l 1,5,-1
 662 1062 l 1,6,-1
 662 910 l 1,7,-1
 394 910 l 1,8,-1
 394 322 l 2,9,10
 394 234 394 234 430 194 c 128,-1,11
 466 154 466 154 542 154 c 2,12,-1
 664 154 l 1,13,-1
 664 0 l 1,14,-1
 530 0 l 1,15,-1
 510 -76 l 1,16,17
 596 -90 596 -90 642 -135 c 128,-1,18
 688 -180 688 -180 688 -246 c 0,19,20
 688 -326 688 -326 622 -382 c 128,-1,21
 556 -438 556 -438 418 -438 c 0,22,23
 326 -438 326 -438 244 -416 c 1,24,-1
 244 -302 l 1,25,26
 328 -322 328 -322 414 -322 c 0,27,28
 544 -322 544 -322 544 -236 c 0,29,30
 544 -152 544 -152 332 -140 c 1,31,-1
 372 24 l 1,32,33
 216 86 216 86 216 306 c 2,34,-1
 216 910 l 1,35,-1
 36 910 l 1,0,-1
EndSplineSet
Substitution2: "'locl' Localized Forms in Latin lookup 3 subtable" uni021B
Substitution2: "'locl' Localized Forms in Latin lookup 2 subtable" uni021B
Substitution2: "'aalt' Access All Alternates lookup 0 subtable" uni021B
EndChar

StartChar: tbar
Encoding: 359 359 297
Width: 722
GlyphClass: 2
Flags: W
LayerCount: 2
Fore
SplineSet
36 910 m 1,0,-1
 36 1062 l 1,1,-1
 216 1062 l 1,2,-1
 216 1392 l 1,3,-1
 394 1392 l 1,4,-1
 394 1062 l 1,5,-1
 662 1062 l 1,6,-1
 662 910 l 1,7,-1
 394 910 l 1,8,-1
 394 710 l 1,9,-1
 670 710 l 1,10,-1
 670 560 l 1,11,-1
 394 560 l 1,12,-1
 394 322 l 2,13,14
 394 234 394 234 430 194 c 128,-1,15
 466 154 466 154 542 154 c 2,16,-1
 664 154 l 1,17,-1
 664 0 l 1,18,-1
 518 0 l 2,19,20
 216 0 216 0 216 306 c 2,21,-1
 216 560 l 1,22,-1
 16 560 l 1,23,-1
 16 710 l 1,24,-1
 216 710 l 1,25,-1
 216 910 l 1,26,-1
 36 910 l 1,0,-1
EndSplineSet
EndChar

StartChar: longs
Encoding: 383 383 321
Width: 612
GlyphClass: 2
Flags: W
LayerCount: 2
Fore
SplineSet
168 0 m 1,0,-1
 168 1206 l 2,1,2
 168 1364 168 1364 247 1443 c 128,-1,3
 326 1522 326 1522 466 1522 c 2,4,-1
 604 1522 l 1,5,-1
 604 1370 l 1,6,-1
 498 1370 l 2,7,8
 346 1370 346 1370 346 1184 c 2,9,-1
 346 0 l 1,10,-1
 168 0 l 1,0,-1
EndSplineSet
EndChar

StartChar: uni0180
Encoding: 384 384 322
Width: 1170
GlyphClass: 2
Flags: W
LayerCount: 2
Fore
SplineSet
336 530 m 0,0,1
 336 342 336 342 417 230 c 128,-1,2
 498 118 498 118 618 118 c 0,3,4
 748 118 748 118 827 229 c 128,-1,5
 906 340 906 340 906 530 c 0,6,7
 906 716 906 716 829 827 c 128,-1,8
 752 938 752 938 620 938 c 0,9,10
 498 938 498 938 417 826 c 128,-1,11
 336 714 336 714 336 530 c 0,0,1
24 1226 m 1,12,-1
 24 1366 l 1,13,-1
 158 1366 l 1,14,-1
 158 1524 l 1,15,-1
 340 1524 l 1,16,-1
 340 1366 l 1,17,-1
 742 1366 l 1,18,-1
 742 1226 l 1,19,-1
 340 1226 l 1,20,-1
 340 890 l 1,21,22
 370 966 370 966 452 1028 c 128,-1,23
 534 1090 534 1090 646 1090 c 0,24,25
 844 1090 844 1090 967 941 c 128,-1,26
 1090 792 1090 792 1090 530 c 0,27,28
 1090 386 1090 386 1049 272 c 128,-1,29
 1008 158 1008 158 941 93 c 128,-1,30
 874 28 874 28 799 -3 c 128,-1,31
 724 -34 724 -34 646 -34 c 0,32,33
 536 -34 536 -34 453 26 c 128,-1,34
 370 86 370 86 336 172 c 1,35,-1
 336 0 l 1,36,-1
 158 0 l 1,37,-1
 158 1226 l 1,38,-1
 24 1226 l 1,12,-1
EndSplineSet
EndChar

StartChar: uni0182
Encoding: 386 386 324
Width: 1312
GlyphClass: 2
Flags: W
LayerCount: 2
Fore
SplineSet
378 158 m 1,0,-1
 750 158 l 2,1,2
 874 158 874 158 955 225 c 128,-1,3
 1036 292 1036 292 1036 418 c 0,4,5
 1036 532 1036 532 956 608 c 128,-1,6
 876 684 876 684 744 684 c 2,7,-1
 378 684 l 1,8,-1
 378 158 l 1,0,-1
190 0 m 1,9,-1
 190 1470 l 1,10,-1
 1062 1470 l 1,11,-1
 1062 1310 l 1,12,-1
 378 1310 l 1,13,-1
 378 842 l 1,14,-1
 762 842 l 2,15,16
 980 842 980 842 1106 723 c 128,-1,17
 1232 604 1232 604 1232 418 c 0,18,19
 1232 238 1232 238 1108 119 c 128,-1,20
 984 0 984 0 778 0 c 2,21,-1
 190 0 l 1,9,-1
EndSplineSet
EndChar

StartChar: uni0183
Encoding: 387 387 325
Width: 1170
GlyphClass: 2
Flags: W
LayerCount: 2
Fore
SplineSet
336 532 m 0,0,1
 336 342 336 342 417 230 c 128,-1,2
 498 118 498 118 618 118 c 0,3,4
 746 118 746 118 826 228 c 128,-1,5
 906 338 906 338 906 532 c 0,6,7
 906 720 906 720 828 832 c 128,-1,8
 750 944 750 944 620 944 c 0,9,10
 498 944 498 944 417 831 c 128,-1,11
 336 718 336 718 336 532 c 0,0,1
158 0 m 1,12,-1
 158 1518 l 1,13,-1
 894 1518 l 1,14,-1
 894 1366 l 1,15,-1
 340 1366 l 1,16,-1
 340 896 l 1,17,18
 362 962 362 962 446 1029 c 128,-1,19
 530 1096 530 1096 646 1096 c 0,20,21
 844 1096 844 1096 967 945 c 128,-1,22
 1090 794 1090 794 1090 532 c 0,23,24
 1090 386 1090 386 1050 273 c 128,-1,25
 1010 160 1010 160 943 95 c 128,-1,26
 876 30 876 30 800 -2 c 128,-1,27
 724 -34 724 -34 646 -34 c 0,28,29
 536 -34 536 -34 452 27 c 128,-1,30
 368 88 368 88 336 172 c 1,31,-1
 336 0 l 1,32,-1
 158 0 l 1,12,-1
EndSplineSet
EndChar

StartChar: uni0184
Encoding: 388 388 326
Width: 1324
GlyphClass: 2
Flags: W
LayerCount: 2
Fore
SplineSet
26 1340 m 1,0,-1
 268 1470 l 1,1,-1
 378 1470 l 1,2,-1
 378 836 l 1,3,-1
 770 836 l 2,4,5
 990 836 990 836 1115 719 c 128,-1,6
 1240 602 1240 602 1240 418 c 0,7,8
 1240 248 1240 248 1122 124 c 128,-1,9
 1004 0 1004 0 802 0 c 2,10,-1
 190 0 l 1,11,-1
 190 1214 l 1,12,-1
 26 1340 l 1,0,-1
378 158 m 1,13,-1
 762 158 l 2,14,15
 882 158 882 158 965 225 c 128,-1,16
 1048 292 1048 292 1048 416 c 0,17,18
 1048 526 1048 526 971 602 c 128,-1,19
 894 678 894 678 760 678 c 2,20,-1
 378 678 l 1,21,-1
 378 158 l 1,13,-1
EndSplineSet
EndChar

StartChar: uni0185
Encoding: 389 389 327
Width: 1170
GlyphClass: 2
Flags: W
LayerCount: 2
Fore
SplineSet
6 1390 m 1,0,-1
 238 1524 l 1,1,-1
 340 1524 l 1,2,-1
 340 898 l 1,3,4
 380 994 380 994 469 1045 c 128,-1,5
 558 1096 558 1096 646 1096 c 0,6,7
 844 1096 844 1096 967 945 c 128,-1,8
 1090 794 1090 794 1090 532 c 0,9,10
 1090 388 1090 388 1051 275 c 128,-1,11
 1012 162 1012 162 946 96 c 128,-1,12
 880 30 880 30 803 -2 c 128,-1,13
 726 -34 726 -34 646 -34 c 0,14,15
 538 -34 538 -34 456 26 c 128,-1,16
 374 86 374 86 336 172 c 1,17,-1
 336 0 l 1,18,-1
 158 0 l 1,19,-1
 158 1264 l 1,20,-1
 6 1390 l 1,0,-1
336 532 m 0,21,22
 336 342 336 342 417 230 c 128,-1,23
 498 118 498 118 618 118 c 0,24,25
 746 118 746 118 826 229 c 128,-1,26
 906 340 906 340 906 532 c 0,27,28
 906 718 906 718 829 831 c 128,-1,29
 752 944 752 944 620 944 c 0,30,31
 498 944 498 944 417 831 c 128,-1,32
 336 718 336 718 336 532 c 0,21,22
EndSplineSet
EndChar

StartChar: uni0186
Encoding: 390 390 328
Width: 1308
GlyphClass: 2
Flags: W
LayerCount: 2
Fore
SplineSet
48 324 m 1,0,-1
 218 378 l 1,1,2
 264 272 264 272 358 200 c 128,-1,3
 452 128 452 128 580 128 c 0,4,5
 778 128 778 128 901 290 c 128,-1,6
 1024 452 1024 452 1024 734 c 0,7,8
 1024 1012 1024 1012 903 1178 c 128,-1,9
 782 1344 782 1344 580 1344 c 0,10,11
 376 1344 376 1344 246 1118 c 1,12,-1
 86 1172 l 1,13,14
 148 1310 148 1310 274 1407 c 128,-1,15
 400 1504 400 1504 578 1504 c 0,16,17
 862 1504 862 1504 1039 1297 c 128,-1,18
 1216 1090 1216 1090 1216 734 c 0,19,20
 1216 374 1216 374 1037 170 c 128,-1,21
 858 -34 858 -34 578 -34 c 0,22,23
 378 -34 378 -34 246 72 c 128,-1,24
 114 178 114 178 48 324 c 1,0,-1
EndSplineSet
EndChar

StartChar: uni018B
Encoding: 395 395 333
Width: 1312
GlyphClass: 2
Flags: W
LayerCount: 2
Fore
SplineSet
276 418 m 0,0,1
 276 294 276 294 356 226 c 128,-1,2
 436 158 436 158 558 158 c 2,3,-1
 934 158 l 1,4,-1
 934 684 l 1,5,-1
 572 684 l 2,6,7
 438 684 438 684 357 609 c 128,-1,8
 276 534 276 534 276 418 c 0,0,1
82 418 m 0,9,10
 82 604 82 604 208 723 c 128,-1,11
 334 842 334 842 552 842 c 2,12,-1
 934 842 l 1,13,-1
 934 1310 l 1,14,-1
 252 1310 l 1,15,-1
 252 1470 l 1,16,-1
 1122 1470 l 1,17,-1
 1122 0 l 1,18,-1
 530 0 l 2,19,20
 326 0 326 0 204 118 c 128,-1,21
 82 236 82 236 82 418 c 0,9,10
EndSplineSet
EndChar

StartChar: uni018C
Encoding: 396 396 334
Width: 1170
GlyphClass: 2
Flags: W
LayerCount: 2
Fore
SplineSet
264 532 m 0,0,1
 264 338 264 338 344 228 c 128,-1,2
 424 118 424 118 552 118 c 0,3,4
 674 118 674 118 754 231 c 128,-1,5
 834 344 834 344 834 532 c 0,6,7
 834 718 834 718 752 831 c 128,-1,8
 670 944 670 944 550 944 c 0,9,10
 420 944 420 944 342 833 c 128,-1,11
 264 722 264 722 264 532 c 0,0,1
78 532 m 0,12,13
 78 792 78 792 206 944 c 128,-1,14
 334 1096 334 1096 528 1096 c 0,15,16
 646 1096 646 1096 725 1031 c 128,-1,17
 804 966 804 966 830 900 c 1,18,-1
 830 1372 l 1,19,-1
 266 1372 l 1,20,-1
 266 1524 l 1,21,-1
 1012 1524 l 1,22,-1
 1012 0 l 1,23,-1
 836 0 l 1,24,-1
 836 172 l 1,25,26
 800 88 800 88 718 27 c 128,-1,27
 636 -34 636 -34 524 -34 c 0,28,29
 346 -34 346 -34 212 108 c 128,-1,30
 78 250 78 250 78 532 c 0,12,13
EndSplineSet
EndChar

StartChar: uni018D
Encoding: 397 397 335
Width: 1220
GlyphClass: 2
Flags: W
LayerCount: 2
Fore
SplineSet
264 636 m 0,0,1
 264 508 264 508 371 402 c 128,-1,2
 478 296 478 296 622 236 c 1,3,4
 768 304 768 304 863 411 c 128,-1,5
 958 518 958 518 958 636 c 0,6,7
 958 764 958 764 869 854 c 128,-1,8
 780 944 780 944 618 944 c 0,9,10
 460 944 460 944 362 858 c 128,-1,11
 264 772 264 772 264 636 c 0,0,1
78 630 m 0,12,13
 78 850 78 850 225 973 c 128,-1,14
 372 1096 372 1096 620 1096 c 0,15,16
 864 1096 864 1096 1003 967 c 128,-1,17
 1142 838 1142 838 1142 642 c 0,18,19
 1142 508 1142 508 1044 376 c 128,-1,20
 946 244 946 244 774 158 c 1,21,22
 998 30 998 30 998 -128 c 0,23,24
 998 -272 998 -272 883 -359 c 128,-1,25
 768 -446 768 -446 576 -446 c 0,26,27
 272 -446 272 -446 128 -208 c 1,28,-1
 260 -130 l 1,29,30
 306 -194 306 -194 388 -242 c 128,-1,31
 470 -290 470 -290 574 -290 c 0,32,33
 676 -290 676 -290 745 -246 c 128,-1,34
 814 -202 814 -202 814 -130 c 0,35,36
 814 -106 814 -106 804 -84 c 128,-1,37
 794 -62 794 -62 768 -40 c 128,-1,38
 742 -18 742 -18 719 0 c 128,-1,39
 696 18 696 18 650 43 c 128,-1,40
 604 68 604 68 492 124 c 0,41,42
 78 332 78 332 78 630 c 0,12,13
EndSplineSet
EndChar

StartChar: uni018E
Encoding: 398 398 336
Width: 1214
GlyphClass: 2
Flags: W
LayerCount: 2
Fore
SplineSet
76 0 m 1,0,-1
 76 158 l 1,1,-1
 838 158 l 1,2,-1
 838 682 l 1,3,-1
 162 682 l 1,4,-1
 162 840 l 1,5,-1
 838 840 l 1,6,-1
 838 1310 l 1,7,-1
 86 1310 l 1,8,-1
 86 1470 l 1,9,-1
 1024 1470 l 1,10,-1
 1024 0 l 1,11,-1
 76 0 l 1,0,-1
EndSplineSet
EndChar

StartChar: uni018F
Encoding: 399 399 337
Width: 1404
GlyphClass: 2
Flags: W
LayerCount: 2
Fore
SplineSet
86 694 m 0,0,1
 86 746 86 746 90 814 c 1,2,-1
 1118 814 l 1,3,4
 1102 1064 1102 1064 989 1204 c 128,-1,5
 876 1344 876 1344 680 1344 c 0,6,7
 442 1344 442 1344 290 1126 c 1,8,-1
 132 1188 l 1,9,10
 210 1340 210 1340 354 1422 c 128,-1,11
 498 1504 498 1504 682 1504 c 0,12,13
 990 1504 990 1504 1153 1290 c 128,-1,14
 1316 1076 1316 1076 1316 732 c 0,15,16
 1316 378 1316 378 1140 172 c 128,-1,17
 964 -34 964 -34 688 -34 c 0,18,19
 402 -34 402 -34 244 173 c 128,-1,20
 86 380 86 380 86 694 c 0,0,1
284 654 m 1,21,22
 284 646 284 646 285 631 c 128,-1,23
 286 616 286 616 286 610 c 0,24,25
 288 520 288 520 313 438 c 128,-1,26
 338 356 338 356 383 283 c 128,-1,27
 428 210 428 210 508 168 c 128,-1,28
 588 126 588 126 692 126 c 0,29,30
 860 126 860 126 987 260 c 128,-1,31
 1114 394 1114 394 1120 654 c 1,32,-1
 284 654 l 1,21,22
EndSplineSet
EndChar

StartChar: uni0190
Encoding: 400 400 338
Width: 1212
GlyphClass: 2
Flags: W
LayerCount: 2
Fore
SplineSet
94 408 m 0,0,1
 94 556 94 556 185 651 c 128,-1,2
 276 746 276 746 392 778 c 1,3,4
 294 818 294 818 223 911 c 128,-1,5
 152 1004 152 1004 152 1126 c 0,6,7
 152 1292 152 1292 279 1398 c 128,-1,8
 406 1504 406 1504 618 1504 c 0,9,10
 726 1504 726 1504 814 1473 c 128,-1,11
 902 1442 902 1442 958 1390 c 128,-1,12
 1014 1338 1014 1338 1048 1287 c 128,-1,13
 1082 1236 1082 1236 1104 1182 c 1,14,-1
 946 1132 l 1,15,16
 832 1350 832 1350 628 1350 c 0,17,18
 502 1350 502 1350 422 1281 c 128,-1,19
 342 1212 342 1212 342 1106 c 0,20,21
 342 984 342 984 441 912 c 128,-1,22
 540 840 540 840 664 840 c 0,23,24
 756 840 756 840 800 844 c 1,25,-1
 800 690 l 1,26,27
 728 696 728 696 658 696 c 0,28,29
 508 696 508 696 398 621 c 128,-1,30
 288 546 288 546 288 412 c 0,31,32
 288 268 288 268 390 194 c 128,-1,33
 492 120 492 120 636 120 c 0,34,35
 740 120 740 120 841 179 c 128,-1,36
 942 238 942 238 990 326 c 1,37,-1
 1142 266 l 1,38,39
 1080 128 1080 128 942 47 c 128,-1,40
 804 -34 804 -34 628 -34 c 0,41,42
 394 -34 394 -34 244 84 c 128,-1,43
 94 202 94 202 94 408 c 0,0,1
EndSplineSet
EndChar

StartChar: uni0191
Encoding: 401 401 339
Width: 1128
GlyphClass: 2
Flags: W
LayerCount: 2
Fore
SplineSet
-76 -292 m 1,0,1
 -4 -302 -4 -302 24 -302 c 0,2,3
 112 -302 112 -302 151 -243 c 128,-1,4
 190 -184 190 -184 190 -54 c 2,5,-1
 190 1470 l 1,6,-1
 1098 1470 l 1,7,-1
 1098 1310 l 1,8,-1
 378 1310 l 1,9,-1
 378 816 l 1,10,-1
 1024 816 l 1,11,-1
 1024 660 l 1,12,-1
 378 660 l 1,13,-1
 378 -54 l 2,14,15
 378 -270 378 -270 287 -366 c 128,-1,16
 196 -462 196 -462 58 -462 c 0,17,18
 6 -462 6 -462 -76 -448 c 1,19,-1
 -76 -292 l 1,0,1
EndSplineSet
EndChar

StartChar: florin
Encoding: 402 402 340
Width: 678
GlyphClass: 2
Flags: W
LayerCount: 2
Fore
SplineSet
-54 -294 m 1,0,1
 -14 -302 -14 -302 46 -302 c 0,2,3
 222 -302 222 -302 222 -42 c 2,4,-1
 222 910 l 1,5,-1
 44 910 l 1,6,-1
 44 1062 l 1,7,-1
 222 1062 l 1,8,-1
 222 1208 l 2,9,10
 222 1366 222 1366 301 1445 c 128,-1,11
 380 1524 380 1524 520 1524 c 2,12,-1
 670 1524 l 1,13,-1
 670 1372 l 1,14,-1
 546 1372 l 2,15,16
 400 1372 400 1372 400 1192 c 2,17,-1
 400 1062 l 1,18,-1
 646 1062 l 1,19,-1
 646 910 l 1,20,-1
 400 910 l 1,21,-1
 400 -46 l 2,22,23
 400 -264 400 -264 311 -363 c 128,-1,24
 222 -462 222 -462 80 -462 c 0,25,26
 68 -462 68 -462 -54 -448 c 1,27,-1
 -54 -294 l 1,0,1
EndSplineSet
EndChar

StartChar: uni0194
Encoding: 404 404 342
Width: 1234
GlyphClass: 2
Flags: W
LayerCount: 2
Fore
SplineSet
-2 1470 m 1,0,-1
 202 1470 l 1,1,-1
 592 404 l 1,2,-1
 618 326 l 1,3,-1
 620 326 l 1,4,-1
 646 404 l 1,5,-1
 1030 1470 l 1,6,-1
 1234 1470 l 1,7,-1
 762 236 l 1,8,9
 938 14 938 14 938 -150 c 0,10,11
 938 -282 938 -282 849 -372 c 128,-1,12
 760 -462 760 -462 618 -462 c 256,13,14
 476 -462 476 -462 384 -376 c 128,-1,15
 292 -290 292 -290 292 -150 c 0,16,17
 292 -82 292 -82 327 -3 c 128,-1,18
 362 76 362 76 392 120 c 128,-1,19
 422 164 422 164 476 236 c 1,20,-1
 -2 1470 l 1,0,-1
482 -144 m 0,21,22
 482 -216 482 -216 519 -263 c 128,-1,23
 556 -310 556 -310 618 -310 c 256,24,25
 680 -310 680 -310 717 -262 c 128,-1,26
 754 -214 754 -214 754 -144 c 0,27,28
 754 -20 754 -20 616 136 c 1,29,30
 482 -12 482 -12 482 -144 c 0,21,22
EndSplineSet
EndChar

StartChar: uni0195
Encoding: 405 405 343
Width: 1782
GlyphClass: 2
Flags: W
LayerCount: 2
Fore
SplineSet
158 0 m 1,0,-1
 158 1524 l 1,1,-1
 340 1524 l 1,2,-1
 340 914 l 1,3,-1
 342 914 l 1,4,5
 386 994 386 994 469 1045 c 128,-1,6
 552 1096 552 1096 650 1096 c 0,7,8
 714 1096 714 1096 771 1079 c 128,-1,9
 828 1062 828 1062 882 1019 c 128,-1,10
 936 976 936 976 967 891 c 128,-1,11
 998 806 998 806 998 684 c 2,12,-1
 998 364 l 2,13,14
 998 118 998 118 1234 118 c 0,15,16
 1464 118 1464 118 1464 370 c 2,17,-1
 1464 1062 l 1,18,-1
 1648 1062 l 1,19,-1
 1648 342 l 2,20,21
 1648 156 1648 156 1535 61 c 128,-1,22
 1422 -34 1422 -34 1234 -34 c 0,23,24
 1056 -34 1056 -34 937 50 c 128,-1,25
 818 134 818 134 818 332 c 2,26,-1
 818 658 l 2,27,28
 818 944 818 944 616 944 c 0,29,30
 502 944 502 944 421 849 c 128,-1,31
 340 754 340 754 340 628 c 0,32,33
 340 626 340 626 340 622 c 2,34,-1
 340 0 l 1,35,-1
 158 0 l 1,0,-1
EndSplineSet
EndChar

StartChar: uni0196
Encoding: 406 406 344
Width: 702
GlyphClass: 2
Flags: W
LayerCount: 2
Fore
SplineSet
190 324 m 2,0,-1
 190 1470 l 1,1,-1
 378 1470 l 1,2,-1
 378 330 l 2,3,4
 378 222 378 222 412 174 c 128,-1,5
 446 126 446 126 526 126 c 0,6,7
 600 126 600 126 672 136 c 1,8,-1
 672 -20 l 1,9,10
 544 -34 544 -34 494 -34 c 0,11,12
 356 -34 356 -34 273 51 c 128,-1,13
 190 136 190 136 190 324 c 2,0,-1
EndSplineSet
EndChar

StartChar: uni0197
Encoding: 407 407 345
Width: 566
GlyphClass: 2
Flags: W
LayerCount: 2
Fore
SplineSet
42 672 m 1,0,-1
 42 818 l 1,1,-1
 190 818 l 1,2,-1
 190 1470 l 1,3,-1
 378 1470 l 1,4,-1
 378 818 l 1,5,-1
 526 818 l 1,6,-1
 526 672 l 1,7,-1
 378 672 l 1,8,-1
 378 0 l 1,9,-1
 190 0 l 1,10,-1
 190 672 l 1,11,-1
 42 672 l 1,0,-1
EndSplineSet
EndChar

StartChar: uni0198
Encoding: 408 408 346
Width: 1284
GlyphClass: 2
Flags: W
LayerCount: 2
Fore
SplineSet
190 0 m 1,0,-1
 190 1470 l 1,1,-1
 378 1470 l 1,2,-1
 378 732 l 1,3,-1
 382 732 l 1,4,-1
 942 1382 l 2,5,6
 1050 1504 1050 1504 1220 1504 c 0,7,8
 1304 1504 1304 1504 1376 1486 c 1,9,-1
 1376 1326 l 1,10,11
 1304 1344 1304 1344 1230 1344 c 0,12,13
 1148 1344 1148 1344 1104 1290 c 2,14,-1
 698 832 l 1,15,-1
 1286 0 l 1,16,-1
 1054 0 l 1,17,-1
 580 698 l 1,18,-1
 378 470 l 1,19,-1
 378 0 l 1,20,-1
 190 0 l 1,0,-1
EndSplineSet
EndChar

StartChar: uni0199
Encoding: 409 409 347
Width: 1028
GlyphClass: 2
Flags: W
LayerCount: 2
Fore
SplineSet
162 0 m 1,0,-1
 162 1226 l 2,1,2
 162 1382 162 1382 255 1465 c 128,-1,3
 348 1548 348 1548 502 1548 c 0,4,5
 560 1548 560 1548 660 1542 c 1,6,-1
 660 1384 l 1,7,8
 570 1392 570 1392 536 1392 c 0,9,10
 450 1392 450 1392 396 1339 c 128,-1,11
 342 1286 342 1286 342 1192 c 2,12,-1
 342 566 l 1,13,-1
 774 1062 l 1,14,-1
 1008 1062 l 1,15,-1
 622 636 l 1,16,-1
 1044 0 l 1,17,-1
 828 0 l 1,18,-1
 508 508 l 1,19,-1
 342 324 l 1,20,-1
 342 0 l 1,21,-1
 162 0 l 1,0,-1
EndSplineSet
EndChar

StartChar: uni019A
Encoding: 410 410 348
Width: 516
GlyphClass: 2
Flags: W
LayerCount: 2
Fore
SplineSet
8 744 m 1,0,-1
 8 890 l 1,1,-1
 170 890 l 1,2,-1
 170 1524 l 1,3,-1
 350 1524 l 1,4,-1
 350 890 l 1,5,-1
 512 890 l 1,6,-1
 512 744 l 1,7,-1
 350 744 l 1,8,-1
 350 0 l 1,9,-1
 170 0 l 1,10,-1
 170 744 l 1,11,-1
 8 744 l 1,0,-1
EndSplineSet
EndChar

StartChar: uni019B
Encoding: 411 411 349
Width: 1004
GlyphClass: 2
Flags: W
LayerCount: 2
Fore
SplineSet
14 0 m 1,0,-1
 422 1062 l 1,1,-1
 394 1144 l 1,2,-1
 160 972 l 1,3,-1
 74 1084 l 1,4,-1
 334 1268 l 1,5,6
 278 1364 278 1364 158 1364 c 2,7,-1
 120 1364 l 1,8,-1
 120 1514 l 1,9,-1
 186 1514 l 2,10,11
 366 1514 366 1514 468 1364 c 1,12,-1
 660 1506 l 1,13,-1
 748 1394 l 1,14,-1
 534 1240 l 1,15,-1
 542 1222 l 1,16,-1
 990 0 l 1,17,-1
 788 0 l 1,18,-1
 596 594 l 2,19,20
 596 596 596 596 561 700 c 128,-1,21
 526 804 526 804 512 854 c 1,22,-1
 504 854 l 1,23,24
 476 752 476 752 424 594 c 2,25,-1
 218 0 l 1,26,-1
 14 0 l 1,0,-1
EndSplineSet
EndChar

StartChar: uni019C
Encoding: 412 412 350
Width: 1918
GlyphClass: 2
Flags: W
LayerCount: 2
Fore
SplineSet
190 458 m 2,0,-1
 190 1470 l 1,1,-1
 376 1470 l 1,2,-1
 376 444 l 2,3,4
 376 124 376 124 580 124 c 0,5,6
 700 124 700 124 783 233 c 128,-1,7
 866 342 866 342 866 498 c 2,8,-1
 866 1470 l 1,9,-1
 1054 1470 l 1,10,-1
 1054 438 l 2,11,12
 1054 282 1054 282 1110 204 c 128,-1,13
 1166 126 1166 126 1262 126 c 0,14,15
 1388 126 1388 126 1466 229 c 128,-1,16
 1544 332 1544 332 1544 494 c 2,17,-1
 1544 1470 l 1,18,-1
 1730 1470 l 1,19,-1
 1730 0 l 1,20,-1
 1550 0 l 1,21,-1
 1550 164 l 1,22,-1
 1548 164 l 1,23,24
 1516 84 1516 84 1427 25 c 128,-1,25
 1338 -34 1338 -34 1222 -34 c 0,26,27
 978 -34 978 -34 914 196 c 1,28,29
 882 108 882 108 784 37 c 128,-1,30
 686 -34 686 -34 540 -34 c 0,31,32
 190 -34 190 -34 190 458 c 2,0,-1
EndSplineSet
EndChar

StartChar: uni019D
Encoding: 413 413 351
Width: 1442
GlyphClass: 2
Flags: W
LayerCount: 2
Fore
SplineSet
190 1470 m 1,0,-1
 396 1470 l 1,1,-1
 960 486 l 1,2,-1
 1076 272 l 1,3,-1
 1086 272 l 1,4,5
 1064 472 1064 472 1064 690 c 2,6,-1
 1064 1470 l 1,7,-1
 1250 1470 l 1,8,-1
 1250 0 l 1,9,-1
 1044 0 l 1,10,-1
 486 976 l 1,11,-1
 366 1196 l 1,12,-1
 356 1196 l 1,13,14
 378 988 378 988 378 778 c 2,15,-1
 378 -24 l 2,16,17
 378 -248 378 -248 288 -354 c 128,-1,18
 198 -460 198 -460 50 -460 c 0,19,20
 -12 -460 -12 -460 -66 -448 c 1,21,-1
 -66 -294 l 1,22,23
 -42 -300 -42 -300 16 -300 c 0,24,25
 116 -300 116 -300 153 -232 c 128,-1,26
 190 -164 190 -164 190 -22 c 2,27,-1
 190 1470 l 1,0,-1
EndSplineSet
EndChar

StartChar: uni019E
Encoding: 414 414 352
Width: 1144
GlyphClass: 2
Flags: W
LayerCount: 2
Fore
SplineSet
146 0 m 1,0,-1
 146 1062 l 1,1,-1
 322 1062 l 1,2,-1
 322 900 l 1,3,-1
 324 900 l 1,4,5
 362 982 362 982 444 1039 c 128,-1,6
 526 1096 526 1096 646 1096 c 0,7,8
 796 1096 796 1096 892 1001 c 128,-1,9
 988 906 988 906 988 684 c 2,10,-1
 988 -454 l 1,11,-1
 808 -454 l 1,12,-1
 808 658 l 2,13,14
 808 944 808 944 606 944 c 0,15,16
 494 944 494 944 411 851 c 128,-1,17
 328 758 328 758 328 628 c 2,18,-1
 328 0 l 1,19,-1
 146 0 l 1,0,-1
EndSplineSet
EndChar

StartChar: uni019F
Encoding: 415 415 353
Width: 1424
GlyphClass: 2
Flags: W
LayerCount: 2
Fore
SplineSet
94 734 m 0,0,1
 94 1080 94 1080 263 1292 c 128,-1,2
 432 1504 432 1504 712 1504 c 0,3,4
 996 1504 996 1504 1164 1292 c 128,-1,5
 1332 1080 1332 1080 1332 732 c 0,6,7
 1332 382 1332 382 1162 174 c 128,-1,8
 992 -34 992 -34 712 -34 c 256,9,10
 432 -34 432 -34 263 175 c 128,-1,11
 94 384 94 384 94 734 c 0,0,1
1134 656 m 1,12,-1
 288 656 l 1,13,14
 304 410 304 410 417 269 c 128,-1,15
 530 128 530 128 712 128 c 256,16,17
 894 128 894 128 1008 267 c 128,-1,18
 1122 406 1122 406 1134 656 c 1,12,-1
288 804 m 1,19,-1
 1134 804 l 1,20,21
 1120 1052 1120 1052 1010 1198 c 128,-1,22
 900 1344 900 1344 712 1344 c 0,23,24
 528 1344 528 1344 416 1200 c 128,-1,25
 304 1056 304 1056 288 804 c 1,19,-1
EndSplineSet
EndChar

StartChar: uni01A2
Encoding: 418 418 356
Width: 1946
GlyphClass: 2
Flags: W
LayerCount: 2
Fore
SplineSet
94 726 m 0,0,1
 94 1084 94 1084 265 1294 c 128,-1,2
 436 1504 436 1504 702 1504 c 0,3,4
 794 1504 794 1504 988 1464 c 128,-1,5
 1182 1424 1182 1424 1322 1424 c 0,6,7
 1474 1424 1474 1424 1758 1470 c 1,8,-1
 1758 0 l 1,9,-1
 1572 0 l 1,10,-1
 1572 1286 l 1,11,12
 1466 1266 1466 1266 1320 1266 c 0,13,14
 1218 1266 1218 1266 1092 1286 c 1,15,-1
 1092 114 l 1,16,17
 934 -34 934 -34 702 -34 c 0,18,19
 434 -34 434 -34 264 175 c 128,-1,20
 94 384 94 384 94 726 c 0,0,1
288 726 m 0,21,22
 288 448 288 448 405 287 c 128,-1,23
 522 126 522 126 702 126 c 0,24,25
 806 126 806 126 904 186 c 1,26,-1
 904 1310 l 1,27,28
 892 1314 892 1314 863 1323 c 128,-1,29
 834 1332 834 1332 820 1335 c 128,-1,30
 806 1338 806 1338 773 1342 c 128,-1,31
 740 1346 740 1346 702 1346 c 0,32,33
 524 1346 524 1346 406 1184 c 128,-1,34
 288 1022 288 1022 288 726 c 0,21,22
EndSplineSet
EndChar

StartChar: uni01A3
Encoding: 419 419 357
Width: 1572
GlyphClass: 2
Flags: W
LayerCount: 2
Fore
SplineSet
78 530 m 256,0,1
 78 798 78 798 210 947 c 128,-1,2
 342 1096 342 1096 564 1096 c 0,3,4
 654 1096 654 1096 813 1066 c 128,-1,5
 972 1036 972 1036 1080 1036 c 0,6,7
 1256 1036 1256 1036 1428 1070 c 1,8,-1
 1428 0 l 1,9,-1
 1248 0 l 1,10,-1
 1248 894 l 1,11,12
 1186 884 1186 884 1078 884 c 0,13,14
 966 884 966 884 918 892 c 1,15,-1
 918 130 l 1,16,17
 792 -34 792 -34 564 -34 c 0,18,19
 346 -34 346 -34 212 114 c 128,-1,20
 78 262 78 262 78 530 c 256,0,1
264 530 m 0,21,22
 264 340 264 340 347 229 c 128,-1,23
 430 118 430 118 564 118 c 0,24,25
 656 118 656 118 736 214 c 1,26,-1
 736 918 l 1,27,28
 610 944 610 944 564 944 c 0,29,30
 420 944 420 944 342 830 c 128,-1,31
 264 716 264 716 264 530 c 0,21,22
EndSplineSet
EndChar

StartChar: uni01A5
Encoding: 421 421 359
Width: 1170
GlyphClass: 2
Flags: W
LayerCount: 2
Fore
SplineSet
338 532 m 0,0,1
 338 340 338 340 415 229 c 128,-1,2
 492 118 492 118 618 118 c 0,3,4
 746 118 746 118 827 230 c 128,-1,5
 908 342 908 342 908 532 c 0,6,7
 908 718 908 718 829 831 c 128,-1,8
 750 944 750 944 618 944 c 0,9,10
 498 944 498 944 418 831 c 128,-1,11
 338 718 338 718 338 532 c 0,0,1
158 -454 m 1,12,-1
 158 1210 l 2,13,14
 158 1376 158 1376 255 1456 c 128,-1,15
 352 1536 352 1536 496 1536 c 0,16,17
 548 1536 548 1536 652 1528 c 1,18,-1
 652 1372 l 1,19,20
 590 1378 590 1378 524 1378 c 0,21,22
 434 1378 434 1378 385 1321 c 128,-1,23
 336 1264 336 1264 336 1180 c 2,24,-1
 336 888 l 1,25,26
 364 964 364 964 447 1030 c 128,-1,27
 530 1096 530 1096 646 1096 c 0,28,29
 838 1096 838 1096 964 943 c 128,-1,30
 1090 790 1090 790 1090 532 c 0,31,32
 1090 386 1090 386 1050 272 c 128,-1,33
 1010 158 1010 158 942 93 c 128,-1,34
 874 28 874 28 799 -3 c 128,-1,35
 724 -34 724 -34 644 -34 c 0,36,37
 528 -34 528 -34 450 25 c 128,-1,38
 372 84 372 84 340 164 c 1,39,-1
 340 -454 l 1,40,-1
 158 -454 l 1,12,-1
EndSplineSet
EndChar

StartChar: uni01A6
Encoding: 422 422 360
Width: 1260
GlyphClass: 2
Flags: W
LayerCount: 2
Fore
SplineSet
354 608 m 1,0,-1
 664 608 l 2,1,2
 788 608 788 608 869 668 c 128,-1,3
 950 728 950 728 950 866 c 0,4,5
 950 1102 950 1102 668 1102 c 2,6,-1
 354 1102 l 1,7,-1
 354 608 l 1,0,-1
168 0 m 1,8,-1
 168 1470 l 1,9,-1
 354 1470 l 1,10,-1
 354 1260 l 1,11,-1
 708 1260 l 2,12,13
 922 1260 922 1260 1031 1152 c 128,-1,14
 1140 1044 1140 1044 1140 880 c 0,15,16
 1140 790 1140 790 1111 721 c 128,-1,17
 1082 652 1082 652 1028 610 c 128,-1,18
 974 568 974 568 945 553 c 128,-1,19
 916 538 916 538 866 518 c 1,20,21
 944 474 944 474 977 418 c 128,-1,22
 1010 362 1010 362 1038 258 c 0,23,24
 1040 250 1040 250 1051 216 c 128,-1,25
 1062 182 1062 182 1065 172 c 128,-1,26
 1068 162 1068 162 1077 130 c 128,-1,27
 1086 98 1086 98 1092 84 c 128,-1,28
 1098 70 1098 70 1109 40 c 128,-1,29
 1120 10 1120 10 1129 -9 c 128,-1,30
 1138 -28 1138 -28 1150 -56 c 128,-1,31
 1162 -84 1162 -84 1176 -110 c 128,-1,32
 1190 -136 1190 -136 1206 -164 c 1,33,-1
 998 -164 l 1,34,35
 972 -116 972 -116 945 -55 c 128,-1,36
 918 6 918 6 906 41 c 128,-1,37
 894 76 894 76 868 157 c 128,-1,38
 842 238 842 238 836 256 c 0,39,40
 804 358 804 358 758 405 c 128,-1,41
 712 452 712 452 622 452 c 2,42,-1
 354 452 l 1,43,-1
 354 0 l 1,44,-1
 168 0 l 1,8,-1
EndSplineSet
EndChar

StartChar: uni01A7
Encoding: 423 423 361
Width: 1208
GlyphClass: 2
Flags: W
LayerCount: 2
Fore
SplineSet
74 390 m 0,0,1
 74 482 74 482 108 552 c 128,-1,2
 142 622 142 622 209 670 c 128,-1,3
 276 718 276 718 340 748 c 128,-1,4
 404 778 404 778 498 810 c 0,5,6
 716 880 716 880 782 920 c 0,7,8
 906 996 906 996 906 1114 c 0,9,10
 906 1220 906 1220 825 1282 c 128,-1,11
 744 1344 744 1344 604 1344 c 0,12,13
 396 1344 396 1344 260 1164 c 1,14,-1
 100 1218 l 1,15,16
 164 1338 164 1338 294 1421 c 128,-1,17
 424 1504 424 1504 600 1504 c 0,18,19
 824 1504 824 1504 962 1397 c 128,-1,20
 1100 1290 1100 1290 1100 1114 c 0,21,22
 1100 1068 1100 1068 1089 1026 c 128,-1,23
 1078 984 1078 984 1066 953 c 128,-1,24
 1054 922 1054 922 1023 891 c 128,-1,25
 992 860 992 860 974 840 c 128,-1,26
 956 820 956 820 909 796 c 128,-1,27
 862 772 862 772 843 762 c 128,-1,28
 824 752 824 752 766 730 c 128,-1,29
 708 708 708 708 693 704 c 128,-1,30
 678 700 678 700 614 678 c 0,31,32
 526 648 526 648 481 628 c 128,-1,33
 436 608 436 608 377 574 c 128,-1,34
 318 540 318 540 292 493 c 128,-1,35
 266 446 266 446 266 384 c 0,36,37
 266 266 266 266 356 196 c 128,-1,38
 446 126 446 126 588 126 c 0,39,40
 706 126 706 126 813 187 c 128,-1,41
 920 248 920 248 976 342 c 1,42,-1
 1140 284 l 1,43,44
 1070 140 1070 140 925 53 c 128,-1,45
 780 -34 780 -34 594 -34 c 0,46,47
 360 -34 360 -34 217 77 c 128,-1,48
 74 188 74 188 74 390 c 0,0,1
EndSplineSet
EndChar

StartChar: uni01A8
Encoding: 424 424 362
Width: 980
GlyphClass: 2
Flags: W
LayerCount: 2
Fore
SplineSet
66 272 m 0,0,1
 66 338 66 338 97 390 c 128,-1,2
 128 442 128 442 186 479 c 128,-1,3
 244 516 244 516 294 537 c 128,-1,4
 344 558 344 558 420 584 c 0,5,6
 490 604 490 604 525 618 c 128,-1,7
 560 632 560 632 608 657 c 128,-1,8
 656 682 656 682 679 715 c 128,-1,9
 702 748 702 748 702 790 c 0,10,11
 702 862 702 862 644 903 c 128,-1,12
 586 944 586 944 482 944 c 0,13,14
 308 944 308 944 202 784 c 1,15,-1
 80 862 l 1,16,17
 132 960 132 960 242 1028 c 128,-1,18
 352 1096 352 1096 486 1096 c 0,19,20
 658 1096 658 1096 771 1014 c 128,-1,21
 884 932 884 932 884 790 c 0,22,23
 884 734 884 734 864 689 c 128,-1,24
 844 644 844 644 815 613 c 128,-1,25
 786 582 786 582 738 555 c 128,-1,26
 690 528 690 528 652 513 c 128,-1,27
 614 498 614 498 558 480 c 0,28,29
 544 474 544 474 497 460 c 128,-1,30
 450 446 450 446 432 439 c 128,-1,31
 414 432 414 432 377 417 c 128,-1,32
 340 402 340 402 323 390 c 128,-1,33
 306 378 306 378 285 360 c 128,-1,34
 264 342 264 342 256 320 c 128,-1,35
 248 298 248 298 248 272 c 0,36,37
 248 198 248 198 310 158 c 128,-1,38
 372 118 372 118 480 118 c 0,39,40
 572 118 572 118 652 163 c 128,-1,41
 732 208 732 208 786 290 c 1,42,-1
 918 214 l 1,43,44
 858 104 858 104 744 35 c 128,-1,45
 630 -34 630 -34 480 -34 c 0,46,47
 282 -34 282 -34 174 55 c 128,-1,48
 66 144 66 144 66 272 c 0,0,1
EndSplineSet
EndChar

StartChar: uni01A9
Encoding: 425 425 363
Width: 1234
GlyphClass: 2
Flags: W
LayerCount: 2
Fore
SplineSet
164 0 m 1,0,-1
 164 126 l 1,1,-1
 700 738 l 1,2,-1
 164 1344 l 1,3,-1
 164 1470 l 1,4,-1
 1102 1470 l 1,5,-1
 1102 1308 l 1,6,-1
 424 1308 l 1,7,-1
 914 738 l 1,8,-1
 424 158 l 1,9,-1
 1116 158 l 1,10,-1
 1116 0 l 1,11,-1
 164 0 l 1,0,-1
EndSplineSet
EndChar

StartChar: uni01AA
Encoding: 426 426 364
Width: 874
GlyphClass: 2
Flags: W
LayerCount: 2
Fore
SplineSet
72 1212 m 0,0,1
 72 1144 72 1144 116 1107 c 128,-1,2
 160 1070 160 1070 222 1070 c 0,3,4
 330 1070 330 1070 394 1128 c 1,5,6
 394 1224 394 1224 355 1290 c 128,-1,7
 316 1356 316 1356 226 1356 c 0,8,9
 162 1356 162 1356 117 1315 c 128,-1,10
 72 1274 72 1274 72 1212 c 0,0,1
-104 1204 m 0,11,12
 -104 1340 -104 1340 -11 1422 c 128,-1,13
 82 1504 82 1504 226 1504 c 0,14,15
 394 1504 394 1504 483 1400 c 128,-1,16
 572 1296 572 1296 572 1116 c 2,17,-1
 572 -118 l 2,18,19
 572 -210 572 -210 608 -256 c 128,-1,20
 644 -302 644 -302 728 -302 c 0,21,22
 754 -302 754 -302 852 -290 c 1,23,-1
 852 -446 l 1,24,25
 838 -448 838 -448 808 -452 c 128,-1,26
 778 -456 778 -456 749 -459 c 128,-1,27
 720 -462 720 -462 694 -462 c 0,28,29
 552 -462 552 -462 471 -380 c 128,-1,30
 390 -298 390 -298 390 -130 c 2,31,-1
 390 972 l 1,32,33
 332 920 332 920 194 920 c 0,34,35
 66 920 66 920 -19 999 c 128,-1,36
 -104 1078 -104 1078 -104 1204 c 0,11,12
EndSplineSet
EndChar

StartChar: uni01AB
Encoding: 427 427 365
Width: 722
GlyphClass: 2
Flags: W
LayerCount: 2
Fore
SplineSet
36 910 m 1,0,-1
 36 1062 l 1,1,-1
 216 1062 l 1,2,-1
 216 1392 l 1,3,-1
 394 1392 l 1,4,-1
 394 1062 l 1,5,-1
 662 1062 l 1,6,-1
 662 910 l 1,7,-1
 394 910 l 1,8,-1
 394 322 l 2,9,10
 394 234 394 234 430 194 c 128,-1,11
 466 154 466 154 542 154 c 0,12,13
 644 154 644 154 702 164 c 1,14,-1
 702 -26 l 2,15,16
 702 -242 702 -242 618 -352 c 128,-1,17
 534 -462 534 -462 376 -462 c 0,18,19
 332 -462 332 -462 250 -448 c 1,20,-1
 250 -292 l 1,21,22
 318 -302 318 -302 356 -302 c 0,23,24
 528 -302 528 -302 528 -54 c 2,25,-1
 528 2 l 1,26,27
 446 8 446 8 412 16 c 0,28,29
 216 60 216 60 216 306 c 2,30,-1
 216 910 l 1,31,-1
 36 910 l 1,0,-1
EndSplineSet
EndChar

StartChar: uni01AC
Encoding: 428 428 366
Width: 1184
GlyphClass: 2
Flags: W
LayerCount: 2
Fore
SplineSet
-54 1178 m 0,0,1
 -54 1328 -54 1328 47 1399 c 128,-1,2
 148 1470 148 1470 326 1470 c 2,3,-1
 1168 1470 l 1,4,-1
 1168 1308 l 1,5,-1
 728 1308 l 1,6,-1
 728 0 l 1,7,-1
 540 0 l 1,8,-1
 540 1308 l 1,9,-1
 328 1308 l 2,10,11
 114 1308 114 1308 114 1164 c 0,12,13
 114 1140 114 1140 124 1086 c 1,14,-1
 -42 1086 l 1,15,16
 -54 1144 -54 1144 -54 1178 c 0,0,1
EndSplineSet
EndChar

StartChar: uni01AD
Encoding: 429 429 367
Width: 722
GlyphClass: 2
Flags: W
LayerCount: 2
Fore
SplineSet
36 910 m 1,0,-1
 36 1062 l 1,1,-1
 216 1062 l 1,2,-1
 216 1208 l 2,3,4
 216 1364 216 1364 309 1449 c 128,-1,5
 402 1534 402 1534 556 1534 c 0,6,7
 588 1534 588 1534 712 1524 c 1,8,-1
 712 1368 l 1,9,10
 658 1374 658 1374 590 1374 c 0,11,12
 500 1374 500 1374 447 1324 c 128,-1,13
 394 1274 394 1274 394 1184 c 2,14,-1
 394 1062 l 1,15,-1
 662 1062 l 1,16,-1
 662 910 l 1,17,-1
 394 910 l 1,18,-1
 394 322 l 2,19,20
 394 234 394 234 430 194 c 128,-1,21
 466 154 466 154 542 154 c 2,22,-1
 664 154 l 1,23,-1
 664 0 l 1,24,-1
 518 0 l 2,25,26
 216 0 216 0 216 306 c 2,27,-1
 216 910 l 1,28,-1
 36 910 l 1,0,-1
EndSplineSet
EndChar

StartChar: uni01AE
Encoding: 430 430 368
Width: 1106
GlyphClass: 2
Flags: W
LayerCount: 2
Fore
SplineSet
24 1308 m 1,0,-1
 24 1470 l 1,1,-1
 1088 1470 l 1,2,-1
 1088 1308 l 1,3,-1
 650 1308 l 1,4,-1
 650 -84 l 2,5,6
 650 -200 650 -200 688 -251 c 128,-1,7
 726 -302 726 -302 814 -302 c 0,8,9
 834 -302 834 -302 912 -292 c 1,10,-1
 912 -448 l 1,11,12
 798 -462 798 -462 778 -462 c 0,13,14
 462 -462 462 -462 462 -84 c 2,15,-1
 462 1308 l 1,16,-1
 24 1308 l 1,0,-1
EndSplineSet
EndChar

StartChar: uni01B1
Encoding: 433 433 371
Width: 1486
GlyphClass: 2
Flags: W
LayerCount: 2
Fore
SplineSet
94 608 m 0,0,1
 94 826 94 826 206 972 c 128,-1,2
 318 1118 318 1118 506 1190 c 1,3,-1
 506 1308 l 1,4,-1
 112 1308 l 1,5,-1
 112 1470 l 1,6,-1
 652 1470 l 1,7,-1
 652 1088 l 1,8,9
 472 1036 472 1036 380 907 c 128,-1,10
 288 778 288 778 288 608 c 0,11,12
 288 402 288 402 414 266 c 128,-1,13
 540 130 540 130 744 130 c 0,14,15
 946 130 946 130 1072 266 c 128,-1,16
 1198 402 1198 402 1198 608 c 0,17,18
 1198 776 1198 776 1108 906 c 128,-1,19
 1018 1036 1018 1036 836 1088 c 1,20,-1
 836 1470 l 1,21,-1
 1374 1470 l 1,22,-1
 1374 1308 l 1,23,-1
 978 1308 l 1,24,-1
 978 1190 l 1,25,26
 1168 1122 1168 1122 1280 974 c 128,-1,27
 1392 826 1392 826 1392 608 c 0,28,29
 1392 332 1392 332 1219 149 c 128,-1,30
 1046 -34 1046 -34 744 -34 c 256,31,32
 442 -34 442 -34 268 149 c 128,-1,33
 94 332 94 332 94 608 c 0,0,1
EndSplineSet
EndChar

StartChar: uni01B2
Encoding: 434 434 372
Width: 1440
GlyphClass: 2
Flags: W
LayerCount: 2
Fore
SplineSet
188 498 m 2,0,-1
 188 1470 l 1,1,-1
 376 1470 l 1,2,-1
 376 512 l 2,3,4
 376 298 376 298 455 212 c 128,-1,5
 534 126 534 126 688 126 c 0,6,7
 880 126 880 126 1014 323 c 128,-1,8
 1148 520 1148 520 1148 830 c 0,9,10
 1148 1078 1148 1078 1079 1211 c 128,-1,11
 1010 1344 1010 1344 890 1344 c 0,12,13
 828 1344 828 1344 752 1324 c 1,14,-1
 752 1490 l 1,15,16
 840 1504 840 1504 918 1504 c 0,17,18
 1118 1504 1118 1504 1230 1335 c 128,-1,19
 1342 1166 1342 1166 1342 834 c 0,20,21
 1342 598 1342 598 1265 401 c 128,-1,22
 1188 204 1188 204 1037 85 c 128,-1,23
 886 -34 886 -34 688 -34 c 0,24,25
 434 -34 434 -34 311 95 c 128,-1,26
 188 224 188 224 188 498 c 2,0,-1
EndSplineSet
EndChar

StartChar: uni01B3
Encoding: 435 435 373
Width: 1208
GlyphClass: 2
Flags: W
LayerCount: 2
Fore
SplineSet
-6 1470 m 1,0,-1
 210 1470 l 1,1,-1
 472 994 l 2,2,3
 546 866 546 866 602 758 c 1,4,-1
 606 758 l 1,5,6
 650 844 650 844 736 994 c 2,7,-1
 918 1322 l 2,8,9
 1016 1504 1016 1504 1182 1504 c 0,10,11
 1220 1504 1220 1504 1288 1498 c 1,12,-1
 1288 1338 l 1,13,14
 1238 1346 1238 1346 1202 1346 c 0,15,16
 1144 1346 1144 1346 1072 1226 c 2,17,-1
 698 602 l 1,18,-1
 698 0 l 1,19,-1
 510 0 l 1,20,-1
 510 602 l 1,21,-1
 -6 1470 l 1,0,-1
EndSplineSet
EndChar

StartChar: uni01B4
Encoding: 436 436 374
Width: 1004
GlyphClass: 2
Flags: W
LayerCount: 2
Fore
SplineSet
16 1062 m 1,0,-1
 220 1062 l 1,1,-1
 424 466 l 2,2,3
 482 292 482 292 506 206 c 1,4,-1
 514 206 l 1,5,6
 564 368 564 368 598 466 c 2,7,-1
 748 926 l 2,8,9
 798 1086 798 1086 994 1086 c 0,10,11
 1028 1086 1028 1086 1112 1076 c 1,12,-1
 1112 918 l 1,13,14
 1068 928 1068 928 1028 928 c 0,15,16
 940 928 940 928 914 850 c 2,17,-1
 550 -146 l 2,18,19
 490 -312 490 -312 405 -383 c 128,-1,20
 320 -454 320 -454 200 -454 c 2,21,-1
 132 -454 l 1,22,-1
 132 -302 l 1,23,-1
 170 -302 l 2,24,25
 248 -302 248 -302 302 -252 c 128,-1,26
 356 -202 356 -202 394 -82 c 2,27,-1
 424 0 l 1,28,-1
 16 1062 l 1,0,-1
EndSplineSet
EndChar

StartChar: uni01B5
Encoding: 437 437 375
Width: 1214
GlyphClass: 2
Flags: W
LayerCount: 2
Fore
SplineSet
198 654 m 1,0,-1
 198 800 l 1,1,-1
 538 800 l 1,2,-1
 888 1310 l 1,3,-1
 144 1310 l 1,4,-1
 144 1470 l 1,5,-1
 1118 1470 l 1,6,-1
 1118 1330 l 1,7,-1
 754 800 l 1,8,-1
 996 800 l 1,9,-1
 996 654 l 1,10,-1
 648 654 l 1,11,-1
 310 158 l 1,12,-1
 1138 158 l 1,13,-1
 1138 0 l 1,14,-1
 80 0 l 1,15,-1
 80 136 l 1,16,-1
 434 654 l 1,17,-1
 198 654 l 1,0,-1
EndSplineSet
EndChar

StartChar: uni01B6
Encoding: 438 438 376
Width: 962
GlyphClass: 2
Flags: W
LayerCount: 2
Fore
SplineSet
58 0 m 1,0,-1
 58 122 l 1,1,-1
 320 468 l 1,2,-1
 132 468 l 1,3,-1
 132 614 l 1,4,-1
 432 614 l 1,5,-1
 654 910 l 1,6,-1
 108 910 l 1,7,-1
 108 1062 l 1,8,-1
 886 1062 l 1,9,-1
 886 948 l 1,10,-1
 636 614 l 1,11,-1
 820 614 l 1,12,-1
 820 468 l 1,13,-1
 524 468 l 1,14,-1
 288 152 l 1,15,-1
 906 152 l 1,16,-1
 906 0 l 1,17,-1
 58 0 l 1,0,-1
EndSplineSet
EndChar

StartChar: uni01B7
Encoding: 439 439 377
Width: 1384
GlyphClass: 2
Flags: W
LayerCount: 2
Fore
SplineSet
98 -74 m 1,0,-1
 258 -10 l 1,1,2
 302 -126 302 -126 405 -207 c 128,-1,3
 508 -288 508 -288 656 -288 c 0,4,5
 856 -288 856 -288 972 -163 c 128,-1,6
 1088 -38 1088 -38 1088 168 c 0,7,8
 1088 368 1088 368 958 486 c 128,-1,9
 828 604 828 604 584 604 c 2,10,-1
 416 604 l 1,11,-1
 416 754 l 1,12,-1
 906 1308 l 1,13,-1
 154 1308 l 1,14,-1
 154 1470 l 1,15,-1
 1188 1470 l 1,16,-1
 1188 1362 l 1,17,-1
 650 758 l 1,18,-1
 686 758 l 1,19,20
 962 734 962 734 1122 579 c 128,-1,21
 1282 424 1282 424 1282 168 c 0,22,23
 1282 -110 1282 -110 1108 -278 c 128,-1,24
 934 -446 934 -446 658 -446 c 0,25,26
 444 -446 444 -446 301 -339 c 128,-1,27
 158 -232 158 -232 98 -74 c 1,0,-1
EndSplineSet
EndChar

StartChar: uni01B8
Encoding: 440 440 378
Width: 1384
GlyphClass: 2
Flags: W
LayerCount: 2
Fore
SplineSet
102 168 m 0,0,1
 102 424 102 424 270 586 c 128,-1,2
 438 748 438 748 698 758 c 1,3,-1
 734 758 l 1,4,-1
 196 1362 l 1,5,-1
 196 1470 l 1,6,-1
 1230 1470 l 1,7,-1
 1230 1308 l 1,8,-1
 478 1308 l 1,9,-1
 968 754 l 1,10,-1
 968 604 l 1,11,-1
 802 604 l 2,12,13
 556 604 556 604 425 486 c 128,-1,14
 294 368 294 368 294 168 c 0,15,16
 294 -38 294 -38 411 -163 c 128,-1,17
 528 -288 528 -288 728 -288 c 0,18,19
 874 -288 874 -288 977 -207 c 128,-1,20
 1080 -126 1080 -126 1126 -10 c 1,21,-1
 1286 -74 l 1,22,23
 1226 -232 1226 -232 1083 -339 c 128,-1,24
 940 -446 940 -446 724 -446 c 0,25,26
 448 -446 448 -446 275 -278 c 128,-1,27
 102 -110 102 -110 102 168 c 0,0,1
EndSplineSet
EndChar

StartChar: uni01B9
Encoding: 441 441 379
Width: 1118
GlyphClass: 2
Flags: W
LayerCount: 2
Fore
SplineSet
90 24 m 0,0,1
 90 218 90 218 220 350 c 128,-1,2
 350 482 350 482 550 488 c 2,3,-1
 594 490 l 1,4,-1
 150 948 l 1,5,-1
 150 1062 l 1,6,-1
 978 1062 l 1,7,-1
 978 910 l 1,8,-1
 414 910 l 1,9,-1
 818 478 l 1,10,-1
 818 354 l 1,11,-1
 646 354 l 2,12,13
 468 354 468 354 372 263 c 128,-1,14
 276 172 276 172 276 24 c 0,15,16
 276 -120 276 -120 359 -214 c 128,-1,17
 442 -308 442 -308 582 -308 c 0,18,19
 688 -308 688 -308 764 -247 c 128,-1,20
 840 -186 840 -186 880 -88 c 1,21,-1
 1038 -132 l 1,22,23
 988 -280 988 -280 870 -371 c 128,-1,24
 752 -462 752 -462 576 -462 c 0,25,26
 358 -462 358 -462 224 -324 c 128,-1,27
 90 -186 90 -186 90 24 c 0,0,1
EndSplineSet
EndChar

StartChar: uni01BA
Encoding: 442 442 380
Width: 902
GlyphClass: 2
Flags: W
LayerCount: 2
Fore
SplineSet
84 -132 m 0,0,1
 84 -60 84 -60 137 2 c 128,-1,2
 190 64 190 64 266 106 c 128,-1,3
 342 148 342 148 419 188 c 128,-1,4
 496 228 496 228 549 274 c 128,-1,5
 602 320 602 320 602 370 c 0,6,7
 602 424 602 424 529 460 c 128,-1,8
 456 496 456 496 322 496 c 2,9,-1
 250 496 l 1,10,-1
 250 596 l 1,11,-1
 580 910 l 1,12,-1
 92 910 l 1,13,-1
 92 1062 l 1,14,-1
 812 1062 l 1,15,-1
 812 942 l 1,16,-1
 450 602 l 1,17,-1
 494 600 l 2,18,19
 628 594 628 594 706 538 c 128,-1,20
 784 482 784 482 784 378 c 0,21,22
 784 300 784 300 731 236 c 128,-1,23
 678 172 678 172 603 128 c 128,-1,24
 528 84 528 84 452 46 c 128,-1,25
 376 8 376 8 323 -35 c 128,-1,26
 270 -78 270 -78 270 -122 c 0,27,28
 270 -236 270 -236 434 -236 c 0,29,30
 514 -236 514 -236 638 -212 c 1,31,-1
 638 -366 l 1,32,33
 502 -388 502 -388 408 -388 c 0,34,35
 264 -388 264 -388 174 -321 c 128,-1,36
 84 -254 84 -254 84 -132 c 0,0,1
EndSplineSet
EndChar

StartChar: uni01BB
Encoding: 443 443 381
Width: 1106
GlyphClass: 2
Flags: W
LayerCount: 2
Fore
SplineSet
212 640 m 1,0,-1
 212 786 l 1,1,-1
 648 786 l 1,2,3
 788 934 788 934 788 1096 c 0,4,5
 788 1220 788 1220 719 1285 c 128,-1,6
 650 1350 650 1350 542 1350 c 0,7,8
 332 1350 332 1350 254 1080 c 1,9,-1
 94 1128 l 1,10,11
 132 1294 132 1294 248 1399 c 128,-1,12
 364 1504 364 1504 550 1504 c 0,13,14
 742 1504 742 1504 861 1394 c 128,-1,15
 980 1284 980 1284 980 1088 c 0,16,17
 980 930 980 930 866 786 c 1,18,-1
 1044 786 l 1,19,-1
 1044 640 l 1,20,-1
 740 640 l 1,21,22
 722 622 722 622 671 573 c 128,-1,23
 620 524 620 524 604 509 c 128,-1,24
 588 494 588 494 547 452 c 128,-1,25
 506 410 506 410 490 391 c 128,-1,26
 474 372 474 372 444 336 c 128,-1,27
 414 300 414 300 399 275 c 128,-1,28
 384 250 384 250 365 218 c 128,-1,29
 346 186 346 186 334 154 c 1,30,-1
 976 154 l 1,31,-1
 976 0 l 1,32,-1
 106 0 l 1,33,34
 106 150 106 150 207 300 c 128,-1,35
 308 450 308 450 498 640 c 1,36,-1
 212 640 l 1,0,-1
EndSplineSet
EndChar

StartChar: uni01BC
Encoding: 444 444 382
Width: 1138
GlyphClass: 2
Flags: W
LayerCount: 2
Fore
SplineSet
92 248 m 1,0,-1
 244 304 l 1,1,2
 330 120 330 120 542 120 c 0,3,4
 678 120 678 120 757 206 c 128,-1,5
 836 292 836 292 836 436 c 0,6,7
 836 566 836 566 742 661 c 128,-1,8
 648 756 648 756 456 756 c 0,9,10
 336 756 336 756 222 730 c 1,11,-1
 294 1310 l 1,12,-1
 194 1310 l 1,13,-1
 194 1470 l 1,14,-1
 956 1470 l 1,15,-1
 956 1308 l 1,16,-1
 468 1308 l 1,17,-1
 420 906 l 1,18,19
 452 910 452 910 526 910 c 0,20,21
 756 910 756 910 893 777 c 128,-1,22
 1030 644 1030 644 1030 438 c 0,23,24
 1030 236 1030 236 905 101 c 128,-1,25
 780 -34 780 -34 550 -34 c 0,26,27
 378 -34 378 -34 260 46 c 128,-1,28
 142 126 142 126 92 248 c 1,0,-1
EndSplineSet
EndChar

StartChar: uni01BD
Encoding: 445 445 383
Width: 938
GlyphClass: 2
Flags: W
LayerCount: 2
Fore
SplineSet
88 188 m 1,0,-1
 234 254 l 1,1,2
 264 192 264 192 320 155 c 128,-1,3
 376 118 376 118 442 118 c 0,4,5
 542 118 542 118 597 173 c 128,-1,6
 652 228 652 228 652 314 c 0,7,8
 652 404 652 404 578 468 c 128,-1,9
 504 532 504 532 384 532 c 0,10,11
 284 532 284 532 194 516 c 1,12,-1
 254 910 l 1,13,-1
 176 910 l 1,14,-1
 176 1062 l 1,15,-1
 770 1062 l 1,16,-1
 770 910 l 1,17,-1
 412 910 l 1,18,-1
 376 684 l 1,19,-1
 426 684 l 2,20,21
 608 684 608 684 721 581 c 128,-1,22
 834 478 834 478 834 322 c 0,23,24
 834 172 834 172 735 69 c 128,-1,25
 636 -34 636 -34 442 -34 c 0,26,27
 202 -34 202 -34 88 188 c 1,0,-1
EndSplineSet
EndChar

StartChar: uni01BE
Encoding: 446 446 384
Width: 872
GlyphClass: 2
Flags: W
LayerCount: 2
Fore
SplineSet
62 910 m 1,0,-1
 62 1062 l 1,1,-1
 214 1062 l 1,2,-1
 214 1384 l 1,3,-1
 394 1384 l 1,4,-1
 394 1062 l 1,5,-1
 646 1062 l 1,6,-1
 646 910 l 1,7,-1
 394 910 l 1,8,-1
 394 798 l 2,9,10
 394 728 394 728 433 675 c 128,-1,11
 472 622 472 622 529 586 c 128,-1,12
 586 550 586 550 643 511 c 128,-1,13
 700 472 700 472 739 411 c 128,-1,14
 778 350 778 350 778 270 c 0,15,16
 778 138 778 138 692 52 c 128,-1,17
 606 -34 606 -34 428 -34 c 0,18,19
 190 -34 190 -34 74 178 c 1,20,-1
 202 248 l 1,21,22
 294 118 294 118 420 118 c 0,23,24
 506 118 506 118 553 157 c 128,-1,25
 600 196 600 196 600 264 c 0,26,27
 600 314 600 314 560 355 c 128,-1,28
 520 396 520 396 463 430 c 128,-1,29
 406 464 406 464 349 506 c 128,-1,30
 292 548 292 548 253 617 c 128,-1,31
 214 686 214 686 214 778 c 2,32,-1
 214 910 l 1,33,-1
 62 910 l 1,0,-1
EndSplineSet
EndChar

StartChar: uni01BF
Encoding: 447 447 385
Width: 1152
GlyphClass: 2
Flags: W
LayerCount: 2
Fore
SplineSet
158 -454 m 1,0,-1
 158 1062 l 1,1,-1
 338 1062 l 1,2,-1
 338 972 l 1,3,4
 474 1096 474 1096 650 1096 c 0,5,6
 850 1096 850 1096 962 979 c 128,-1,7
 1074 862 1074 862 1074 666 c 0,8,9
 1074 108 1074 108 340 2 c 1,10,-1
 340 -454 l 1,11,-1
 158 -454 l 1,0,-1
340 150 m 1,12,13
 590 184 590 184 741 310 c 128,-1,14
 892 436 892 436 892 646 c 0,15,16
 892 796 892 796 818 870 c 128,-1,17
 744 944 744 944 626 944 c 0,18,19
 542 944 542 944 464 900 c 128,-1,20
 386 856 386 856 340 798 c 1,21,-1
 340 150 l 1,12,13
EndSplineSet
EndChar

StartChar: uni01C0
Encoding: 448 448 386
Width: 482
GlyphClass: 2
Flags: W
LayerCount: 2
Fore
SplineSet
160 -420 m 1,0,-1
 160 1634 l 1,1,-1
 324 1634 l 1,2,-1
 324 -420 l 1,3,-1
 160 -420 l 1,0,-1
EndSplineSet
EndChar

StartChar: uni01C1
Encoding: 449 449 387
Width: 832
GlyphClass: 2
Flags: W
LayerCount: 2
Fore
SplineSet
160 -420 m 1,0,-1
 160 1634 l 1,1,-1
 324 1634 l 1,2,-1
 324 -420 l 1,3,-1
 160 -420 l 1,0,-1
510 -420 m 1,4,-1
 510 1634 l 1,5,-1
 676 1634 l 1,6,-1
 676 -420 l 1,7,-1
 510 -420 l 1,4,-1
EndSplineSet
EndChar

StartChar: uni01C2
Encoding: 450 450 388
Width: 656
GlyphClass: 2
Flags: W
LayerCount: 2
Fore
SplineSet
36 836 m 1,0,-1
 36 964 l 1,1,-1
 248 964 l 1,2,-1
 248 1634 l 1,3,-1
 414 1634 l 1,4,-1
 414 964 l 1,5,-1
 620 964 l 1,6,-1
 620 836 l 1,7,-1
 414 836 l 1,8,-1
 414 532 l 1,9,-1
 620 532 l 1,10,-1
 620 404 l 1,11,-1
 414 404 l 1,12,-1
 414 -420 l 1,13,-1
 248 -420 l 1,14,-1
 248 404 l 1,15,-1
 36 404 l 1,16,-1
 36 532 l 1,17,-1
 248 532 l 1,18,-1
 248 836 l 1,19,-1
 36 836 l 1,0,-1
EndSplineSet
EndChar

StartChar: uni01DD
Encoding: 477 477 415
Width: 1110
GlyphClass: 2
Flags: W
LayerCount: 2
Fore
SplineSet
78 506 m 0,0,1
 78 564 78 564 78 592 c 1,2,-1
 850 592 l 1,3,4
 850 736 850 736 766 841 c 128,-1,5
 682 946 682 946 536 946 c 0,6,7
 436 946 436 946 362 898 c 128,-1,8
 288 850 288 850 250 776 c 1,9,-1
 100 826 l 1,10,11
 152 942 152 942 261 1019 c 128,-1,12
 370 1096 370 1096 540 1096 c 0,13,14
 764 1096 764 1096 898 937 c 128,-1,15
 1032 778 1032 778 1032 522 c 0,16,17
 1032 270 1032 270 896 118 c 128,-1,18
 760 -34 760 -34 548 -34 c 256,19,20
 336 -34 336 -34 207 117 c 128,-1,21
 78 268 78 268 78 506 c 0,0,1
258 458 m 1,22,23
 258 314 258 314 335 214 c 128,-1,24
 412 114 412 114 548 114 c 0,25,26
 678 114 678 114 760 214 c 128,-1,27
 842 314 842 314 850 458 c 1,28,-1
 258 458 l 1,22,23
EndSplineSet
EndChar

StartChar: uni01E4
Encoding: 484 484 422
Width: 1444
GlyphClass: 2
Flags: W
LayerCount: 2
Fore
SplineSet
94 734 m 0,0,1
 94 1070 94 1070 265 1287 c 128,-1,2
 436 1504 436 1504 744 1504 c 0,3,4
 934 1504 934 1504 1062 1403 c 128,-1,5
 1190 1302 1190 1302 1248 1180 c 1,6,-1
 1086 1126 l 1,7,8
 1056 1172 1056 1172 1035 1198 c 128,-1,9
 1014 1224 1014 1224 971 1264 c 128,-1,10
 928 1304 928 1304 871 1324 c 128,-1,11
 814 1344 814 1344 744 1344 c 0,12,13
 530 1344 530 1344 409 1178 c 128,-1,14
 288 1012 288 1012 288 734 c 0,15,16
 288 454 288 454 409 291 c 128,-1,17
 530 128 530 128 732 128 c 0,18,19
 854 128 854 128 944 187 c 128,-1,20
 1034 246 1034 246 1076 354 c 1,21,-1
 692 354 l 1,22,-1
 692 478 l 1,23,-1
 1112 478 l 1,24,25
 1118 518 1118 518 1118 554 c 2,26,-1
 1118 646 l 1,27,-1
 718 646 l 1,28,-1
 718 802 l 1,29,-1
 1298 802 l 1,30,-1
 1298 478 l 1,31,-1
 1430 478 l 1,32,-1
 1430 354 l 1,33,-1
 1298 354 l 1,34,-1
 1298 0 l 1,35,-1
 1164 0 l 1,36,-1
 1148 192 l 1,37,38
 1030 -34 1030 -34 732 -34 c 0,39,40
 448 -34 448 -34 271 173 c 128,-1,41
 94 380 94 380 94 734 c 0,0,1
EndSplineSet
EndChar

StartChar: uni01E5
Encoding: 485 485 423
Width: 1150
GlyphClass: 2
Flags: W
LayerCount: 2
Fore
SplineSet
80 566 m 0,0,1
 80 800 80 800 203 948 c 128,-1,2
 326 1096 326 1096 520 1096 c 0,3,4
 634 1096 634 1096 709 1037 c 128,-1,5
 784 978 784 978 814 906 c 1,6,-1
 814 1062 l 1,7,-1
 992 1062 l 1,8,-1
 992 160 l 2,9,10
 992 44 992 44 980 -42 c 1,11,-1
 1126 -42 l 1,12,-1
 1126 -156 l 1,13,-1
 958 -156 l 1,14,15
 912 -306 912 -306 811 -384 c 128,-1,16
 710 -462 710 -462 534 -462 c 0,17,18
 276 -462 276 -462 130 -264 c 1,19,-1
 252 -182 l 1,20,21
 360 -314 360 -314 538 -314 c 0,22,23
 702 -314 702 -314 770 -156 c 1,24,-1
 406 -156 l 1,25,-1
 406 -42 l 1,26,-1
 802 -42 l 1,27,28
 814 30 814 30 814 120 c 2,29,-1
 814 242 l 1,30,31
 776 164 776 164 698 113 c 128,-1,32
 620 62 620 62 520 62 c 0,33,34
 328 62 328 62 204 199 c 128,-1,35
 80 336 80 336 80 566 c 0,0,1
264 566 m 0,36,37
 264 398 264 398 343 306 c 128,-1,38
 422 214 422 214 536 214 c 0,39,40
 656 214 656 214 734 313 c 128,-1,41
 812 412 812 412 812 582 c 0,42,43
 812 746 812 746 735 845 c 128,-1,44
 658 944 658 944 542 944 c 0,45,46
 416 944 416 944 340 837 c 128,-1,47
 264 730 264 730 264 566 c 0,36,37
EndSplineSet
EndChar

StartChar: uni01EF
Encoding: 495 495 433
Width: 1118
GlyphClass: 2
Flags: W
LayerCount: 2
Fore
SplineSet
154 1574 m 1,0,-1
 336 1574 l 1,1,-1
 542 1354 l 1,2,-1
 752 1574 l 1,3,-1
 930 1574 l 1,4,-1
 620 1254 l 1,5,-1
 460 1254 l 1,6,-1
 154 1574 l 1,0,-1
80 -132 m 1,7,-1
 238 -88 l 1,8,9
 280 -186 280 -186 356 -247 c 128,-1,10
 432 -308 432 -308 538 -308 c 0,11,12
 678 -308 678 -308 761 -214 c 128,-1,13
 844 -120 844 -120 844 30 c 0,14,15
 844 174 844 174 748 264 c 128,-1,16
 652 354 652 354 474 354 c 2,17,-1
 300 354 l 1,18,-1
 300 478 l 1,19,-1
 706 910 l 1,20,-1
 140 910 l 1,21,-1
 140 1062 l 1,22,-1
 970 1062 l 1,23,-1
 970 948 l 1,24,-1
 526 488 l 1,25,-1
 616 482 l 1,26,27
 796 454 796 454 912 332 c 128,-1,28
 1028 210 1028 210 1028 30 c 0,29,30
 1028 -186 1028 -186 895 -324 c 128,-1,31
 762 -462 762 -462 544 -462 c 0,32,33
 368 -462 368 -462 250 -371 c 128,-1,34
 132 -280 132 -280 80 -132 c 1,7,-1
EndSplineSet
EndChar

StartChar: uni01F6
Encoding: 502 502 440
Width: 2022
GlyphClass: 2
Flags: W
LayerCount: 2
Fore
SplineSet
190 0 m 1,0,-1
 190 1470 l 1,1,-1
 378 1470 l 1,2,-1
 378 836 l 1,3,-1
 1030 836 l 1,4,-1
 1030 1470 l 1,5,-1
 1222 1470 l 1,6,-1
 1222 392 l 2,7,8
 1222 252 1222 252 1290 185 c 128,-1,9
 1358 118 1358 118 1468 118 c 0,10,11
 1568 118 1568 118 1636 188 c 128,-1,12
 1704 258 1704 258 1704 376 c 2,13,-1
 1704 1062 l 1,14,-1
 1888 1062 l 1,15,-1
 1888 354 l 2,16,17
 1888 166 1888 166 1766 66 c 128,-1,18
 1644 -34 1644 -34 1466 -34 c 0,19,20
 1348 -34 1348 -34 1255 0 c 128,-1,21
 1162 34 1162 34 1096 125 c 128,-1,22
 1030 216 1030 216 1030 354 c 2,23,-1
 1030 676 l 1,24,-1
 378 676 l 1,25,-1
 378 0 l 1,26,-1
 190 0 l 1,0,-1
EndSplineSet
EndChar

StartChar: uni01F7
Encoding: 503 503 441
Width: 1290
GlyphClass: 2
Flags: W
LayerCount: 2
Fore
SplineSet
190 -438 m 1,0,-1
 190 1470 l 1,1,-1
 378 1470 l 1,2,-1
 378 1320 l 1,3,4
 570 1504 570 1504 774 1504 c 0,5,6
 984 1504 984 1504 1093 1367 c 128,-1,7
 1202 1230 1202 1230 1202 986 c 0,8,9
 1202 838 1202 838 1147 700 c 128,-1,10
 1092 562 1092 562 1007 459 c 128,-1,11
 922 356 922 356 808 264 c 128,-1,12
 694 172 694 172 591 112 c 128,-1,13
 488 52 488 52 378 4 c 1,14,-1
 378 -438 l 1,15,-1
 190 -438 l 1,0,-1
378 182 m 1,16,17
 458 222 458 222 536 272 c 128,-1,18
 614 322 614 322 704 399 c 128,-1,19
 794 476 794 476 859 560 c 128,-1,20
 924 644 924 644 968 754 c 128,-1,21
 1012 864 1012 864 1012 978 c 0,22,23
 1012 1150 1012 1150 942 1248 c 128,-1,24
 872 1346 872 1346 736 1346 c 0,25,26
 642 1346 642 1346 541 1281 c 128,-1,27
 440 1216 440 1216 378 1130 c 1,28,-1
 378 182 l 1,16,17
EndSplineSet
EndChar

StartChar: Aringacute
Encoding: 506 506 444
Width: 1288
GlyphClass: 2
Flags: W
LayerCount: 2
Fore
SplineSet
-8 0 m 1,0,-1
 536 1470 l 1,1,-1
 756 1470 l 1,2,-1
 1296 0 l 1,3,-1
 1094 0 l 1,4,-1
 956 402 l 1,5,-1
 336 402 l 1,6,-1
 194 0 l 1,7,-1
 -8 0 l 1,0,-1
366 1736 m 0,8,9
 366 1842 366 1842 444 1918 c 0,10,11
 498 1968 498 1968 570 1984 c 1,12,-1
 722 2226 l 1,13,-1
 950 2226 l 1,14,-1
 732 1980 l 1,15,16
 794 1962 794 1962 840 1916 c 0,17,18
 918 1840 918 1840 918 1736 c 0,19,20
 918 1628 918 1628 839 1554 c 128,-1,21
 760 1480 760 1480 642 1480 c 0,22,23
 528 1480 528 1480 447 1554 c 128,-1,24
 366 1628 366 1628 366 1736 c 0,8,9
388 552 m 1,25,-1
 902 552 l 1,26,-1
 746 1010 l 2,27,28
 734 1044 734 1044 700 1146 c 128,-1,29
 666 1248 666 1248 652 1294 c 1,30,-1
 640 1294 l 1,31,32
 626 1252 626 1252 592 1152 c 128,-1,33
 558 1052 558 1052 546 1010 c 2,34,-1
 388 552 l 1,25,-1
494 1736 m 256,35,36
 494 1676 494 1676 536 1635 c 128,-1,37
 578 1594 578 1594 642 1594 c 256,38,39
 706 1594 706 1594 747 1633 c 128,-1,40
 788 1672 788 1672 788 1736 c 0,41,42
 788 1796 788 1796 748 1838 c 128,-1,43
 708 1880 708 1880 642 1880 c 256,44,45
 576 1880 576 1880 535 1838 c 128,-1,46
 494 1796 494 1796 494 1736 c 256,35,36
EndSplineSet
EndChar

StartChar: aringacute
Encoding: 507 507 445
Width: 1100
GlyphClass: 2
Flags: W
LayerCount: 2
Fore
SplineSet
78 266 m 0,0,1
 78 564 78 564 530 634 c 0,2,3
 726 664 726 664 786 684 c 1,4,-1
 786 744 l 2,5,6
 786 836 786 836 721 894 c 128,-1,7
 656 952 656 952 540 952 c 0,8,9
 446 952 446 952 361 909 c 128,-1,10
 276 866 276 866 218 794 c 1,11,-1
 104 890 l 1,12,13
 184 984 184 984 297 1040 c 128,-1,14
 410 1096 410 1096 536 1096 c 0,15,16
 966 1096 966 1096 966 672 c 2,17,-1
 966 0 l 1,18,-1
 792 0 l 1,19,-1
 792 160 l 1,20,21
 760 80 760 80 667 23 c 128,-1,22
 574 -34 574 -34 448 -34 c 0,23,24
 274 -34 274 -34 176 49 c 128,-1,25
 78 132 78 132 78 266 c 0,0,1
264 1452 m 0,26,27
 264 1558 264 1558 342 1634 c 0,28,29
 396 1684 396 1684 468 1700 c 1,30,-1
 620 1942 l 1,31,-1
 848 1942 l 1,32,-1
 630 1696 l 1,33,34
 690 1678 690 1678 736 1632 c 0,35,36
 814 1556 814 1556 814 1452 c 0,37,38
 814 1344 814 1344 735 1270 c 128,-1,39
 656 1196 656 1196 540 1196 c 0,40,41
 426 1196 426 1196 345 1270 c 128,-1,42
 264 1344 264 1344 264 1452 c 0,26,27
258 282 m 0,43,44
 258 212 258 212 316 164 c 128,-1,45
 374 116 374 116 472 116 c 0,46,47
 604 116 604 116 695 201 c 128,-1,48
 786 286 786 286 786 418 c 2,49,-1
 786 550 l 1,50,51
 708 530 708 530 536 502 c 0,52,53
 258 456 258 456 258 282 c 0,43,44
392 1452 m 256,54,55
 392 1392 392 1392 434 1351 c 128,-1,56
 476 1310 476 1310 540 1310 c 256,57,58
 604 1310 604 1310 645 1350 c 128,-1,59
 686 1390 686 1390 686 1452 c 0,60,61
 686 1512 686 1512 645 1555 c 128,-1,62
 604 1598 604 1598 540 1598 c 0,63,64
 474 1598 474 1598 433 1555 c 128,-1,65
 392 1512 392 1512 392 1452 c 256,54,55
EndSplineSet
EndChar

StartChar: uni021C
Encoding: 540 540 478
Width: 1148
GlyphClass: 2
Flags: W
LayerCount: 2
Fore
SplineSet
88 -250 m 1,0,1
 238 -282 238 -282 378 -282 c 0,2,3
 594 -282 594 -282 728 -166 c 128,-1,4
 862 -50 862 -50 862 148 c 0,5,6
 862 258 862 258 829 340 c 128,-1,7
 796 422 796 422 741 464 c 128,-1,8
 686 506 686 506 627 526 c 128,-1,9
 568 546 568 546 502 546 c 0,10,11
 412 546 412 546 294 500 c 1,12,-1
 294 664 l 1,13,-1
 492 710 l 2,14,15
 648 750 648 750 741 844 c 128,-1,16
 834 938 834 938 834 1070 c 0,17,18
 834 1194 834 1194 755 1268 c 128,-1,19
 676 1342 676 1342 532 1342 c 0,20,21
 340 1342 340 1342 242 1152 c 1,22,-1
 92 1222 l 1,23,24
 148 1348 148 1348 263 1426 c 128,-1,25
 378 1504 378 1504 532 1504 c 0,26,27
 776 1504 776 1504 903 1391 c 128,-1,28
 1030 1278 1030 1278 1030 1088 c 0,29,30
 1030 920 1030 920 936 805 c 128,-1,31
 842 690 842 690 718 642 c 1,32,-1
 718 640 l 1,33,34
 854 604 854 604 955 480 c 128,-1,35
 1056 356 1056 356 1056 146 c 0,36,37
 1056 -126 1056 -126 869 -286 c 128,-1,38
 682 -446 682 -446 380 -446 c 0,39,40
 238 -446 238 -446 88 -420 c 1,41,-1
 88 -250 l 1,0,1
EndSplineSet
EndChar

StartChar: uni021D
Encoding: 541 541 479
Width: 900
GlyphClass: 2
Flags: W
LayerCount: 2
Fore
SplineSet
80 -286 m 1,0,1
 186 -308 186 -308 298 -308 c 0,2,3
 446 -308 446 -308 537 -224 c 128,-1,4
 628 -140 628 -140 628 14 c 0,5,6
 628 152 628 152 554 231 c 128,-1,7
 480 310 480 310 380 310 c 0,8,9
 316 310 316 310 236 284 c 1,10,-1
 236 434 l 1,11,-1
 376 464 l 2,12,13
 488 492 488 492 550 568 c 128,-1,14
 612 644 612 644 612 738 c 0,15,16
 612 828 612 828 564 886 c 128,-1,17
 516 944 516 944 422 944 c 0,18,19
 288 944 288 944 226 804 c 1,20,-1
 86 864 l 1,21,22
 122 966 122 966 213 1031 c 128,-1,23
 304 1096 304 1096 432 1096 c 0,24,25
 604 1096 604 1096 698 996 c 128,-1,26
 792 896 792 896 792 762 c 0,27,28
 792 506 792 506 564 400 c 1,29,30
 660 370 660 370 736 271 c 128,-1,31
 812 172 812 172 812 20 c 0,32,33
 812 -210 812 -210 676 -335 c 128,-1,34
 540 -460 540 -460 300 -460 c 0,35,36
 212 -460 212 -460 80 -444 c 1,37,-1
 80 -286 l 1,0,1
EndSplineSet
EndChar

StartChar: uni0220
Encoding: 544 544 482
Width: 1422
GlyphClass: 2
Flags: W
LayerCount: 2
Fore
SplineSet
190 0 m 1,0,-1
 190 1470 l 1,1,-1
 370 1470 l 1,2,-1
 370 1292 l 1,3,-1
 372 1292 l 1,4,5
 406 1338 406 1338 452 1379 c 128,-1,6
 498 1420 498 1420 595 1462 c 128,-1,7
 692 1504 692 1504 800 1504 c 0,8,9
 1236 1504 1236 1504 1236 990 c 2,10,-1
 1236 -454 l 1,11,-1
 1048 -454 l 1,12,-1
 1048 972 l 2,13,14
 1048 1160 1048 1160 980 1252 c 128,-1,15
 912 1344 912 1344 756 1344 c 0,16,17
 616 1344 616 1344 497 1224 c 128,-1,18
 378 1104 378 1104 378 962 c 2,19,-1
 378 0 l 1,20,-1
 190 0 l 1,0,-1
EndSplineSet
EndChar

StartChar: uni0221
Encoding: 545 545 483
Width: 1502
GlyphClass: 2
Flags: W
LayerCount: 2
Fore
SplineSet
1038 -200 m 1,0,1
 1054 -252 1054 -252 1103 -286 c 128,-1,2
 1152 -320 1152 -320 1216 -320 c 0,3,4
 1270 -320 1270 -320 1302 -293 c 128,-1,5
 1334 -266 1334 -266 1334 -220 c 256,6,7
 1334 -174 1334 -174 1300 -142 c 128,-1,8
 1266 -110 1266 -110 1212 -110 c 0,9,10
 1110 -110 1110 -110 1038 -200 c 1,0,1
78 532 m 0,11,12
 78 794 78 794 206 945 c 128,-1,13
 334 1096 334 1096 528 1096 c 0,14,15
 638 1096 638 1096 717 1037 c 128,-1,16
 796 978 796 978 830 900 c 1,17,-1
 830 1524 l 1,18,-1
 1012 1524 l 1,19,-1
 1012 78 l 2,20,21
 1012 -26 1012 -26 1016 -42 c 1,22,23
 1096 34 1096 34 1218 34 c 0,24,25
 1350 34 1350 34 1424 -38 c 128,-1,26
 1498 -110 1498 -110 1498 -214 c 0,27,28
 1498 -324 1498 -324 1421 -393 c 128,-1,29
 1344 -462 1344 -462 1218 -462 c 0,30,31
 1058 -462 1058 -462 962 -334 c 1,32,33
 928 -388 928 -388 904 -454 c 1,34,-1
 756 -406 l 1,35,36
 806 -272 806 -272 862 -194 c 1,37,38
 834 -130 834 -130 834 26 c 2,39,-1
 834 172 l 1,40,41
 800 88 800 88 719 27 c 128,-1,42
 638 -34 638 -34 526 -34 c 0,43,44
 446 -34 446 -34 369 -3 c 128,-1,45
 292 28 292 28 226 93 c 128,-1,46
 160 158 160 158 119 272 c 128,-1,47
 78 386 78 386 78 532 c 0,11,12
264 532 m 0,48,49
 264 342 264 342 344 230 c 128,-1,50
 424 118 424 118 552 118 c 0,51,52
 670 118 670 118 752 230 c 128,-1,53
 834 342 834 342 834 532 c 0,54,55
 834 718 834 718 753 831 c 128,-1,56
 672 944 672 944 552 944 c 0,57,58
 420 944 420 944 342 832 c 128,-1,59
 264 720 264 720 264 532 c 0,48,49
EndSplineSet
EndChar

StartChar: uni0222
Encoding: 546 546 484
Width: 1382
GlyphClass: 2
Flags: W
LayerCount: 2
Fore
SplineSet
82 478 m 0,0,1
 82 624 82 624 168 745 c 128,-1,2
 254 866 254 866 396 932 c 1,3,4
 140 1036 140 1036 140 1308 c 0,5,6
 140 1402 140 1402 164 1470 c 1,7,-1
 346 1470 l 1,8,9
 336 1396 336 1396 336 1320 c 0,10,11
 336 1190 336 1190 432 1096 c 128,-1,12
 528 1002 528 1002 692 1002 c 0,13,14
 848 1002 848 1002 948 1094 c 128,-1,15
 1048 1186 1048 1186 1048 1320 c 0,16,17
 1048 1368 1048 1368 1034 1470 c 1,18,-1
 1218 1470 l 1,19,20
 1240 1406 1240 1406 1240 1308 c 0,21,22
 1240 1032 1240 1032 982 932 c 1,23,24
 1128 872 1128 872 1213 749 c 128,-1,25
 1298 626 1298 626 1298 478 c 0,26,27
 1298 384 1298 384 1263 295 c 128,-1,28
 1228 206 1228 206 1157 131 c 128,-1,29
 1086 56 1086 56 966 11 c 128,-1,30
 846 -34 846 -34 692 -34 c 0,31,32
 540 -34 540 -34 418 11 c 128,-1,33
 296 56 296 56 226 131 c 128,-1,34
 156 206 156 206 119 295 c 128,-1,35
 82 384 82 384 82 478 c 0,0,1
278 478 m 0,36,37
 278 320 278 320 393 223 c 128,-1,38
 508 126 508 126 692 126 c 0,39,40
 870 126 870 126 987 222 c 128,-1,41
 1104 318 1104 318 1104 478 c 0,42,43
 1104 632 1104 632 985 736 c 128,-1,44
 866 840 866 840 692 840 c 256,45,46
 518 840 518 840 398 739 c 128,-1,47
 278 638 278 638 278 478 c 0,36,37
EndSplineSet
EndChar

StartChar: uni0223
Encoding: 547 547 485
Width: 1114
GlyphClass: 2
Flags: W
LayerCount: 2
Fore
SplineSet
78 486 m 0,0,1
 78 658 78 658 157 784 c 128,-1,2
 236 910 236 910 352 956 c 1,3,4
 126 1048 126 1048 126 1332 c 0,5,6
 126 1430 126 1430 146 1498 c 1,7,-1
 324 1498 l 1,8,9
 308 1394 308 1394 308 1342 c 0,10,11
 308 1208 308 1208 370 1116 c 128,-1,12
 432 1024 432 1024 556 1024 c 0,13,14
 674 1024 674 1024 740 1115 c 128,-1,15
 806 1206 806 1206 806 1342 c 0,16,17
 806 1394 806 1394 788 1498 c 1,18,-1
 966 1498 l 1,19,20
 986 1432 986 1432 986 1332 c 0,21,22
 986 1184 986 1184 925 1089 c 128,-1,23
 864 994 864 994 760 956 c 1,24,25
 878 914 878 914 956 786 c 128,-1,26
 1034 658 1034 658 1034 486 c 0,27,28
 1034 350 1034 350 988 237 c 128,-1,29
 942 124 942 124 830 45 c 128,-1,30
 718 -34 718 -34 556 -34 c 0,31,32
 322 -34 322 -34 200 118 c 128,-1,33
 78 270 78 270 78 486 c 0,0,1
264 486 m 0,34,35
 264 324 264 324 345 222 c 128,-1,36
 426 120 426 120 556 120 c 0,37,38
 688 120 688 120 770 219 c 128,-1,39
 852 318 852 318 852 486 c 0,40,41
 852 650 852 650 768 759 c 128,-1,42
 684 868 684 868 556 868 c 0,43,44
 434 868 434 868 349 761 c 128,-1,45
 264 654 264 654 264 486 c 0,34,35
EndSplineSet
EndChar

StartChar: uni0224
Encoding: 548 548 486
Width: 1214
GlyphClass: 2
Flags: W
LayerCount: 2
Fore
SplineSet
80 0 m 1,0,-1
 80 136 l 1,1,-1
 888 1310 l 1,2,-1
 144 1310 l 1,3,-1
 144 1470 l 1,4,-1
 1118 1470 l 1,5,-1
 1118 1330 l 1,6,-1
 310 158 l 1,7,-1
 906 158 l 2,8,9
 1076 158 1076 158 1156 71 c 128,-1,10
 1236 -16 1236 -16 1236 -196 c 0,11,12
 1236 -326 1236 -326 1182 -454 c 1,13,-1
 1014 -454 l 1,14,15
 1070 -328 1070 -328 1070 -218 c 0,16,17
 1070 0 1070 0 854 0 c 2,18,-1
 80 0 l 1,0,-1
EndSplineSet
EndChar

StartChar: uni0225
Encoding: 549 549 487
Width: 956
GlyphClass: 2
Flags: W
LayerCount: 2
Fore
SplineSet
58 0 m 1,0,-1
 58 122 l 1,1,-1
 654 916 l 1,2,-1
 108 916 l 1,3,-1
 108 1068 l 1,4,-1
 886 1068 l 1,5,-1
 886 954 l 1,6,-1
 288 152 l 1,7,-1
 746 152 l 2,8,9
 900 152 900 152 976 69 c 128,-1,10
 1052 -14 1052 -14 1052 -190 c 0,11,12
 1052 -356 1052 -356 1012 -454 c 1,13,-1
 852 -454 l 1,14,15
 892 -352 892 -352 892 -220 c 0,16,17
 892 -108 892 -108 849 -54 c 128,-1,18
 806 0 806 0 702 0 c 2,19,-1
 58 0 l 1,0,-1
EndSplineSet
EndChar

StartChar: uni0234
Encoding: 564 564 502
Width: 818
GlyphClass: 2
Flags: W
LayerCount: 2
Fore
SplineSet
370 -198 m 1,0,1
 386 -250 386 -250 435 -285 c 128,-1,2
 484 -320 484 -320 546 -320 c 0,3,4
 600 -320 600 -320 632 -292 c 128,-1,5
 664 -264 664 -264 664 -220 c 0,6,7
 664 -172 664 -172 631 -141 c 128,-1,8
 598 -110 598 -110 544 -110 c 0,9,10
 442 -110 442 -110 370 -198 c 1,0,1
86 -406 m 1,11,12
 146 -252 146 -252 190 -194 c 1,13,14
 162 -126 162 -126 162 42 c 2,15,-1
 162 1524 l 1,16,-1
 342 1524 l 1,17,-1
 342 80 l 2,18,19
 342 -16 342 -16 346 -44 c 1,20,21
 426 34 426 34 548 34 c 0,22,23
 678 34 678 34 754 -38 c 128,-1,24
 830 -110 830 -110 830 -214 c 0,25,26
 830 -324 830 -324 753 -393 c 128,-1,27
 676 -462 676 -462 550 -462 c 0,28,29
 390 -462 390 -462 292 -334 c 1,30,31
 252 -400 252 -400 236 -454 c 1,32,-1
 86 -406 l 1,11,12
EndSplineSet
EndChar

StartChar: uni0235
Encoding: 565 565 503
Width: 1468
GlyphClass: 2
Flags: W
LayerCount: 2
Fore
SplineSet
1018 -198 m 1,0,1
 1032 -250 1032 -250 1081 -285 c 128,-1,2
 1130 -320 1130 -320 1192 -320 c 0,3,4
 1248 -320 1248 -320 1280 -292 c 128,-1,5
 1312 -264 1312 -264 1312 -220 c 256,6,7
 1312 -176 1312 -176 1279 -143 c 128,-1,8
 1246 -110 1246 -110 1188 -110 c 0,9,10
 1088 -110 1088 -110 1018 -198 c 1,0,1
146 0 m 1,11,-1
 146 1062 l 1,12,-1
 322 1062 l 1,13,-1
 322 896 l 1,14,-1
 324 896 l 1,15,16
 350 964 350 964 434 1030 c 128,-1,17
 518 1096 518 1096 646 1096 c 0,18,19
 796 1096 796 1096 892 1001 c 128,-1,20
 988 906 988 906 988 684 c 2,21,-1
 988 78 l 2,22,23
 988 -26 988 -26 992 -42 c 1,24,25
 1070 34 1070 34 1194 34 c 0,26,27
 1324 34 1324 34 1401 -37 c 128,-1,28
 1478 -108 1478 -108 1478 -214 c 0,29,30
 1478 -324 1478 -324 1400 -393 c 128,-1,31
 1322 -462 1322 -462 1194 -462 c 0,32,33
 1036 -462 1036 -462 940 -334 c 1,34,35
 896 -412 896 -412 880 -454 c 1,36,-1
 732 -406 l 1,37,38
 774 -286 774 -286 838 -194 c 1,39,40
 808 -124 808 -124 808 50 c 2,41,-1
 808 658 l 2,42,43
 808 944 808 944 606 944 c 0,44,45
 494 944 494 944 411 851 c 128,-1,46
 328 758 328 758 328 628 c 2,47,-1
 328 0 l 1,48,-1
 146 0 l 1,11,-1
EndSplineSet
EndChar

StartChar: uni0236
Encoding: 566 566 504
Width: 874
GlyphClass: 2
Flags: W
LayerCount: 2
Fore
SplineSet
424 -198 m 1,0,1
 440 -248 440 -248 489 -284 c 128,-1,2
 538 -320 538 -320 600 -320 c 0,3,4
 658 -320 658 -320 688 -291 c 128,-1,5
 718 -262 718 -262 718 -220 c 0,6,7
 718 -176 718 -176 687 -143 c 128,-1,8
 656 -110 656 -110 598 -110 c 0,9,10
 496 -110 496 -110 424 -198 c 1,0,1
36 910 m 1,11,-1
 36 1062 l 1,12,-1
 216 1062 l 1,13,-1
 216 1392 l 1,14,-1
 394 1392 l 1,15,-1
 394 1062 l 1,16,-1
 662 1062 l 1,17,-1
 662 910 l 1,18,-1
 394 910 l 1,19,-1
 394 74 l 2,20,21
 394 -26 394 -26 398 -42 c 1,22,23
 476 34 476 34 602 34 c 0,24,25
 734 34 734 34 809 -38 c 128,-1,26
 884 -110 884 -110 884 -214 c 0,27,28
 884 -324 884 -324 806 -393 c 128,-1,29
 728 -462 728 -462 602 -462 c 0,30,31
 444 -462 444 -462 346 -334 c 1,32,33
 300 -410 300 -410 288 -454 c 1,34,-1
 140 -406 l 1,35,36
 202 -248 202 -248 244 -194 c 1,37,38
 216 -126 216 -126 216 52 c 2,39,-1
 216 910 l 1,40,-1
 36 910 l 1,11,-1
EndSplineSet
EndChar

StartChar: uni0237
Encoding: 567 567 505
Width: 540
GlyphClass: 2
Flags: W
LayerCount: 2
Fore
SplineSet
-24 -296 m 1,0,-1
 20 -296 l 2,1,2
 184 -296 184 -296 184 -66 c 2,3,-1
 184 1062 l 1,4,-1
 366 1062 l 1,5,-1
 366 -76 l 2,6,7
 366 -260 366 -260 283 -354 c 128,-1,8
 200 -448 200 -448 48 -448 c 2,9,-1
 -24 -448 l 1,10,-1
 -24 -296 l 1,0,-1
EndSplineSet
EndChar

StartChar: uni0238
Encoding: 568 568 506
Width: 1840
GlyphClass: 2
Flags: W
LayerCount: 2
Fore
SplineSet
78 532 m 0,0,1
 78 796 78 796 207 946 c 128,-1,2
 336 1096 336 1096 528 1096 c 0,3,4
 638 1096 638 1096 717 1037 c 128,-1,5
 796 978 796 978 830 900 c 1,6,-1
 830 1524 l 1,7,-1
 1012 1524 l 1,8,-1
 1012 898 l 1,9,10
 1044 972 1044 972 1125 1034 c 128,-1,11
 1206 1096 1206 1096 1316 1096 c 0,12,13
 1512 1096 1512 1096 1636 946 c 128,-1,14
 1760 796 1760 796 1760 532 c 0,15,16
 1760 384 1760 384 1720 270 c 128,-1,17
 1680 156 1680 156 1614 92 c 128,-1,18
 1548 28 1548 28 1472 -3 c 128,-1,19
 1396 -34 1396 -34 1316 -34 c 0,20,21
 1206 -34 1206 -34 1125 26 c 128,-1,22
 1044 86 1044 86 1010 170 c 1,23,-1
 1010 0 l 1,24,-1
 834 0 l 1,25,-1
 834 172 l 1,26,27
 796 82 796 82 714 24 c 128,-1,28
 632 -34 632 -34 526 -34 c 0,29,30
 446 -34 446 -34 371 -4 c 128,-1,31
 296 26 296 26 229 89 c 128,-1,32
 162 152 162 152 120 267 c 128,-1,33
 78 382 78 382 78 532 c 0,0,1
264 532 m 0,34,35
 264 338 264 338 344 228 c 128,-1,36
 424 118 424 118 552 118 c 0,37,38
 676 118 676 118 755 230 c 128,-1,39
 834 342 834 342 834 520 c 2,40,-1
 834 534 l 2,41,42
 834 710 834 710 753 827 c 128,-1,43
 672 944 672 944 550 944 c 0,44,45
 422 944 422 944 343 834 c 128,-1,46
 264 724 264 724 264 532 c 0,34,35
1008 518 m 2,47,48
 1008 346 1008 346 1087 232 c 128,-1,49
 1166 118 1166 118 1290 118 c 0,50,51
 1418 118 1418 118 1498 227 c 128,-1,52
 1578 336 1578 336 1578 532 c 0,53,54
 1578 720 1578 720 1499 832 c 128,-1,55
 1420 944 1420 944 1290 944 c 0,56,57
 1166 944 1166 944 1087 827 c 128,-1,58
 1008 710 1008 710 1008 534 c 2,59,-1
 1008 518 l 2,47,48
EndSplineSet
EndChar

StartChar: uni0239
Encoding: 569 569 507
Width: 1844
GlyphClass: 2
Flags: W
LayerCount: 2
Fore
SplineSet
78 532 m 0,0,1
 78 790 78 790 205 943 c 128,-1,2
 332 1096 332 1096 528 1096 c 0,3,4
 630 1096 630 1096 709 1041 c 128,-1,5
 788 986 788 986 834 892 c 1,6,-1
 834 1062 l 1,7,-1
 1012 1062 l 1,8,-1
 1012 894 l 1,9,10
 1054 980 1054 980 1137 1038 c 128,-1,11
 1220 1096 1220 1096 1326 1096 c 0,12,13
 1520 1096 1520 1096 1642 943 c 128,-1,14
 1764 790 1764 790 1764 532 c 0,15,16
 1764 254 1764 254 1634 110 c 128,-1,17
 1504 -34 1504 -34 1324 -34 c 0,18,19
 1212 -34 1212 -34 1129 25 c 128,-1,20
 1046 84 1046 84 1012 168 c 1,21,-1
 1012 -454 l 1,22,-1
 830 -454 l 1,23,-1
 830 166 l 1,24,25
 792 80 792 80 712 23 c 128,-1,26
 632 -34 632 -34 526 -34 c 0,27,28
 344 -34 344 -34 211 110 c 128,-1,29
 78 254 78 254 78 532 c 0,0,1
262 532 m 0,30,31
 262 340 262 340 343 229 c 128,-1,32
 424 118 424 118 550 118 c 256,33,34
 676 118 676 118 754 230 c 128,-1,35
 832 342 832 342 832 532 c 2,36,-1
 832 544 l 2,37,38
 832 718 832 718 754 831 c 128,-1,39
 676 944 676 944 552 944 c 0,40,41
 414 944 414 944 338 828 c 128,-1,42
 262 712 262 712 262 532 c 0,30,31
1012 532 m 2,43,44
 1012 342 1012 342 1092 230 c 128,-1,45
 1172 118 1172 118 1300 118 c 0,46,47
 1426 118 1426 118 1504 229 c 128,-1,48
 1582 340 1582 340 1582 532 c 0,49,50
 1582 714 1582 714 1508 829 c 128,-1,51
 1434 944 1434 944 1300 944 c 0,52,53
 1180 944 1180 944 1096 832 c 128,-1,54
 1012 720 1012 720 1012 546 c 2,55,-1
 1012 532 l 2,43,44
EndSplineSet
EndChar

StartChar: uni023A
Encoding: 570 570 508
Width: 1288
GlyphClass: 2
Flags: W
LayerCount: 2
Fore
SplineSet
-8 0 m 1,0,-1
 536 1470 l 1,1,-1
 756 1470 l 1,2,-1
 866 1168 l 1,3,-1
 1106 1548 l 1,4,-1
 1248 1548 l 1,5,-1
 920 1024 l 1,6,-1
 1296 0 l 1,7,-1
 1094 0 l 1,8,-1
 956 402 l 1,9,-1
 528 402 l 1,10,-1
 160 -184 l 1,11,-1
 16 -184 l 1,12,-1
 132 0 l 1,13,-1
 -8 0 l 1,0,-1
388 554 m 1,14,-1
 480 554 l 1,15,-1
 754 988 l 1,16,-1
 746 1010 l 2,17,18
 718 1086 718 1086 652 1294 c 1,19,-1
 640 1294 l 1,20,21
 604 1180 604 1180 546 1010 c 2,22,-1
 388 554 l 1,14,-1
624 554 m 1,23,-1
 904 554 l 1,24,-1
 804 842 l 1,25,-1
 624 554 l 1,23,-1
338 402 m 1,26,-1
 278 232 l 1,27,-1
 384 402 l 1,28,-1
 338 402 l 1,26,-1
EndSplineSet
EndChar

StartChar: uni023B
Encoding: 571 571 509
Width: 1310
GlyphClass: 2
Flags: W
LayerCount: 2
Fore
SplineSet
94 734 m 0,0,1
 94 1088 94 1088 270 1296 c 128,-1,2
 446 1504 446 1504 730 1504 c 0,3,4
 840 1504 840 1504 942 1460 c 1,5,-1
 988 1584 l 1,6,-1
 1128 1584 l 1,7,-1
 1056 1392 l 1,8,9
 1164 1302 1164 1302 1222 1172 c 1,10,-1
 1062 1118 l 1,11,12
 1032 1172 1032 1172 990 1218 c 1,13,-1
 586 154 l 1,14,15
 656 128 656 128 728 128 c 0,16,17
 856 128 856 128 950 201 c 128,-1,18
 1044 274 1044 274 1090 378 c 1,19,-1
 1260 324 l 1,20,21
 1232 260 1232 260 1189 202 c 128,-1,22
 1146 144 1146 144 1083 88 c 128,-1,23
 1020 32 1020 32 928 -1 c 128,-1,24
 836 -34 836 -34 730 -34 c 0,25,26
 630 -34 630 -34 526 0 c 1,27,-1
 478 -132 l 1,28,-1
 340 -132 l 1,29,-1
 408 54 l 1,30,31
 260 146 260 146 177 321 c 128,-1,32
 94 496 94 496 94 734 c 0,0,1
472 222 m 1,33,-1
 884 1306 l 1,34,35
 812 1344 812 1344 728 1344 c 0,36,37
 524 1344 524 1344 406 1176 c 128,-1,38
 288 1008 288 1008 288 734 c 0,39,40
 288 382 288 382 472 222 c 1,33,-1
EndSplineSet
EndChar

StartChar: uni023C
Encoding: 572 572 510
Width: 1014
GlyphClass: 2
Flags: W
LayerCount: 2
Fore
SplineSet
78 532 m 0,0,1
 78 776 78 776 207 936 c 128,-1,2
 336 1096 336 1096 564 1096 c 0,3,4
 642 1096 642 1096 706 1068 c 1,5,-1
 754 1200 l 1,6,-1
 880 1200 l 1,7,-1
 812 1006 l 1,8,9
 910 936 910 936 946 808 c 1,10,-1
 798 762 l 1,11,12
 770 818 770 818 754 844 c 1,13,-1
 498 126 l 1,14,15
 522 118 522 118 560 118 c 0,16,17
 656 118 656 118 721 177 c 128,-1,18
 786 236 786 236 818 312 c 1,19,-1
 972 266 l 1,20,21
 932 150 932 150 825 58 c 128,-1,22
 718 -34 718 -34 560 -34 c 0,23,24
 494 -34 494 -34 442 -22 c 1,25,-1
 406 -126 l 1,26,-1
 278 -126 l 1,27,-1
 330 22 l 1,28,29
 206 88 206 88 142 226 c 128,-1,30
 78 364 78 364 78 532 c 0,0,1
392 188 m 1,31,-1
 652 920 l 1,32,33
 614 942 614 942 560 942 c 0,34,35
 422 942 422 942 343 826 c 128,-1,36
 264 710 264 710 264 532 c 0,37,38
 264 288 264 288 392 188 c 1,31,-1
EndSplineSet
EndChar

StartChar: uni023D
Encoding: 573 573 511
Width: 1080
GlyphClass: 2
Flags: W
LayerCount: 2
Fore
SplineSet
24 760 m 1,0,-1
 24 906 l 1,1,-1
 190 906 l 1,2,-1
 190 1470 l 1,3,-1
 378 1470 l 1,4,-1
 378 906 l 1,5,-1
 768 906 l 1,6,-1
 768 760 l 1,7,-1
 378 760 l 1,8,-1
 378 158 l 1,9,-1
 1066 158 l 1,10,-1
 1066 0 l 1,11,-1
 190 0 l 1,12,-1
 190 760 l 1,13,-1
 24 760 l 1,0,-1
EndSplineSet
EndChar

StartChar: uni023E
Encoding: 574 574 512
Width: 1106
GlyphClass: 2
Flags: W
LayerCount: 2
Fore
SplineSet
648 1310 m 1,0,-1
 648 966 l 1,1,-1
 838 1310 l 1,2,-1
 648 1310 l 1,0,-1
24 1310 m 1,3,-1
 24 1470 l 1,4,-1
 926 1470 l 1,5,-1
 988 1584 l 1,6,-1
 1124 1584 l 1,7,-1
 1062 1470 l 1,8,-1
 1086 1470 l 1,9,-1
 1086 1310 l 1,10,-1
 974 1310 l 1,11,-1
 648 720 l 1,12,-1
 648 0 l 1,13,-1
 460 0 l 1,14,-1
 460 378 l 1,15,-1
 206 -82 l 1,16,-1
 72 -82 l 1,17,-1
 460 624 l 1,18,-1
 460 1310 l 1,19,-1
 24 1310 l 1,3,-1
EndSplineSet
EndChar

StartChar: uni023F
Encoding: 575 575 513
Width: 980
GlyphClass: 2
Flags: W
LayerCount: 2
Fore
SplineSet
64 214 m 1,0,-1
 194 290 l 1,1,2
 306 116 306 116 502 116 c 0,3,4
 610 116 610 116 674 157 c 128,-1,5
 738 198 738 198 738 270 c 0,6,7
 738 296 738 296 729 318 c 128,-1,8
 720 340 720 340 699 358 c 128,-1,9
 678 376 678 376 661 389 c 128,-1,10
 644 402 644 402 606 417 c 128,-1,11
 568 432 568 432 547 439 c 128,-1,12
 526 446 526 446 480 461 c 128,-1,13
 434 476 434 476 414 482 c 0,14,15
 268 532 268 532 183 601 c 128,-1,16
 98 670 98 670 98 794 c 0,17,18
 98 934 98 934 211 1015 c 128,-1,19
 324 1096 324 1096 498 1096 c 0,20,21
 634 1096 634 1096 742 1029 c 128,-1,22
 850 962 850 962 906 862 c 1,23,-1
 784 784 l 1,24,25
 678 946 678 946 500 946 c 0,26,27
 394 946 394 946 338 904 c 128,-1,28
 282 862 282 862 282 790 c 0,29,30
 282 712 282 712 354 667 c 128,-1,31
 426 622 426 622 544 590 c 0,32,33
 620 568 620 568 678 544 c 128,-1,34
 736 520 736 520 796 483 c 128,-1,35
 856 446 856 446 888 392 c 128,-1,36
 920 338 920 338 920 270 c 0,37,38
 920 140 920 140 810 53 c 128,-1,39
 700 -34 700 -34 502 -34 c 0,40,41
 378 -34 378 -34 296 8 c 1,42,43
 346 -172 346 -172 380 -228 c 0,44,45
 444 -332 444 -332 570 -332 c 0,46,47
 632 -332 632 -332 676 -324 c 1,48,-1
 676 -450 l 1,49,50
 584 -462 584 -462 562 -462 c 0,51,52
 482 -462 482 -462 418 -434 c 128,-1,53
 354 -406 354 -406 315 -368 c 128,-1,54
 276 -330 276 -330 244 -260 c 128,-1,55
 212 -190 212 -190 197 -141 c 128,-1,56
 182 -92 182 -92 160 -10 c 0,57,58
 126 140 126 140 64 214 c 1,0,-1
EndSplineSet
EndChar

StartChar: uni0240
Encoding: 576 576 514
Width: 962
GlyphClass: 2
Flags: W
LayerCount: 2
Fore
SplineSet
58 0 m 1,0,-1
 58 122 l 1,1,-1
 654 910 l 1,2,-1
 108 910 l 1,3,-1
 108 1062 l 1,4,-1
 886 1062 l 1,5,-1
 886 948 l 1,6,-1
 264 120 l 1,7,8
 338 108 338 108 400 59 c 128,-1,9
 462 10 462 10 507 -50 c 128,-1,10
 552 -110 552 -110 595 -170 c 128,-1,11
 638 -230 638 -230 690 -269 c 128,-1,12
 742 -308 742 -308 802 -308 c 0,13,14
 856 -308 856 -308 910 -298 c 1,15,-1
 910 -448 l 1,16,17
 848 -462 848 -462 790 -462 c 0,18,19
 706 -462 706 -462 635 -417 c 128,-1,20
 564 -372 564 -372 513 -305 c 128,-1,21
 462 -238 462 -238 413 -171 c 128,-1,22
 364 -104 364 -104 301 -55 c 128,-1,23
 238 -6 238 -6 166 0 c 2,24,-1
 58 0 l 1,0,-1
EndSplineSet
EndChar

StartChar: uni0241
Encoding: 577 577 515
Width: 1138
GlyphClass: 2
Flags: W
LayerCount: 2
Fore
SplineSet
122 1170 m 1,0,1
 170 1322 170 1322 292 1413 c 128,-1,2
 414 1504 414 1504 576 1504 c 0,3,4
 764 1504 764 1504 882 1393 c 128,-1,5
 1000 1282 1000 1282 1000 1100 c 0,6,7
 1000 1010 1000 1010 964 938 c 128,-1,8
 928 866 928 866 876 814 c 128,-1,9
 824 762 824 762 773 713 c 128,-1,10
 722 664 722 664 687 598 c 128,-1,11
 652 532 652 532 652 450 c 2,12,-1
 652 0 l 1,13,-1
 464 0 l 1,14,-1
 464 464 l 2,15,16
 464 556 464 556 500 632 c 128,-1,17
 536 708 536 708 586 760 c 128,-1,18
 636 812 636 812 687 860 c 128,-1,19
 738 908 738 908 774 970 c 128,-1,20
 810 1032 810 1032 810 1106 c 0,21,22
 810 1214 810 1214 746 1280 c 128,-1,23
 682 1346 682 1346 578 1346 c 0,24,25
 478 1346 478 1346 403 1284 c 128,-1,26
 328 1222 328 1222 288 1118 c 1,27,-1
 122 1170 l 1,0,1
EndSplineSet
EndChar

StartChar: uni0250
Encoding: 592 592 516
Width: 1100
GlyphClass: 2
Flags: W
LayerCount: 2
Fore
SplineSet
318 512 m 1,0,1
 384 530 384 530 568 558 c 0,2,3
 844 604 844 604 844 780 c 0,4,5
 844 850 844 850 786 897 c 128,-1,6
 728 944 728 944 630 944 c 0,7,8
 500 944 500 944 409 860 c 128,-1,9
 318 776 318 776 318 648 c 2,10,-1
 318 512 l 1,0,1
136 390 m 2,11,-1
 136 1062 l 1,12,-1
 312 1062 l 1,13,-1
 312 902 l 1,14,15
 344 978 344 978 437 1037 c 128,-1,16
 530 1096 530 1096 656 1096 c 0,17,18
 826 1096 826 1096 926 1013 c 128,-1,19
 1026 930 1026 930 1026 794 c 0,20,21
 1026 498 1026 498 566 428 c 0,22,23
 402 400 402 400 316 376 c 0,24,25
 316 368 316 368 317 344 c 128,-1,26
 318 320 318 320 318 312 c 0,27,28
 318 224 318 224 385 167 c 128,-1,29
 452 110 452 110 564 110 c 0,30,31
 654 110 654 110 739 152 c 128,-1,32
 824 194 824 194 886 268 c 1,33,-1
 1000 172 l 1,34,35
 918 76 918 76 804 21 c 128,-1,36
 690 -34 690 -34 566 -34 c 0,37,38
 136 -34 136 -34 136 390 c 2,11,-1
EndSplineSet
EndChar

StartChar: uni0251
Encoding: 593 593 517
Width: 1156
GlyphClass: 2
Flags: W
LayerCount: 2
Fore
SplineSet
264 532 m 0,0,1
 264 338 264 338 345 228 c 128,-1,2
 426 118 426 118 552 118 c 0,3,4
 660 118 660 118 746 224 c 128,-1,5
 832 330 832 330 832 532 c 0,6,7
 832 718 832 718 751 831 c 128,-1,8
 670 944 670 944 550 944 c 0,9,10
 420 944 420 944 342 833 c 128,-1,11
 264 722 264 722 264 532 c 0,0,1
78 532 m 0,12,13
 78 792 78 792 205 944 c 128,-1,14
 332 1096 332 1096 526 1096 c 0,15,16
 634 1096 634 1096 717 1034 c 128,-1,17
 800 972 800 972 828 900 c 1,18,-1
 828 1062 l 1,19,-1
 1008 1062 l 1,20,-1
 1008 0 l 1,21,-1
 832 0 l 1,22,-1
 832 174 l 1,23,24
 796 88 796 88 714 27 c 128,-1,25
 632 -34 632 -34 526 -34 c 0,26,27
 346 -34 346 -34 212 108 c 128,-1,28
 78 250 78 250 78 532 c 0,12,13
EndSplineSet
EndChar

StartChar: uni0252
Encoding: 594 594 518
Width: 1156
GlyphClass: 2
Flags: W
LayerCount: 2
Fore
SplineSet
148 0 m 1,0,-1
 148 1062 l 1,1,-1
 328 1062 l 1,2,-1
 328 896 l 1,3,4
 360 972 360 972 442 1034 c 128,-1,5
 524 1096 524 1096 634 1096 c 0,6,7
 830 1096 830 1096 953 945 c 128,-1,8
 1076 794 1076 794 1076 532 c 0,9,10
 1076 384 1076 384 1036 270 c 128,-1,11
 996 156 996 156 931 92 c 128,-1,12
 866 28 866 28 790 -3 c 128,-1,13
 714 -34 714 -34 634 -34 c 0,14,15
 524 -34 524 -34 442 27 c 128,-1,16
 360 88 360 88 326 172 c 1,17,-1
 326 0 l 1,18,-1
 148 0 l 1,0,-1
326 532 m 0,19,20
 326 342 326 342 407 230 c 128,-1,21
 488 118 488 118 606 118 c 0,22,23
 736 118 736 118 815 229 c 128,-1,24
 894 340 894 340 894 532 c 0,25,26
 894 722 894 722 816 833 c 128,-1,27
 738 944 738 944 608 944 c 0,28,29
 488 944 488 944 407 831 c 128,-1,30
 326 718 326 718 326 532 c 0,19,20
EndSplineSet
EndChar

StartChar: uni0253
Encoding: 595 595 519
Width: 1164
GlyphClass: 2
Flags: W
LayerCount: 2
Fore
SplineSet
330 530 m 0,0,1
 330 342 330 342 411 230 c 128,-1,2
 492 118 492 118 614 118 c 0,3,4
 744 118 744 118 823 229 c 128,-1,5
 902 340 902 340 902 532 c 0,6,7
 902 716 902 716 825 830 c 128,-1,8
 748 944 748 944 614 944 c 0,9,10
 490 944 490 944 410 829 c 128,-1,11
 330 714 330 714 330 530 c 0,0,1
154 0 m 1,12,-1
 154 1118 l 2,13,14
 154 1322 154 1322 253 1434 c 128,-1,15
 352 1546 352 1546 530 1546 c 0,16,17
 616 1546 616 1546 754 1520 c 1,18,-1
 748 1364 l 1,19,20
 608 1386 608 1386 558 1386 c 0,21,22
 446 1386 446 1386 390 1307 c 128,-1,23
 334 1228 334 1228 334 1086 c 2,24,-1
 334 896 l 1,25,26
 374 980 374 980 454 1038 c 128,-1,27
 534 1096 534 1096 640 1096 c 0,28,29
 842 1096 842 1096 963 942 c 128,-1,30
 1084 788 1084 788 1084 532 c 0,31,32
 1084 262 1084 262 954 114 c 128,-1,33
 824 -34 824 -34 640 -34 c 0,34,35
 524 -34 524 -34 446 28 c 128,-1,36
 368 90 368 90 332 172 c 1,37,-1
 332 0 l 1,38,-1
 154 0 l 1,12,-1
EndSplineSet
EndChar

StartChar: uni0254
Encoding: 596 596 520
Width: 1014
GlyphClass: 2
Flags: W
LayerCount: 2
Fore
SplineSet
44 266 m 1,0,-1
 196 312 l 1,1,2
 226 236 226 236 296 177 c 128,-1,3
 366 118 366 118 454 118 c 0,4,5
 584 118 584 118 668 229 c 128,-1,6
 752 340 752 340 752 530 c 0,7,8
 752 708 752 708 672 826 c 128,-1,9
 592 944 592 944 454 944 c 0,10,11
 374 944 374 944 312 891 c 128,-1,12
 250 838 250 838 224 762 c 1,13,-1
 72 808 l 1,14,15
 104 922 104 922 207 1009 c 128,-1,16
 310 1096 310 1096 458 1096 c 0,17,18
 676 1096 676 1096 806 940 c 128,-1,19
 936 784 936 784 936 530 c 0,20,21
 936 272 936 272 805 119 c 128,-1,22
 674 -34 674 -34 458 -34 c 0,23,24
 308 -34 308 -34 195 55 c 128,-1,25
 82 144 82 144 44 266 c 1,0,-1
EndSplineSet
EndChar

StartChar: uni0255
Encoding: 597 597 521
Width: 1018
GlyphClass: 2
Flags: W
LayerCount: 2
Fore
SplineSet
494 130 m 1,0,1
 558 106 558 106 626 106 c 0,2,3
 702 106 702 106 748 137 c 128,-1,4
 794 168 794 168 794 208 c 0,5,6
 794 282 794 282 694 282 c 0,7,8
 626 282 626 282 573 236 c 128,-1,9
 520 190 520 190 494 130 c 1,0,1
78 542 m 0,10,11
 78 776 78 776 206 936 c 128,-1,12
 334 1096 334 1096 560 1096 c 0,13,14
 710 1096 710 1096 811 1007 c 128,-1,15
 912 918 912 918 944 808 c 1,16,-1
 792 762 l 1,17,18
 766 834 766 834 705 889 c 128,-1,19
 644 944 644 944 560 944 c 0,20,21
 422 944 422 944 343 827 c 128,-1,22
 264 710 264 710 264 532 c 0,23,24
 264 328 264 328 368 214 c 1,25,26
 416 302 416 302 500 362 c 128,-1,27
 584 422 584 422 700 422 c 0,28,29
 818 422 818 422 890 359 c 128,-1,30
 962 296 962 296 962 208 c 0,31,32
 962 100 962 100 871 33 c 128,-1,33
 780 -34 780 -34 620 -34 c 0,34,35
 514 -34 514 -34 434 -12 c 1,36,37
 408 -78 408 -78 398 -130 c 1,38,-1
 240 -92 l 1,39,40
 250 -40 250 -40 290 54 c 1,41,42
 78 208 78 208 78 542 c 0,10,11
EndSplineSet
EndChar

StartChar: uni0256
Encoding: 598 598 522
Width: 1166
GlyphClass: 2
Flags: W
LayerCount: 2
Fore
SplineSet
78 532 m 0,0,1
 78 796 78 796 207 946 c 128,-1,2
 336 1096 336 1096 528 1096 c 0,3,4
 638 1096 638 1096 717 1037 c 128,-1,5
 796 978 796 978 830 900 c 1,6,-1
 830 1524 l 1,7,-1
 1012 1524 l 1,8,-1
 1012 -68 l 2,9,10
 1012 -192 1012 -192 1052 -247 c 128,-1,11
 1092 -302 1092 -302 1176 -302 c 0,12,13
 1246 -302 1246 -302 1312 -290 c 1,14,-1
 1312 -446 l 1,15,16
 1188 -462 1188 -462 1144 -462 c 0,17,18
 834 -462 834 -462 834 -78 c 2,19,-1
 834 172 l 1,20,21
 796 82 796 82 714 24 c 128,-1,22
 632 -34 632 -34 526 -34 c 0,23,24
 446 -34 446 -34 369 -3 c 128,-1,25
 292 28 292 28 226 93 c 128,-1,26
 160 158 160 158 119 272 c 128,-1,27
 78 386 78 386 78 532 c 0,0,1
264 532 m 256,28,29
 264 342 264 342 343 230 c 128,-1,30
 422 118 422 118 552 118 c 0,31,32
 672 118 672 118 753 230 c 128,-1,33
 834 342 834 342 834 532 c 0,34,35
 834 718 834 718 753 831 c 128,-1,36
 672 944 672 944 552 944 c 0,37,38
 424 944 424 944 344 833 c 128,-1,39
 264 722 264 722 264 532 c 256,28,29
EndSplineSet
EndChar

StartChar: uni0257
Encoding: 599 599 523
Width: 1166
GlyphClass: 2
Flags: W
LayerCount: 2
Fore
SplineSet
78 532 m 0,0,1
 78 796 78 796 207 946 c 128,-1,2
 336 1096 336 1096 528 1096 c 0,3,4
 636 1096 636 1096 717 1035 c 128,-1,5
 798 974 798 974 830 896 c 1,6,-1
 830 1232 l 2,7,8
 830 1384 830 1384 925 1465 c 128,-1,9
 1020 1546 1020 1546 1172 1546 c 0,10,11
 1204 1546 1204 1546 1330 1536 c 1,12,-1
 1330 1378 l 1,13,14
 1280 1384 1280 1384 1204 1384 c 0,15,16
 1118 1384 1118 1384 1065 1334 c 128,-1,17
 1012 1284 1012 1284 1012 1192 c 2,18,-1
 1012 0 l 1,19,-1
 836 0 l 1,20,-1
 836 176 l 1,21,22
 802 88 802 88 718 27 c 128,-1,23
 634 -34 634 -34 526 -34 c 0,24,25
 348 -34 348 -34 213 108 c 128,-1,26
 78 250 78 250 78 532 c 0,0,1
264 532 m 0,27,28
 264 338 264 338 343 228 c 128,-1,29
 422 118 422 118 552 118 c 0,30,31
 670 118 670 118 752 228 c 128,-1,32
 834 338 834 338 834 532 c 0,33,34
 834 718 834 718 753 831 c 128,-1,35
 672 944 672 944 552 944 c 0,36,37
 422 944 422 944 343 832 c 128,-1,38
 264 720 264 720 264 532 c 0,27,28
EndSplineSet
EndChar

StartChar: uni0258
Encoding: 600 600 524
Width: 1110
GlyphClass: 2
Flags: W
LayerCount: 2
Fore
SplineSet
260 604 m 1,0,-1
 848 604 l 1,1,2
 840 746 840 746 761 847 c 128,-1,3
 682 948 682 948 548 948 c 256,4,5
 414 948 414 948 338 848 c 128,-1,6
 262 748 262 748 260 604 c 1,0,-1
78 470 m 1,7,-1
 78 554 l 2,8,9
 78 798 78 798 209 947 c 128,-1,10
 340 1096 340 1096 548 1096 c 0,11,12
 760 1096 760 1096 896 943 c 128,-1,13
 1032 790 1032 790 1032 538 c 0,14,15
 1032 274 1032 274 895 120 c 128,-1,16
 758 -34 758 -34 538 -34 c 0,17,18
 372 -34 372 -34 260 42 c 128,-1,19
 148 118 148 118 98 234 c 1,20,-1
 250 284 l 1,21,22
 288 206 288 206 363 160 c 128,-1,23
 438 114 438 114 536 114 c 0,24,25
 680 114 680 114 764 217 c 128,-1,26
 848 320 848 320 850 470 c 1,27,-1
 78 470 l 1,7,-1
EndSplineSet
EndChar

StartChar: uni025A
Encoding: 602 602 526
Width: 1300
GlyphClass: 2
Flags: W
LayerCount: 2
Fore
SplineSet
76 452 m 1,0,-1
 806 776 l 1,1,2
 714 946 714 946 536 946 c 0,3,4
 438 946 438 946 363 900 c 128,-1,5
 288 854 288 854 246 776 c 1,6,-1
 96 826 l 1,7,8
 148 948 148 948 261 1022 c 128,-1,9
 374 1096 374 1096 538 1096 c 0,10,11
 686 1096 686 1096 792 1028 c 128,-1,12
 898 960 898 960 956 848 c 1,13,-1
 1110 924 l 1,14,15
 1130 860 1130 860 1176 820 c 128,-1,16
 1222 780 1222 780 1278 780 c 0,17,18
 1322 780 1322 780 1354 790 c 1,19,-1
 1354 648 l 1,20,21
 1310 634 1310 634 1264 634 c 0,22,23
 1196 634 1196 634 1144 663 c 128,-1,24
 1092 692 1092 692 1070 734 c 1,25,-1
 1010 702 l 1,26,27
 1028 628 1028 628 1028 528 c 0,28,29
 1028 282 1028 282 897 124 c 128,-1,30
 766 -34 766 -34 546 -34 c 0,31,32
 332 -34 332 -34 209 110 c 128,-1,33
 86 254 86 254 76 452 c 1,0,-1
264 380 m 1,34,35
 286 254 286 254 364 184 c 128,-1,36
 442 114 442 114 546 114 c 0,37,38
 674 114 674 114 755 213 c 128,-1,39
 836 312 836 312 840 476 c 0,40,41
 846 520 846 520 846 560 c 0,42,43
 846 596 846 596 842 628 c 1,44,-1
 264 380 l 1,34,35
EndSplineSet
EndChar

StartChar: uni025B
Encoding: 603 603 527
Width: 956
GlyphClass: 2
Flags: W
LayerCount: 2
Fore
SplineSet
78 292 m 0,0,1
 78 394 78 394 139 464 c 128,-1,2
 200 534 200 534 288 562 c 1,3,4
 120 634 120 634 120 800 c 0,5,6
 120 930 120 930 222 1013 c 128,-1,7
 324 1096 324 1096 500 1096 c 0,8,9
 756 1096 756 1096 884 868 c 1,10,-1
 740 806 l 1,11,12
 702 866 702 866 639 905 c 128,-1,13
 576 944 576 944 504 944 c 0,14,15
 404 944 404 944 353 902 c 128,-1,16
 302 860 302 860 302 788 c 0,17,18
 302 714 302 714 362 667 c 128,-1,19
 422 620 422 620 542 620 c 2,20,-1
 638 620 l 1,21,-1
 638 486 l 1,22,-1
 542 486 l 2,23,24
 396 486 396 486 330 430 c 128,-1,25
 264 374 264 374 264 294 c 0,26,27
 264 212 264 212 335 165 c 128,-1,28
 406 118 406 118 508 118 c 0,29,30
 590 118 590 118 663 159 c 128,-1,31
 736 200 736 200 774 256 c 1,32,-1
 914 190 l 1,33,34
 856 90 856 90 749 28 c 128,-1,35
 642 -34 642 -34 506 -34 c 0,36,37
 320 -34 320 -34 199 52 c 128,-1,38
 78 138 78 138 78 292 c 0,0,1
EndSplineSet
EndChar

StartChar: uni025C
Encoding: 604 604 528
Width: 958
GlyphClass: 2
Flags: W
LayerCount: 2
Fore
SplineSet
42 190 m 1,0,-1
 184 256 l 1,1,2
 222 200 222 200 294 159 c 128,-1,3
 366 118 366 118 446 118 c 0,4,5
 550 118 550 118 623 165 c 128,-1,6
 696 212 696 212 696 294 c 0,7,8
 696 374 696 374 629 430 c 128,-1,9
 562 486 562 486 418 486 c 2,10,-1
 320 486 l 1,11,-1
 320 620 l 1,12,-1
 418 620 l 2,13,14
 538 620 538 620 597 667 c 128,-1,15
 656 714 656 714 656 788 c 0,16,17
 656 860 656 860 604 902 c 128,-1,18
 552 944 552 944 452 944 c 0,19,20
 382 944 382 944 320 905 c 128,-1,21
 258 866 258 866 220 806 c 1,22,-1
 72 868 l 1,23,24
 200 1096 200 1096 454 1096 c 0,25,26
 632 1096 632 1096 735 1013 c 128,-1,27
 838 930 838 930 838 800 c 0,28,29
 838 634 838 634 670 562 c 1,30,-1
 672 562 l 1,31,32
 760 534 760 534 819 464 c 128,-1,33
 878 394 878 394 878 292 c 0,34,35
 878 138 878 138 758 52 c 128,-1,36
 638 -34 638 -34 450 -34 c 0,37,38
 316 -34 316 -34 208 28 c 128,-1,39
 100 90 100 90 42 190 c 1,0,-1
EndSplineSet
EndChar

StartChar: uni025D
Encoding: 605 605 529
Width: 1094
GlyphClass: 2
Flags: W
LayerCount: 2
Fore
SplineSet
42 190 m 1,0,-1
 184 256 l 1,1,2
 216 204 216 204 290 161 c 128,-1,3
 364 118 364 118 446 118 c 0,4,5
 560 118 560 118 628 168 c 128,-1,6
 696 218 696 218 696 296 c 0,7,8
 696 376 696 376 627 431 c 128,-1,9
 558 486 558 486 416 486 c 2,10,-1
 320 486 l 1,11,-1
 320 620 l 1,12,-1
 416 620 l 2,13,14
 538 620 538 620 597 667 c 128,-1,15
 656 714 656 714 656 788 c 0,16,17
 656 860 656 860 605 902 c 128,-1,18
 554 944 554 944 452 944 c 0,19,20
 306 944 306 944 220 806 c 1,21,-1
 72 868 l 1,22,23
 204 1096 204 1096 454 1096 c 0,24,25
 698 1096 698 1096 796 944 c 1,26,-1
 942 1026 l 1,27,28
 966 960 966 960 1015 915 c 128,-1,29
 1064 870 1064 870 1120 870 c 0,30,31
 1164 870 1164 870 1196 880 c 1,32,-1
 1196 736 l 1,33,34
 1160 724 1160 724 1106 724 c 0,35,36
 1038 724 1038 724 982 757 c 128,-1,37
 926 790 926 790 904 834 c 1,38,-1
 836 798 l 1,39,40
 836 780 836 780 832 750 c 0,41,42
 820 686 820 686 774 637 c 128,-1,43
 728 588 728 588 672 564 c 1,44,-1
 672 562 l 1,45,46
 758 534 758 534 818 465 c 128,-1,47
 878 396 878 396 878 294 c 0,48,49
 878 138 878 138 760 52 c 128,-1,50
 642 -34 642 -34 446 -34 c 0,51,52
 312 -34 312 -34 203 30 c 128,-1,53
 94 94 94 94 42 190 c 1,0,-1
EndSplineSet
EndChar

StartChar: uni025E
Encoding: 606 606 530
Width: 1108
GlyphClass: 2
Flags: W
LayerCount: 2
Fore
SplineSet
78 534 m 0,0,1
 78 784 78 784 208 940 c 128,-1,2
 338 1096 338 1096 582 1096 c 0,3,4
 756 1096 756 1096 870 1017 c 128,-1,5
 984 938 984 938 984 794 c 0,6,7
 984 708 984 708 941 645 c 128,-1,8
 898 582 898 582 834 552 c 1,9,10
 916 526 916 526 970 461 c 128,-1,11
 1024 396 1024 396 1024 292 c 0,12,13
 1024 132 1024 132 902 49 c 128,-1,14
 780 -34 780 -34 584 -34 c 0,15,16
 346 -34 346 -34 212 117 c 128,-1,17
 78 268 78 268 78 534 c 0,0,1
264 534 m 0,18,19
 264 416 264 416 294 330 c 128,-1,20
 324 244 324 244 374 200 c 128,-1,21
 424 156 424 156 477 137 c 128,-1,22
 530 118 530 118 586 118 c 0,23,24
 712 118 712 118 777 163 c 128,-1,25
 842 208 842 208 842 288 c 0,26,27
 842 362 842 362 780 417 c 128,-1,28
 718 472 718 472 584 472 c 2,29,-1
 510 472 l 1,30,-1
 510 612 l 1,31,-1
 584 612 l 2,32,33
 696 612 696 612 749 662 c 128,-1,34
 802 712 802 712 802 780 c 0,35,36
 802 860 802 860 743 902 c 128,-1,37
 684 944 684 944 584 944 c 0,38,39
 450 944 450 944 357 842 c 128,-1,40
 264 740 264 740 264 534 c 0,18,19
EndSplineSet
EndChar

StartChar: uni025F
Encoding: 607 607 531
Width: 548
GlyphClass: 2
Flags: W
LayerCount: 2
Fore
SplineSet
-26 526 m 1,0,-1
 -26 672 l 1,1,-1
 188 672 l 1,2,-1
 188 1062 l 1,3,-1
 370 1062 l 1,4,-1
 370 672 l 1,5,-1
 568 672 l 1,6,-1
 568 526 l 1,7,-1
 370 526 l 1,8,-1
 370 -76 l 2,9,10
 370 -260 370 -260 288 -354 c 128,-1,11
 206 -448 206 -448 54 -448 c 2,12,-1
 -20 -448 l 1,13,-1
 -20 -296 l 1,14,-1
 24 -296 l 2,15,16
 188 -296 188 -296 188 -66 c 2,17,-1
 188 526 l 1,18,-1
 -26 526 l 1,0,-1
EndSplineSet
EndChar

StartChar: uni0260
Encoding: 608 608 532
Width: 1148
GlyphClass: 2
Flags: W
LayerCount: 2
Fore
SplineSet
80 552 m 0,0,1
 80 798 80 798 204 947 c 128,-1,2
 328 1096 328 1096 520 1096 c 0,3,4
 632 1096 632 1096 705 1039 c 128,-1,5
 778 982 778 982 814 906 c 1,6,-1
 814 1230 l 2,7,8
 814 1380 814 1380 911 1463 c 128,-1,9
 1008 1546 1008 1546 1156 1546 c 0,10,11
 1216 1546 1216 1546 1312 1538 c 1,12,-1
 1312 1380 l 1,13,14
 1264 1386 1264 1386 1188 1386 c 0,15,16
 1104 1386 1104 1386 1048 1335 c 128,-1,17
 992 1284 992 1284 992 1192 c 2,18,-1
 992 132 l 2,19,20
 992 0 992 0 972 -100 c 128,-1,21
 952 -200 952 -200 903 -286 c 128,-1,22
 854 -372 854 -372 760 -417 c 128,-1,23
 666 -462 666 -462 532 -462 c 0,24,25
 278 -462 278 -462 132 -264 c 1,26,-1
 252 -182 l 1,27,28
 374 -314 374 -314 536 -314 c 0,29,30
 676 -314 676 -314 743 -207 c 128,-1,31
 810 -100 810 -100 812 62 c 2,32,-1
 814 186 l 1,33,34
 776 106 776 106 701 56 c 128,-1,35
 626 6 626 6 526 6 c 0,36,37
 330 6 330 6 205 155 c 128,-1,38
 80 304 80 304 80 552 c 0,0,1
264 552 m 0,39,40
 264 364 264 364 343 261 c 128,-1,41
 422 158 422 158 542 158 c 0,42,43
 668 158 668 158 741 262 c 128,-1,44
 814 366 814 366 814 552 c 0,45,46
 814 732 814 732 739 838 c 128,-1,47
 664 944 664 944 544 944 c 0,48,49
 420 944 420 944 342 837 c 128,-1,50
 264 730 264 730 264 552 c 0,39,40
EndSplineSet
EndChar

StartChar: uni0262
Encoding: 610 610 534
Width: 1132
GlyphClass: 2
Flags: W
LayerCount: 2
Fore
SplineSet
78 528 m 0,0,1
 78 786 78 786 213 941 c 128,-1,2
 348 1096 348 1096 588 1096 c 0,3,4
 854 1096 854 1096 992 844 c 1,5,-1
 842 780 l 1,6,7
 744 942 744 942 588 942 c 0,8,9
 438 942 438 942 351 830 c 128,-1,10
 264 718 264 718 264 528 c 256,11,12
 264 338 264 338 352 229 c 128,-1,13
 440 120 440 120 586 120 c 0,14,15
 708 120 708 120 779 193 c 128,-1,16
 850 266 850 266 854 376 c 2,17,-1
 854 444 l 1,18,-1
 558 444 l 1,19,-1
 558 586 l 1,20,-1
 1024 586 l 1,21,-1
 1024 0 l 1,22,-1
 886 0 l 1,23,-1
 880 126 l 1,24,25
 848 62 848 62 767 14 c 128,-1,26
 686 -34 686 -34 576 -34 c 0,27,28
 354 -34 354 -34 216 114 c 128,-1,29
 78 262 78 262 78 528 c 0,0,1
EndSplineSet
EndChar

StartChar: uni0263
Encoding: 611 611 535
Width: 1008
GlyphClass: 2
Flags: W
LayerCount: 2
Fore
SplineSet
16 1062 m 1,0,-1
 214 1062 l 1,1,-1
 482 288 l 1,2,-1
 500 222 l 1,3,-1
 502 222 l 1,4,-1
 528 286 l 1,5,-1
 796 1062 l 1,6,-1
 992 1062 l 1,7,-1
 626 116 l 1,8,9
 776 -44 776 -44 776 -188 c 0,10,11
 776 -308 776 -308 699 -385 c 128,-1,12
 622 -462 622 -462 502 -462 c 0,13,14
 388 -462 388 -462 311 -387 c 128,-1,15
 234 -312 234 -312 234 -188 c 0,16,17
 234 -54 234 -54 382 112 c 1,18,-1
 16 1062 l 1,0,-1
386 -188 m 0,19,20
 386 -248 386 -248 418 -291 c 128,-1,21
 450 -334 450 -334 502 -334 c 0,22,23
 558 -334 558 -334 592 -290 c 128,-1,24
 626 -246 626 -246 626 -188 c 0,25,26
 626 -82 626 -82 502 44 c 1,27,28
 386 -70 386 -70 386 -188 c 0,19,20
EndSplineSet
Substitution2: "'sups' Superscript lookup 5 subtable" uni02E0
Substitution2: "'aalt' Access All Alternates lookup 0 subtable" uni02E0
EndChar

StartChar: uni0264
Encoding: 612 612 536
Width: 960
GlyphClass: 2
Flags: W
LayerCount: 2
Fore
SplineSet
480 666 m 1,0,1
 334 484 334 484 334 316 c 0,2,3
 334 230 334 230 374 175 c 128,-1,4
 414 120 414 120 486 120 c 0,5,6
 552 120 552 120 590 178 c 128,-1,7
 628 236 628 236 628 316 c 0,8,9
 628 416 628 416 590 495 c 128,-1,10
 552 574 552 574 480 666 c 1,0,1
48 930 m 1,11,-1
 48 1078 l 1,12,13
 110 1096 110 1096 164 1096 c 0,14,15
 258 1096 258 1096 328 1053 c 128,-1,16
 398 1010 398 1010 480 920 c 1,17,18
 634 1096 634 1096 800 1096 c 0,19,20
 858 1096 858 1096 916 1080 c 1,21,-1
 916 926 l 1,22,23
 860 942 860 942 804 942 c 0,24,25
 742 942 742 942 694 906 c 128,-1,26
 646 870 646 870 590 804 c 1,27,28
 702 666 702 666 755 559 c 128,-1,29
 808 452 808 452 808 314 c 0,30,31
 808 160 808 160 722 63 c 128,-1,32
 636 -34 636 -34 486 -34 c 0,33,34
 326 -34 326 -34 241 64 c 128,-1,35
 156 162 156 162 156 314 c 0,36,37
 156 412 156 412 192 508 c 128,-1,38
 228 604 228 604 266 661 c 128,-1,39
 304 718 304 718 374 804 c 1,40,41
 320 870 320 870 271 906 c 128,-1,42
 222 942 222 942 156 942 c 0,43,44
 152 942 152 942 48 930 c 1,11,-1
EndSplineSet
EndChar

StartChar: uni0265
Encoding: 613 613 537
Width: 1134
GlyphClass: 2
Flags: W
LayerCount: 2
Fore
SplineSet
136 376 m 2,0,-1
 136 1062 l 1,1,-1
 316 1062 l 1,2,-1
 316 400 l 2,3,4
 316 118 316 118 522 118 c 0,5,6
 634 118 634 118 716 214 c 128,-1,7
 798 310 798 310 798 440 c 2,8,-1
 798 1062 l 1,9,-1
 976 1062 l 1,10,-1
 976 -454 l 1,11,-1
 798 -454 l 1,12,-1
 798 150 l 1,13,-1
 796 150 l 1,14,15
 758 78 758 78 676 22 c 128,-1,16
 594 -34 594 -34 486 -34 c 0,17,18
 418 -34 418 -34 361 -16 c 128,-1,19
 304 2 304 2 251 44 c 128,-1,20
 198 86 198 86 167 171 c 128,-1,21
 136 256 136 256 136 376 c 2,0,-1
EndSplineSet
EndChar

StartChar: uni0266
Encoding: 614 614 538
Width: 1134
GlyphClass: 2
Flags: W
LayerCount: 2
Fore
SplineSet
158 0 m 1,0,-1
 158 1206 l 2,1,2
 158 1370 158 1370 257 1458 c 128,-1,3
 356 1546 356 1546 508 1546 c 0,4,5
 606 1546 606 1546 710 1532 c 1,6,-1
 710 1376 l 1,7,8
 646 1386 646 1386 538 1386 c 0,9,10
 444 1386 444 1386 392 1323 c 128,-1,11
 340 1260 340 1260 340 1176 c 2,12,-1
 340 912 l 1,13,-1
 342 912 l 1,14,15
 384 988 384 988 464 1042 c 128,-1,16
 544 1096 544 1096 650 1096 c 0,17,18
 714 1096 714 1096 770 1079 c 128,-1,19
 826 1062 826 1062 880 1020 c 128,-1,20
 934 978 934 978 966 892 c 128,-1,21
 998 806 998 806 998 684 c 2,22,-1
 998 0 l 1,23,-1
 818 0 l 1,24,-1
 818 658 l 2,25,26
 818 944 818 944 616 944 c 0,27,28
 502 944 502 944 421 849 c 128,-1,29
 340 754 340 754 340 622 c 2,30,-1
 340 0 l 1,31,-1
 158 0 l 1,0,-1
EndSplineSet
Substitution2: "'sups' Superscript lookup 5 subtable" uni02B1
Substitution2: "'aalt' Access All Alternates lookup 0 subtable" uni02B1
EndChar

StartChar: uni0267
Encoding: 615 615 539
Width: 1142
GlyphClass: 2
Flags: W
LayerCount: 2
Fore
SplineSet
158 0 m 1,0,-1
 158 1204 l 2,1,2
 158 1368 158 1368 257 1457 c 128,-1,3
 356 1546 356 1546 508 1546 c 0,4,5
 606 1546 606 1546 710 1532 c 1,6,-1
 710 1376 l 1,7,8
 646 1386 646 1386 538 1386 c 0,9,10
 442 1386 442 1386 391 1322 c 128,-1,11
 340 1258 340 1258 340 1170 c 2,12,-1
 340 912 l 1,13,-1
 342 912 l 1,14,15
 384 988 384 988 464 1042 c 128,-1,16
 544 1096 544 1096 650 1096 c 0,17,18
 712 1096 712 1096 768 1079 c 128,-1,19
 824 1062 824 1062 879 1020 c 128,-1,20
 934 978 934 978 966 893 c 128,-1,21
 998 808 998 808 998 684 c 2,22,-1
 998 -80 l 2,23,24
 998 -272 998 -272 919 -366 c 128,-1,25
 840 -460 840 -460 662 -460 c 0,26,27
 610 -460 610 -460 510 -452 c 1,28,-1
 510 -300 l 1,29,30
 592 -308 592 -308 630 -308 c 0,31,32
 728 -308 728 -308 773 -257 c 128,-1,33
 818 -206 818 -206 818 -74 c 2,34,-1
 818 658 l 2,35,36
 818 944 818 944 616 944 c 0,37,38
 502 944 502 944 421 847 c 128,-1,39
 340 750 340 750 340 622 c 2,40,-1
 340 0 l 1,41,-1
 158 0 l 1,0,-1
EndSplineSet
EndChar

StartChar: uni0268
Encoding: 616 616 540
Width: 538
GlyphClass: 2
Flags: W
LayerCount: 2
Fore
SplineSet
164 1272 m 1,0,-1
 164 1492 l 1,1,-1
 376 1492 l 1,2,-1
 376 1272 l 1,3,-1
 164 1272 l 1,0,-1
14 512 m 1,4,-1
 14 660 l 1,5,-1
 182 660 l 1,6,-1
 182 1062 l 1,7,-1
 360 1062 l 1,8,-1
 360 660 l 1,9,-1
 524 660 l 1,10,-1
 524 512 l 1,11,-1
 360 512 l 1,12,-1
 360 0 l 1,13,-1
 182 0 l 1,14,-1
 182 512 l 1,15,-1
 14 512 l 1,4,-1
EndSplineSet
EndChar

StartChar: uni0269
Encoding: 617 617 541
Width: 658
GlyphClass: 2
Flags: W
LayerCount: 2
Fore
SplineSet
140 300 m 2,0,-1
 140 1062 l 1,1,-1
 322 1062 l 1,2,-1
 322 310 l 2,3,4
 322 126 322 126 474 126 c 0,5,6
 554 126 554 126 618 134 c 1,7,-1
 618 -20 l 1,8,9
 486 -34 486 -34 440 -34 c 0,10,11
 304 -34 304 -34 222 49 c 128,-1,12
 140 132 140 132 140 300 c 2,0,-1
EndSplineSet
EndChar

